SplineFontDB: 3.2
FontName: My-First-Font-Regular
FullName: My First Font Regular
FamilyName: My First Font
Weight: Regular
Version: Version 1.001;Fontself iOS v1.1.1
ItalicAngle: 0
UnderlinePosition: 0
UnderlineWidth: 0
Ascent: 800
Descent: 200
InvalidEm: 0
sfntRevision: 0x00010000
LayerCount: 2
Layer: 0 0 "Back" 1
Layer: 1 0 "Fore" 0
XUID: [1021 806 -1608619503 932804]
StyleMap: 0x0000
FSType: 0
OS2Version: 4
OS2_WeightWidthSlopeOnly: 0
OS2_UseTypoMetrics: 0
CreationTime: 1665870902
ModificationTime: 1717480507
PfmFamily: 81
TTFWeight: 400
TTFWidth: 5
LineGap: 0
VLineGap: 0
Panose: 0 0 0 0 0 0 0 0 0 0
OS2TypoAscent: 970
OS2TypoAOffset: 0
OS2TypoDescent: -300
OS2TypoDOffset: 0
OS2TypoLinegap: 0
OS2WinAscent: 961
OS2WinAOffset: 0
OS2WinDescent: 238
OS2WinDOffset: 0
HheadAscent: 970
HheadAOffset: 0
HheadDescent: -300
HheadDOffset: 0
OS2SubXSize: 650
OS2SubYSize: 699
OS2SubXOff: 0
OS2SubYOff: 140
OS2SupXSize: 650
OS2SupYSize: 699
OS2SupXOff: 0
OS2SupYOff: 479
OS2StrikeYSize: 49
OS2StrikeYPos: 258
OS2CapHeight: 724
OS2XHeight: 500
OS2Vendor: 'XXXX'
OS2CodePages: 00000003.00000000
OS2UnicodeRanges: 80000027.00000042.00000000.00000000
Lookup: 258 0 0 "'kern' Horizontal Kerning in Latin lookup 0" { "'kern' Horizontal Kerning in Latin lookup 0 per glyph data 0"  "'kern' Horizontal Kerning in Latin lookup 0 kerning class 1"  } ['kern' ('DFLT' <'dflt' > 'latn' <'dflt' > ) ]
DEI: 91125
KernClass2: 101 95 "'kern' Horizontal Kerning in Latin lookup 0 kerning class 1"
 1 A
 1 B
 1 C
 1 D
 1 E
 1 F
 1 G
 1 H
 1 I
 1 J
 1 K
 1 L
 1 M
 1 N
 1 O
 1 P
 1 Q
 1 R
 1 S
 1 T
 1 U
 1 V
 1 W
 1 X
 1 Y
 1 Z
 1 a
 1 b
 1 c
 1 d
 1 e
 1 f
 1 g
 1 h
 1 i
 1 j
 1 k
 1 l
 1 m
 1 n
 1 o
 1 p
 1 q
 1 r
 1 s
 1 t
 1 u
 1 v
 1 w
 1 x
 1 y
 1 z
 4 zero
 3 one
 3 two
 5 three
 4 four
 4 five
 3 six
 5 seven
 5 eight
 4 nine
 12 comma period
 5 colon
 9 semicolon
 8 question
 20 quotedbl quotesingle
 9 quoteleft
 12 quotedblleft
 24 quoteright quotedblright
 13 guillemotleft
 14 guillemotright

StartChar: exclam
Encoding: 33 33 5
Width: 175
GlyphClass: 1
Flags: W
LayerCount: 2
Fore
SplineSet
53.6381464038 248.036195497 m 0
 53.6381464038 299.962049449 51.5913423001 352.030124359 51.5913423001 404.239666572 c 0
 51.5913423001 436.993407823 52.3957797076 469.852303091 55.0321456853 502.806877813 c 0
 57.5952844824 538.731560994 57.8410617338 626.587574828 60.0426221171 646.942023811 c 0
 61.1448528427 660.988985836 65.3135833194 678.897002963 79.5322033982 690.626240758 c 0
 85.3766404266 695.727968115 100.41069922 699.182365621 101.783377217 699.182365621 c 1
 101.746291979 699.16499136 101.698729129 699.049324382 101.640299973 699.02712182 c 1
 119.395288767 699.02712182 136.398878259 684.828229196 136.398878259 664.543477955 c 0
 136.398878259 650.041728245 130.959683771 647.411110156 129.778273681 641.897863073 c 0
 127.445587947 631.011996313 127 555.48474531 127 542 c 0
 127 512.061817312 121.983946326 489.009463769 121.983946326 402.459973472 c 0
 121.983946326 345.362520599 124.114819106 287.86212391 124.114819106 230.199148614 c 0
 124.114819106 222.767382718 124.079416814 215.330985367 123.999411476 207.890488994 c 2
 123.999411476 207.523834527 l 2
 123.390537073 201.058018742 122.793015729 180.839897324 120.467228939 164.064940077 c 0
 119.178843736 154.772339922 117.966331869 146.259285195 113.374678244 139.53068415 c 0
 106.211084756 128.069835143 94.7961349388 122.666667284 83.7777777778 122.666666667 c 0
 66.2778321172 122.666666667 48.1131433741 135.999008226 48.1131433741 156.515601852 c 0
 48.1131433741 156.658128435 48.2025460018 164.767719117 51.0498966685 170.46242045 c 1
 52.8252986349 177.838425602 53 198.02203842 53 202 c 2
 53 202.304806443 l 2
 53.4566344827 217.525955867 53.6381464038 232.769546379 53.6381464038 248.036195497 c 0
78.6512893793 51.8109085649 m 0
 85.1309111928 51.8109085649 118.018844821 49.32711488 118.018844821 -1.10278817452 c 0
 118.018844821 -13.9646958982 115.809847915 -26.6983633864 110.988944586 -36.384559292 c 0
 101.97701999 -55.1324427738 81.5094814486 -63.9839601493 62.4853643856 -63.9839601493 c 0
 37.415004302 -63.9839601493 15.9030136254 -48.793088798 15.9030136254 -25.8480153485 c 0
 15.9030136254 -12.1664679809 24.2308194681 0.676573285618 37.9804624844 6.71923461409 c 1
 41.1595609896 15.010593349 42.8238601292 15.4409766857 44.1614186654 22.7975486347 c 0
 47.4936511815 41.1248274735 62.9554935417 51.8109085649 78.6512893793 51.8109085649 c 0
EndSplineSet
EndChar

StartChar: quotedbl
Encoding: 34 34 6
AltUni2: 00201f.ffffffff.0 00201e.ffffffff.0 00201f.ffffffff.0 00201e.ffffffff.0
Width: 327
GlyphClass: 1
Flags: HW
LayerCount: 2
Fore
SplineSet
197.324679489 499.662865153 m 0
 197.324679489 501.691986164 197.346938776 503.700750582 197.346938776 505.705539359 c 0
 197.346938776 510.257417966 197.346938776 511.866522759 198 535.122660438 c 2
 198 535.730272687 l 1
 198.010104104 535.956384925 l 2
 198.010104104 536.003810057 198.016461855 536.051235189 198.016461855 536.09866032 c 0
 199.611162845 611.095563634 201.957088368 661.924776548 218.03074171 707.896124742 c 0
 220.163919604 713.99710637 222.831016179 722.059224569 229.21518508 729.507421621 c 0
 240.378374231 742.531142297 255.768252116 748.991022421 270.893683919 748.991022421 c 0
 298.382912426 748.991022421 326.488955756 727.480348982 326.488955756 694.533283509 c 0
 326.488955756 681.827977494 322.544489425 673.240054656 318.513830031 665.19393335 c 0
 309.193967043 624.939336438 307.901141305 582.08517723 307.901172374 537.028413815 c 0
 307.901172392 537.003236915 308 497 308 497 c 2
 308 462.866955354 281.143494748 439.113349626 252.049515998 439.113349626 c 0
 230.740001579 439.113349626 210.211377482 452.190231532 201.21209667 474.677277277 c 0
 197.3802089 483.913506022 197.324629882 492.466960166 197.324629882 499.075956987 c 0
 197.324629882 499.273338612 197.324679456 499.46898587 197.324679489 499.662865153 c 0
120.204081633 677.271137026 m 0
 120.204081633 666.804500456 118 639.957561315 118 590 c 2
 118 519.40838526 l 1
 119.317745483 514.131601336 119.811388301 508.971188774 119.811388301 504.115124735 c 0
 119.811388301 473.055742217 100.333988018 441.970696659 64.3809162963 441.970696659 c 0
 40.8338925464 441.970696659 14.3511371528 457.712195254 9.41851030903 487.981213469 c 0
 7.34503226519 500.052582617 7.2571452227 516.727931914 7.25714513884 537.448339665 c 0
 7.25714513884 574.756641468 8.76546935962 622.443843671 9.64107138744 645.643567367 c 0
 5.93930101869 652.494544718 3.00000086713 661.025273674 3 671 c 0
 3 702.660800402 25.2318357732 737.605561583 63.1363001928 737.605561583 c 0
 90.6350535383 737.605561583 117.715663617 716.865163147 119.910776736 688.328692597 c 0
 120.174433073 684.901160221 120.204081633 681.398184684 120.204081633 677.271137026 c 0
EndSplineSet
EndChar

StartChar: numbersign
Encoding: 35 35 7
Width: 548
GlyphClass: 1
Flags: W
LayerCount: 2
Fore
SplineSet
244.84323018 134.217893568 m 1
 245.235105747 131.015781486 247.161895004 126.868440406 247.161895004 121.027198478 c 0
 247.161895004 118.691876164 247.161895004 118.691876164 244.286551589 108.38774172 c 0
 241.608619645 98.7910547174 238.478752112 83.7820250152 224.922158355 76.2939245257 c 0
 219.989817262 73.421956774 208.907159749 71.5469968842 207.368762953 71.5392455334 c 0
 189.347530552 71.4484439315 171.967097775 85.6435057408 171.967097775 105.752945255 c 0
 171.967097775 106.344628639 171.982682235 106.938143967 172.013994848 107.533083614 c 0
 172.0194951 107.664106368 172.028774366 107.791350108 172.041405477 107.915242004 c 0
 175.070221772 141.232221255 176.249505911 174.99575575 176.249505911 208.740736573 c 0
 176.249505911 227.267123262 175.89424012 245.788904664 175.295951448 264.228765675 c 1
 136.365165895 256.076326093 96.5960538571 255.999972177 59.1423230986 255.999972177 c 0
 58.4273643745 255.999972177 57.7132493627 256 57 256 c 0
 33.806774948 256 21.2272866214 274.585526667 21.2272866214 291.748976088 c 0
 21.2272866214 308.000353816 32.6753079767 325.148258602 54.3432460758 325.983334557 c 0
 56.8177612098 326.209936878 135.079430529 327.874300425 135.892352284 327.941883586 c 0
 147.731929763 329.52859318 159.581012893 331.757934318 171.442793356 334.633026287 c 1
 166.706705247 402.516955851 l 1
 135.622757488 401.093148893 74.9680424577 400.999069805 67.7124701424 400.999069805 c 0
 67.243133154 400.999069805 67 401 67 401 c 2
 45.0292728397 401 31.9246354104 419.025253115 31.9246354104 436.348916029 c 0
 31.9246354104 439.602414099 32.936714721 471.5 72.625 471.5 c 0
 78.3294329106 471.5 83.8312705822 471 89 471 c 2
 89.3752723975 471 l 2
 92.6859216382 470.754766723 100.785939565 470.171572875 112.931457505 470.171572875 c 0
 128.524007646 470.171572875 144.430420858 471.116945384 160.237164242 472.241702735 c 1
 159.480887896 480.856017319 158.296178688 493.290653777 157.005118972 506.788470748 c 0
 153.833848913 539.943577582 150 579.122516954 150 591 c 0
 150 591.765329509 149.99355934 592.585535824 149.99355934 593.452803253 c 0
 149.99355934 627.724647215 175.481079626 633.504971693 185.238727066 633.504971693 c 0
 203.140279098 633.504971693 223.139430423 620.267645031 223.139430423 598.338120256 c 0
 223.139430423 588.101477 219.903618401 587.852071088 219.903618401 578.986927147 c 0
 219.903618401 571.400909782 220.616317511 565.699316905 222.922394002 547.250704981 c 0
 223.014664697 546.551383684 229.175040933 492.156735969 230.417256241 477.111781322 c 1
 250.918111643 477.74881572 309.318253184 480.943828621 334.056229952 482.407448141 c 0
 334.06433938 483.373385724 335 571.750782394 335 579 c 0
 335 582.23633693 334.75 585.748591905 334.75 589.5 c 0
 334.75 590.730106669 334.821513958 598.751655785 336.651440116 603.555211952 c 0
 342.314842729 618.421643809 356.282069038 625.75 369.5 625.75 c 0
 382.717930962 625.75 396.703437141 618.373280954 402.366839753 603.506849097 c 0
 404.940358166 596.644133328 405.170999915 586.894671438 405.170999915 577.094439739 c 0
 405.170999915 574.95420187 405.16 572.811542656 405.16 570.696 c 0
 405.16 565.902755335 405 553.176967233 405 553 c 0
 405 547.948775259 404.118453738 488.003719203 404.110073907 487.34718421 c 1
 410.11865772 488.182492491 417.820760916 489.304582703 425.925187963 490.494931084 c 0
 449.342868594 493.934433722 475.663368977 498 485 498 c 0
 507.295931724 498 520.898118669 479.437851356 520.898118669 461.43769647 c 0
 520.898118669 454.674634986 518.984519386 442.459404939 506.87233524 432.897154298 c 0
 485.160763046 418.422772835 477.315319303 413.228141294 469.269875514 412.078792181 c 2
 469.114642283 412.061544044 l 2
 467.816044685 411.917255422 466.515681807 411.847937482 465.217781187 411.847937482 c 0
 455.949106796 411.847937482 446.738481406 415.232661672 439.619560299 421.298527084 c 1
 431.371696299 420.004083489 431.371696299 420.004083489 402.646196209 417.002856152 c 1
 401.412762004 395.176717493 401.22181454 398.164463632 399.467672836 368.908474196 c 1
 400.183004355 368.900063896 465.51437986 368 471 368 c 2
 471.421792936 368 l 2
 474.323662126 367.758177568 476.416759542 367.663229065 479.584358807 367.519538282 c 0
 488.928553762 367.095660581 500.487136711 366.969551924 511.134243312 360.581287964 c 0
 522.454708161 353.789009054 528.109740638 342.438046852 528.109740638 331.245395725 c 0
 528.109740638 312.439827969 513.426091539 298.821153739 498.797548635 296.161418665 c 0
 492.421757655 295.002183942 481.946627336 294 471.125 294 c 0
 461.558960695 294 451.618769333 294.243714971 443.50970519 298.018209548 c 0
 438.074453451 298.079645016 395.742911339 298.868654307 395.260410268 298.87677068 c 0
 391.753978029 251.144593099 390 202.626244135 390 155 c 0
 390 150.321595896 390.653061224 145.539896639 390.653061224 140.364431487 c 0
 390.653061224 114.978479505 370.558728255 103.581364285 354.676678455 103.581364285 c 0
 345.333157999 103.581364285 320 107.162306294 320 146 c 0
 320 196.253303591 321.723519342 246.450821706 324.367414418 296.594307151 c 1
 297.302191395 293.012813488 270.44150829 288.011669572 244.295595777 280.596308891 c 1
 245.369493802 252.143651998 246.090169944 223.346555935 246.090169944 194.385071631 c 0
 246.090169944 193.783270653 245.758174376 138.792614546 244.84323018 134.217893568 c 1
331.593503952 412.311922427 m 1
 308.287410995 410.888899927 260.004884616 408.186423258 236.806245329 407.29408465 c 1
 238.267749733 388.848697595 239.659236817 370.33130135 240.574526056 351.739946046 c 1
 269.9506158 358.298395446 299.515200111 364.028926859 329.296171138 367.124086181 c 1
 329.352158149 368.372239686 331.572198719 411.859962345 331.593503952 412.311922427 c 1
EndSplineSet
EndChar

StartChar: dollar
Encoding: 36 36 8
Width: 471
GlyphClass: 1
Flags: HW
LayerCount: 2
Fore
SplineSet
294.69189013 -55.09765625 m 2
 293.776809453 -76.0625 273.192559238 -87.8505859375 253.990497304 -87.8505859375 c 0
 239.125219932 -87.8505859375 223.445036766 -80.7666015625 217.095750051 -66.0859375 c 0
 213.355512547 -58.271484375 213.170920627 -47.779296875 213.170920627 -36.0263671875 c 0
 213.170920627 -23.822265625 214.010588752 -10.8857421875 215.057360006 -1.4365234375 c 1
 190.417715352 1.8408203125 166.13037113 7.1474609375 145.268554688 13.1513671875 c 0
 126.088867188 18.0947265625 105.525390625 24.0908203125 86.537109375 33.3798828125 c 0
 86.033203125 33.626953125 53.560546875 49.5517578125 53.560546875 78.1884765625 c 0
 53.560546875 99.150390625 72.0576171875 111.909179688 89.404296875 111.909179688 c 0
 100.947265625 111.909179688 112.989257812 106.1875 119.655273438 94.0205078125 c 0
 121.830078125 91.2138671875 170.777810387 74.5322265625 220.116754402 68.0087890625 c 1
 220.810099663 92.37890625 221.222054802 116.838867188 221.222054802 141.352539062 c 0
 221.222054802 184.258789062 219.959175933 227.329101562 216.731068452 270.36328125 c 1
 182.911352454 287.9453125 146.520507812 299.051757812 114.436523438 315.223632812 c 0
 75.802734375 334.665039062 49.6279296875 377.420898438 42.166015625 417.059570312 c 0
 42.12890625 417.237304688 40.9921875 424.750976562 40.9921875 435.114257812 c 0
 40.9921875 454.657226562 44.8017578125 473.999023438 50.380859375 491.9765625 c 0
 60.634765625 529.502929688 82.5361328125 569.610351562 86.2314453125 576.18359375 c 0
 97.4091796875 596.068359375 110.977539062 616.950195312 130.979492188 631.150390625 c 0
 146.826171875 643.340820312 158.258789062 647.564453125 198.565647728 660.618164062 c 1
 203.190575775 703.86328125 209.867400593 746.950195312 217.60225227 789.16015625 c 0
 221.053220728 808.9375 240.416237812 820.2578125 259.297515007 820.2578125 c 0
 280.205926642 820.2578125 299.365217278 806.521484375 299.365217278 782.323242188 c 0
 299.365217278 776.204101562 297.975150075 769.842773438 294.335087455 764.0234375 c 0
 294.219154725 763.223632812 284.915271726 702.857421875 282.540339096 684.07421875 c 1
 294.89899326 686.940429688 307.922853672 688.916015625 320.078125 688.916015625 c 0
 332.991210938 688.916015625 357.954101562 687.118164062 386.069335938 659.607421875 c 0
 393.494140625 652.342773438 407.3671875 628.708984375 410.615234375 623.412109375 c 0
 413.96875 617.860351562 415.576171875 611.901367188 415.576171875 606.08984375 c 0
 415.576171875 587.478515625 399.6484375 571.89453125 380.626953125 571.89453125 c 0
 349.52734375 571.89453125 343.53125 606.637695312 330.14453125 617.348632812 c 0
 326.565429688 619.5546875 321.806640625 620.401367188 317 620.401367188 c 0
 315.018554688 620.401367188 296.775302594 617.197265625 275.022720593 610.881835938 c 1
 273.500962812 547.615234375 273.500962812 547.615234375 273.500962812 532.09765625 c 0
 273.500962812 509.434570312 274.166169061 486.881835938 276.222568073 464.624023438 c 0
 276.230446997 464.549804688 276.236074799 464.475585938 276.240577041 464.399414062 c 0
 279.344872869 416.962890625 290.288697499 346.7265625 294.354221983 310.848632812 c 1
 324.350585938 294.387695312 352.224609375 276.797851562 377.543945312 255.986328125 c 0
 400.830078125 236.240234375 424.783203125 205.536132812 430.963867188 130.061523438 c 0
 431.62109375 122.975585938 432.076171875 115.603515625 432.076171875 108.087890625 c 0
 432.076171875 104.100585938 431.75 76.517578125 422.950195312 59.296875 c 0
 393.999023438 2.642578125 337.118164062 -3.810546875 296.044813837 -5.5693359375 c 1
 294.778558287 -15.060546875 293.745293759 -24.2978515625 293.745293759 -33.2646484375 c 0
 293.745293759 -38.828125 294.102096434 -42.990234375 294.699769053 -47.2998046875 c 2
 294.699769053 -38.388671875 294.699769053 -45.8388671875 294.699769053 -54.9140625 c 1
 294.699769053 -45.8388671875 294.69189013 -46.0185546875 294.69189013 -55.09765625 c 2
187.951612321 358.34765625 m 0
 194.640818305 355.955078125 201.438078095 353.528320312 208.220705599 350.919921875 c 1
 199.505490736 415.14453125 192.584419292 466.154296875 192.584419292 554.184570312 c 0
 192.584419292 566.017578125 192.712733188 577.82421875 192.932217483 589.572265625 c 1
 187.78728049 587.567382812 182.783038558 585.5 178.182872841 583.286132812 c 0
 161.381631429 574.850585938 133.357421875 521.083007812 122.409179688 489.604492188 c 0
 116.443359375 473.698242188 111 457.814453125 111 442 c 2
 111 441.662109375 l 2
 110.924804688 440.536132812 110.873046875 439.560546875 110.873046875 438.1484375 c 0
 110.873046875 415.704101562 126.485351562 391.412109375 135.359375 383.717773438 c 0
 148.685546875 373.219726562 166.761810564 365.928710938 187.951612321 358.34765625 c 0
344.557617188 186.641601562 m 0
 339.283203125 194.9296875 301.187499709 221.811523438 300.671993005 222.13671875 c 1
 301.938248555 161.326171875 301.938248555 161.326171875 301.938248555 148.696289062 c 0
 301.938248555 134.796875 300.514414537 58.3837890625 300.507661174 57.4716796875 c 1
 331.595703125 58.9951171875 340.318359375 63.2294921875 349.462890625 69.326171875 c 0
 352.594726562 71.4140625 356.977539062 77.5537109375 359.543945312 84.271484375 c 0
 360.943359375 88.798828125 361.844726562 96.4052734375 361.844726562 105.2890625 c 0
 361.844726562 133.264648438 353.09375 173.227539062 344.557617188 186.641601562 c 0
EndSplineSet
EndChar

StartChar: percent
Encoding: 37 37 9
Width: 621
GlyphClass: 1
Flags: HW
LayerCount: 2
Fore
SplineSet
122 34.748046875 m 1
 122 43.390625 121.705078125 43.111328125 121.705078125 34.4619140625 c 1
 122 31.4287109375 122 31.4287109375 122 30.994140625 c 0
 122 10.22265625 105.033203125 -4.3701171875 86.48046875 -4.3701171875 c 0
 68.83203125 -4.3701171875 50.87109375 8.857421875 50.87109375 33.958984375 c 0
 50.87109375 48.876953125 56.8427734375 63.8505859375 64.7822265625 75.427734375 c 0
 138.271484375 178.256835938 166.35548325 231.921875 211.395736705 314.84375 c 0
 211.73497384 315.467773438 240.419822165 368.254882812 245.868492455 377.051757812 c 0
 288.7459787 446.2890625 334.839432983 513.579101562 384.146767693 578.920898438 c 0
 411.041487752 617.34765625 443.535186247 654.336914062 443.876510995 655.220703125 c 0
 443.070692324 658.018554688 442.665695375 660.834960938 442.665695375 663.627929688 c 0
 442.665695375 685.390625 465.457211811 699 487 699 c 0
 508.004882812 699 522.234375 681.53125 522.234375 663.547851562 c 0
 522.234375 649.266601562 505.59375 620.107421875 505.326171875 619.717773438 c 0
 504.536132812 618.564453125 490.989257812 601.4296875 489.004882812 598.85546875 c 0
 423.412683209 517.674804688 364.841565198 430.502929688 310.475943855 341.287109375 c 0
 276.672268115 286.510742188 249.60010094 226.625 214.176437405 170.962890625 c 0
 192.973594567 138.1015625 160.889068247 89.5234375 123.681640625 38.3291015625 c 0
 122.967773438 37.6337890625 122.944335938 37.6015625 122 36.3115234375 c 2
 122 44.9111328125 122 43.390625 122 34.748046875 c 1
214.605441905 647.533203125 m 0
 214.605441905 642.290039062 213.336173117 637.079101562 210.917673296 632.294921875 c 1
 238.572284537 626.188476562 267.332286935 609.432617188 267.332286935 566.149414062 c 0
 267.332286935 501.453125 217.321426598 423.541992188 177.242385765 401.384765625 c 0
 163.082105849 393.555664062 148.559570312 389.918945312 134.479492188 389.918945312 c 0
 94.537109375 389.918945312 39.1396484375 422.25390625 39.1396484375 498.95703125 c 0
 39.1396484375 572.532226562 79.615234375 627.336914062 117.274414062 662.3984375 c 0
 123.5 667.932617188 143.59765625 683.822265625 169.784387829 683.822265625 c 0
 194.753284768 683.822265625 214.605441905 668.174804688 214.605441905 647.533203125 c 0
167.541247512 634 m 1
 167.541247512 614 l 1
 166.472389585 614 l 1
 166.472389585 634 l 1
 167.541247512 634 l 1
121.319335938 465.34375 m 0
 125.344726562 461.568359375 129.349609375 459.846679688 132.540039062 459.846679688 c 0
 132.892578125 459.846679688 133.14453125 459.846679688 134.036132812 459.958007812 c 2
 134.326171875 459.977539062 l 2
 141.481445312 460.455078125 158.1484375 477.94140625 167.743745986 494.73046875 c 0
 173.345855843 504.260742188 191.55193002 535.23046875 192.562334779 564.294921875 c 0
 189.510244371 565.077148438 185.305791511 565.75 181.703615041 565.75 c 0
 177.385387265 565.75 174.749775678 564.620117188 174.571284755 564.477539062 c 0
 166.63209199 555.907226562 156.025390625 551.395507812 145.875 551.395507812 c 0
 137.9296875 551.395507812 130.188476562 554.1328125 123.80859375 559.1796875 c 1
 115.3203125 541.495117188 109.768554688 521.956054688 109 502.80078125 c 0
 109 490.46875 109 476.8984375 121.319335938 465.34375 c 0
560.680664062 272.40234375 m 0
 580.153320312 249.625 589.592773438 218.333007812 589.592773438 188.067382812 c 0
 589.592773438 108.844726562 520.973632812 38.306640625 439.960148748 38.306640625 c 0
 393.954374216 38.306640625 349.283628286 60.5986328125 325.616358139 108.870117188 c 0
 318.32954448 123.868164062 315.134452572 140.399414062 315.134452572 156.999023438 c 0
 315.134452572 172.177734375 317.027917689 198.875 333.519017673 225.911132812 c 0
 356.352286372 263.344726562 400.231826923 291.818359375 401.047039853 292.326171875 c 0
 406.00094583 295.416015625 410.326480252 302.575195312 418.83350379 306.728515625 c 0
 433.849705093 315.32421875 452.617347205 320.173828125 470.96875 320.173828125 c 0
 490.954101562 320.173828125 499.950195312 315.06640625 513.704101562 307.2578125 c 0
 530.12109375 297.9375 547.822265625 288.174804688 560.680664062 272.40234375 c 0
390.77702702 145.772460938 m 0
 390.789552699 145.720703125 400.178592788 108.16796875 438.499863358 108.16796875 c 0
 470.5390625 108.16796875 519.7109375 140.2109375 519.7109375 188.903320312 c 0
 519.7109375 212.83203125 507.790039062 234.044921875 484.700195312 242.556640625 c 0
 478.69921875 244.548828125 466.861131646 246.30078125 465.741127198 246.522460938 c 0
 460.596204619 246.522460938 460.132754502 245.80078125 458.891668491 243.866210938 c 0
 452.137196183 233.33203125 442.374473342 229.6796875 437.888192708 228 c 1
 436.435213964 228 l 2
 435.067827359 227.766601562 435.067827359 227.766601562 433.136785206 227.337890625 c 0
 421.568277001 219.122070312 400.933264937 195.240234375 395.298797077 183.818359375 c 0
 391.664262604 176.450195312 389.931543699 167.31640625 389.931543699 157.7890625 c 0
 389.931543699 153.80859375 390.226940958 149.76171875 390.77702702 145.772460938 c 0
EndSplineSet
EndChar

StartChar: ampersand
Encoding: 38 38 10
Width: 561
GlyphClass: 1
Flags: W
LayerCount: 2
Fore
SplineSet
560 72.7393351628 m 2
 559.767526432 63.672865998 555.79493048 35.0834827834 514.931498253 35.0834827834 c 0
 494.987997335 35.0834827834 472.840253842 41.886660682 455.304464635 51.1703137913 c 0
 439.019447045 59.855656506 429.465402797 70.2808520562 413.191357943 79.2315767263 c 0
 394.939122782 89.2703060648 378.6885449 102.168411893 363.00942767 115.15488888 c 1
 353.230545136 104.847299337 342.868731625 96.363729755 332.164826062 88.1275579695 c 0
 306.790692555 67.8347776577 277.665386808 47.8566668789 243.429760876 39.2977578066 c 2
 243.362916711 39.2810467651 l 2
 229.750544809 36.0781357294 215.738299208 33.3634005456 201.180403273 33.3634005456 c 0
 197.144188419 33.3634005456 193.074076178 33.5753764059 188.979284114 34.0504132446 c 0
 173.521682039 35.4238221664 128.665576121 50.0752067238 115.904499606 55.8756956838 c 0
 99.8681475692 63.0920541004 74.2379173759 78.1615381352 60.9487180722 104.739936743 c 0
 60.1353876568 106.569930177 58.9505853868 109.184838706 56.9910023426 113.509721046 c 0
 49.0060946771 131.132748686 33.59142093 164.733180748 30.466129898 174.973064849 c 0
 24.9278424343 191.668655759 24.0000000726 209.635134179 24 226 c 0
 24 265.742458334 38.5527588189 279.660952667 56.3139298028 296.648024381 c 0
 56.9655988503 297.271291217 77.9871761623 317.954242424 118.385528887 362.057943736 c 0
 118.303281592 362.281305491 111.95591835 381.681640807 111.250957287 384.765845456 c 0
 105.271075432 410.927828573 101.430780618 437.819856116 101.430780618 465.080725104 c 0
 101.430780618 514.594879268 123.068755465 604.15839542 132.175873332 620.707907834 c 0
 150.028536214 655.10057119 210.856705867 689.8857729 249.709654262 690.99585714 c 1
 250 690.99585714 l 2
 269.842912799 690.99585714 290.621770885 685.528142962 308.358271028 674.442830373 c 0
 320.653058001 666.618875026 332.09770209 655.32047133 339.059989881 640.23551445 c 0
 350.324229551 616.205136486 357.346938776 588.964388814 357.346938776 561.524781341 c 0
 357.346938776 520.890130507 342.647453632 491.991931229 318.989548858 461.984273124 c 0
 290.341248028 422.256194096 258.709514859 381.737583147 218.060740184 352.772947479 c 1
 262.219991909 311.860167182 305.586508755 270.018553236 346.192449777 225.922350917 c 1
 355.772136522 247.677371148 371.872146815 286.260359339 374.127886014 295.689524206 c 0
 375.484217072 308.398947845 376.864043242 350.206649002 379.646379191 357.541898322 c 0
 385.500418246 372.975274011 398.918028514 380.592339468 412.019187551 380.592339468 c 0
 429.731906865 380.592339468 448.267571097 367.017921779 448.267571097 344.954466768 c 0
 448.267571097 344.429133628 444.32229737 295.240129705 443.905238091 292.602588789 c 0
 441.763070559 274.618875194 436.495247656 257.780489011 429.232016286 242.134011161 c 0
 420.625285844 219.232284437 410.313529862 196.51443273 399.961774381 174.751024778 c 1
 445.211175957 137.566059748 439.358890498 147.221986683 469.886146207 125.496168952 c 0
 479.22980596 118.8464168 487.881817195 112.842690701 496.845064081 109.292654223 c 1
 503.735734348 116.358298221 512.887791058 119.878751001 521.935156118 119.878751001 c 0
 525.522047719 119.878751001 539.345217418 119.073873271 548.812417534 107.239873126 c 0
 554.675498904 99.9110214136 560 82.159089992 560 73 c 2
 560 72.7393351628 l 2
171 465 m 0
 171 447.031015912 174.028785577 428.582187096 177.785146148 409.703596876 c 1
 188.408010079 417.316651082 195.08642021 422.102846092 210.689057803 438.819957798 c 0
 238.461387891 468.57602575 263.804716728 498.897762879 282.150039784 533.657322353 c 0
 285.83824617 540.623934415 287.38227686 548.855198929 287.38227686 557.891486002 c 0
 287.38227686 565.643012811 286.268515441 574.175302816 284.158113393 584.199712545 c 0
 281.090390947 604.139908443 276.086827938 620.284271247 254.830212793 620.284271247 c 0
 237.656959333 620.284271247 214.837297354 607.739352906 199.556710499 594.451886076 c 0
 191.449622862 587.502953816 187.890693571 573.518075099 184.706658672 557.312754207 c 0
 174.428891089 505.003490337 171 486.962005815 171 465 c 0
202.430780618 103.215390309 m 0
 220.429242468 103.215390309 247.662587232 113.300052484 261.485924274 123.353388515 c 0
 269.642330495 128.247232248 299.413137651 152.178854132 310.001446952 161.972705432 c 1
 298.272717803 174.22793612 286.798209561 188.062427939 274.93031875 199.93031875 c 0
 250.863733781 224.630234902 246.675529506 228.928655079 163.363315762 307.873707965 c 1
 158.079635996 302.279518604 152.817604518 296.630814797 147.539876103 290.965018116 c 0
 126.262614727 268.123252227 126.262614727 268.123252227 94.8233346953 236.683972195 c 1
 94.3805596739 234.440692708 93.76 229.675276141 93.76 224.448 c 0
 93.76 213.488270576 94.9049311101 205.533492135 96.7622324539 197.175636088 c 0
 97.8816851598 192.138098911 106.945845748 171.842926183 120.950888811 140.48483568 c 0
 125.016222007 133.343192433 131.68717567 126.724896728 138.845834285 122.747864354 c 0
 139.427300875 122.42482736 181.597745933 103.215390309 202.430780618 103.215390309 c 0
EndSplineSet
EndChar

StartChar: quotesingle
Encoding: 39 39 11
AltUni2: 00203a.ffffffff.0 002039.ffffffff.0 00201b.ffffffff.0 00201a.ffffffff.0 00203a.ffffffff.0 002039.ffffffff.0 00201b.ffffffff.0 00201a.ffffffff.0
Width: 134
GlyphClass: 1
Flags: HW
LayerCount: 2
Fore
SplineSet
152.514999297 687.011156381 m 0
 152.514999297 645.403656772 139.569151716 627.589243118 138.059772248 546.740913763 c 0
 139.966770268 534.461139106 140.000346744 520.397898084 140.000346744 515.48146552 c 0
 140.000346744 515.302019458 140.000302013 515.134758726 140.000302013 514.980214798 c 2
 140.000302013 514.980214798 140.000100702 514.319040103 140.000100702 514.318895964 c 0
 140.000100702 514 140.000100702 514 140.000100702 514 c 2
 140.000100702 490.189292139 129.976338873 473.089933725 122.166732383 459.767663831 c 0
 108.197468956 435.937743868 83.7399811687 422.106588595 58.1127874332 422.106588595 c 0
 19.9988751158 422.106588595 -18.180339128 452.400694329 -18.180339128 497.616693228 c 0
 -18.180339128 510.753586079 -14.7684409006 521.594031158 -10.6299616055 529.95359203 c 1
 -11.3019246226 538.205360069 -11.4142134768 542.439298201 -11.4142135624 550.937554159 c 0
 -11.4142135624 569.279627913 -10.1109715519 615.396585356 0.807462598766 672.927662416 c 0
 -0.468620226688 677.877107912 -1.47261418545 684.060805691 -1.47261486618 691.366294938 c 0
 -1.47261486618 741.189730414 41.5379837841 766.010775737 74.9672834881 766.010775737 c 0
 114.011188243 766.010775737 152.514999297 735.181361025 152.514999297 687.011156381 c 0
EndSplineSet
EndChar

StartChar: parenleft
Encoding: 40 40 12
Width: 308
GlyphClass: 1
Flags: W
LayerCount: 2
Fore
SplineSet
227.029639904 -2.04737509656 m 0
 217.679191921 -2.04737509656 207.613986767 -1.38684536787 199.791868833 3.46314174357 c 0
 196.993271737 4.72770156173 181.449857388 8.97413973957 179.759075395 9.53773373728 c 0
 142.570045042 22.2882584299 109.9125404 48.585845737 89.6468644509 80.5002702146 c 0
 89.3040045653 81.0001745281 72.3794981634 106.391435401 62.5495323144 134.724866378 c 0
 48.6088376201 174.906868732 31.924101193 233.376470375 31.924101193 296.727107305 c 0
 31.924101193 404.657801888 96.5777494352 584.279064572 176.065877377 658.20487846 c 0
 188.571754708 670.644075136 235.975276978 705 262 705 c 0
 284.611053848 705 296.950189734 686.799414181 296.950189734 669.831575836 c 0
 296.950189734 654.622534071 287.105085602 638.378250743 267.65336062 635.136296579 c 1
 260.455816653 632.714758362 248.33267486 625.409295187 239.452373218 619.617794116 c 0
 218.52401716 605.968866252 202.227485612 584.308273371 186.380858013 560.544673641 c 0
 145.618847128 496.706156448 107.772658417 388.635175122 102.961420172 318.116395293 c 0
 102.295058551 310.51987281 101.978692512 302.891939523 101.978692512 295.246991848 c 0
 101.978692512 239.692791543 116.643435855 195.698561515 130.489418962 154.160612193 c 0
 133.6493363 144.68086018 139.547668378 126.985863947 156.527686895 107.5801285 c 0
 162.52842317 100.722144185 176.555594141 84.6910916465 204.160612193 75.4894189624 c 0
 215.027541537 71.8671091813 248.05018902 69.7503022105 257.793850795 60.3407544707 c 0
 266.09306872 53.0241664337 270.215909939 43.1313149543 270.215909939 33.3706645056 c 0
 270.215909939 15.4405986899 257.090877794 3.82066957127 247.160612193 0.51058103758 c 0
 241.412752588 -1.40537216434 234.441227771 -2.04737509656 227.029639904 -2.04737509656 c 0
EndSplineSet
EndChar

StartChar: parenright
Encoding: 41 41 13
Width: 335
GlyphClass: 1
Flags: W
LayerCount: 2
Fore
SplineSet
66.6467090681 708.621168258 m 0
 66.6467090681 734.182353748 83.0813403561 755.563832086 105.839896155 755.563832086 c 0
 124.545981881 755.563832086 140.475668761 740.202334305 140.475668761 720.187953462 c 0
 140.475668761 720.134454557 140.475327575 720.080938707 140.475327575 720.027404863 c 0
 161.297254507 706.083733842 209.828949911 673.583860175 237.755743407 639.310068158 c 0
 251.057012854 622.985782928 301.995724721 557.76833769 301.995724721 421.787149001 c 0
 301.995724721 334.003089349 280.729530381 257.180536005 267.447979218 218.711991334 c 0
 257.517002501 189.948015143 246.831200863 163.046689775 226.794806574 139.729501524 c 0
 217.946332704 128.018421501 207.177225765 119.206604426 196.974485274 110.753061241 c 0
 185.604840978 101.332671801 181.503139635 97.6964089454 167.596976589 84.2054722096 c 0
 131.686946732 49.3676855839 118.081466744 41.7052076866 86.6018997183 36.6278581663 c 0
 80.5476346795 35.6513638052 68.4503083961 33.7001821466 66.6518562568 31.5645202312 c 0
 59.514808023 23.0892754536 49.8653462524 18.9255606395 40.3537014257 18.9255606395 c 0
 21.3873714852 18.9255606395 4 34.8373782205 4 57 c 0
 4 82.2986274772 31.8974515551 99.3279842405 64.2330824451 103.85191237 c 0
 73.2848999154 105.812900176 81.7005424197 105.922662229 88.9465401225 109.143105652 c 0
 101.86445957 117.213180221 133.556978689 148.779996087 134.455856081 149.55902316 c 0
 138.678887877 153.218984049 142.953260224 156.644390097 147.116384524 159.983710448 c 0
 172.025859879 179.964069433 183.675857403 190.655295601 199.537733737 238.240924605 c 0
 220.162391142 298.396175368 231.758001545 362.276451834 231.758001545 425.10089776 c 0
 231.758001545 460.657644177 227.963276062 524.400070574 197.374290636 574.940527241 c 0
 189.882127815 587.677204037 164.43458567 624.346167848 102.556150682 661.449147162 c 0
 81.2349070585 674.233595593 66.6467090681 683.55061347 66.6467090681 708.621168258 c 0
EndSplineSet
EndChar

StartChar: plus
Encoding: 43 43 14
Width: 444
GlyphClass: 1
Flags: W
LayerCount: 2
Fore
SplineSet
267.064108799 466.414270401 m 0
 267.064108799 453.342500796 264.995167193 430.326174284 255.859734091 355.504584346 c 1
 270.393771497 349.759760637 271.227525543 349.430205271 287.415242004 347.958594523 c 0
 327.963774268 344.272364318 343.922526829 332.759243163 372.654182269 329.235313078 c 0
 405.462478154 325.211382358 410.060238251 323.223121089 414.256808829 320.510352991 c 0
 425.779696875 313.714817331 431.318386604 302.011762314 431.318387832 290.681926661 c 0
 431.318387832 276.525384959 422.858622721 262.054339968 407.402804971 256.594343355 c 0
 399.366001696 253.611061429 384.958443747 251.757360481 372.757359313 251.757359313 c 0
 361.853464842 251.757359313 352.628228009 253.249237102 344.09816211 263.352923975 c 0
 343.682899386 263.476146448 305.409118548 274.361677154 302.464276449 275.306527889 c 0
 285.451799005 278.651432387 266.220799627 279.901626624 247.922614765 284.318661578 c 1
 237.154524356 181.242509809 237.154524356 181.242509809 232.131040975 163.301497735 c 0
 229.489207873 153.866379512 229.489207873 153.866379512 227.823350838 145.120630077 c 0
 224.417616716 127.240525936 209.121585805 116.903013625 193.70386408 116.903013625 c 0
 193.180945861 116.903013625 158.361840145 116.929814444 158.361840145 155.443589367 c 0
 158.361840145 158.906624497 158.361840145 166.081431508 162.513480894 174.945357268 c 0
 163.611691366 177.290082324 163.611691366 177.290082324 164.453091617 179.982563126 c 0
 167.704225703 190.386192201 173.735739123 242.515323212 176.56416447 271.1463174 c 1
 144.657556122 256.130595922 144.657556122 256.130595922 91.6604080415 253.021286734 c 0
 80.6245598645 252.221820825 69.5945529319 248.532295613 56.8155633088 248.532295613 c 0
 27.1491609958 248.532295613 12.9259711467 270.902113817 12.9259711467 288.333223498 c 0
 12.9259711467 308.788441364 29.8813531308 326.82337495 50.5702502155 326.82337495 c 0
 57.282397239 326.82337495 64.1223648867 324.805149418 70.3891782193 320.6811598 c 1
 81.6981600153 322.73135388 121.056675058 324.847847436 121.567174427 324.903452279 c 0
 129.416943215 326.415987212 168.635745261 343.554064322 184.748789009 350.790125197 c 0
 184.862860269 351.731994542 195.204081633 438.683023736 195.204081633 445.087463557 c 0
 195.204081633 446.798800006 193 451.186009931 193 457 c 0
 193 464.426282506 197.411164797 481.382047667 201.349805073 488.018771682 c 0
 208.009983275 499.71464645 219.325421847 505.534027061 230.519006666 505.534028148 c 0
 245.45867338 505.534028148 267.064107009 494.272707893 267.064108799 466.414270401 c 0
EndSplineSet
EndChar

StartChar: comma
Encoding: 44 44 15
Width: 133
GlyphClass: 1
Flags: W
LayerCount: 2
Fore
SplineSet
9.13347016169 -168.117281074 m 0
 -21.2832829383 -168.117281074 -33.1490961019 -146.550401575 -33.1490973122 -130.90808614 c 0
 -33.1490973122 -113.909647479 -21.0748682394 -103.856120563 -15.46242045 -101.049896668 c 0
 -7.47824794835 -97.0578104177 -1.37466646415 -98.760438188 19.9361376535 -93.6681990915 c 1
 27.5040778722 -81.0120713048 37.8953030536 -42.4045800962 40.0786208926 -28.7118966978 c 0
 37.4406309572 -27.0557589891 9.37354062201 -6.15058415127 9.37353779394 19.7503910409 c 0
 9.37353779394 41.1000835549 25.2816057088 51.5000740803 27.6836591164 57.6386550109 c 0
 35.52183527 77.6695496256 53.7718260223 90.9118836617 73.88695936 90.9118836617 c 0
 104.77273491 90.9118836617 115.125390861 65.0921779588 119.18999457 54.9549849471 c 0
 122.859192162 46.973228383 124.355728016 38.2822658163 124.355728016 29.6730082568 c 0
 124.355728016 19.0664296954 122.103466609 8.53794468824 118.150454756 -0.786160451255 c 1
 118.85639218 -11.021629315 119.409149855 -21.4876316758 119.409149864 -32.0118326626 c 0
 119.409149864 -51.7357339801 119.409149864 -106.144912185 71.3506593684 -145.722492593 c 0
 56.747695465 -157.748462867 31.5157978409 -168.117281074 9.13347016169 -168.117281074 c 0
EndSplineSet
EndChar

StartChar: hyphen
Encoding: 45 45 16
Width: 551
GlyphClass: 1
Flags: W
LayerCount: 2
Fore
SplineSet
352.998122673 327.662164627 m 0
 361.88899827 327.662164627 384.294013784 328.110252929 384.610165973 328.110252929 c 0
 411.007700284 328.110252929 424.378498242 326.143439687 480.397959123 317.903107448 c 0
 505.932072033 314.505137087 517.08917777 313.020397252 528.239579881 300.89870895 c 0
 537.701329421 291.317514357 540.708696825 278.197797566 540.70869927 266.651961977 c 0
 540.70869927 230.4781301 509.767222726 228.429869541 505.184586407 228.429869541 c 0
 492.843552863 228.429869541 479.87573502 235.001455269 473.846579607 248.411527689 c 1
 447.826405065 251.51095159 422.810058509 257.074305066 397.682545197 258.004953707 c 0
 392.85265748 258.155887699 387.972732987 258.213938769 383.046706623 258.213938769 c 0
 367.364681338 258.213938769 351.340866868 257.626061231 335.105293377 257.626061231 c 0
 305.032900636 257.626061231 298.113758481 258.542848978 233.599948211 267.597419219 c 0
 190.643213089 273.626434674 177.580834791 275.459750927 163.29574561 276.441638249 c 0
 86.2573251406 281.736883344 42.7350775058 288.770350288 25.6274899791 303.294198186 c 0
 15.7812518343 311.246670826 10.847436732 323.68230735 10.847436732 335.76410833 c 0
 10.847436732 356.454897184 25.6476628036 373.338693158 46.134278621 373.338693158 c 0
 56.9429729496 373.338693158 68.0237831848 368.352961113 75.1316850659 358.339140444 c 1
 137.548914102 344.981793287 203.120884513 344.784583993 267.65336062 333.863703421 c 0
 295.165019618 329.278426921 324.111711074 327.662164627 352.998122673 327.662164627 c 0
EndSplineSet
EndChar

StartChar: period
Encoding: 46 46 17
Width: 162
GlyphClass: 1
Flags: W
LayerCount: 2
Fore
SplineSet
68.2679357662 -28.5015762832 m 0
 50.090508098 -28.5015762832 10.8466121818 -16.4426460197 10.8466121818 32.293319837 c 0
 10.8466121818 40.9775423277 12.1258901419 49.4785669735 14.2430195989 57.2412209792 c 0
 16.4281934166 68.9866487326 20.9343474549 82.4700365085 32.6112898787 91.6962703851 c 0
 45.3365005428 102.849930984 61.1887200226 108.311347347 76.7472394723 108.311347918 c 0
 97.1058159281 108.311347918 117.462930195 98.7274388472 128.727360732 79.6071110875 c 1
 143.413946329 74.8305646333 152.95332366 61.3116840695 152.953323709 46.6290153073 c 0
 152.953323709 42.5452467313 152.218079249 38.4188445996 150.70617644 34.4331860599 c 0
 151.352741692 34.1601117601 152.047279481 33.8667764475 152.047279481 27.3000102622 c 0
 152.047279481 6.52912919739 135.870458009 -11.3841668595 114.592488558 -11.3841668595 c 0
 112.764377539 -11.3841668595 110.921132263 -11.2497923089 109.072803289 -10.9776691789 c 0
 101.587058477 -14.061135312 91.8392180711 -28.5015762832 68.2679357662 -28.5015762832 c 0
EndSplineSet
EndChar

StartChar: zero
Encoding: 48 48 18
Width: 510
GlyphClass: 1
Flags: HW
LayerCount: 2
Fore
SplineSet
472.16015625 406.005859375 m 0
 472.16015625 365.368164062 461.588867188 325.38671875 450.59765625 288.18359375 c 0
 435.961914062 239.702148438 406.62890625 164.479492188 345.346065214 82.1015625 c 0
 288.239367424 17.0146484375 257.271395996 -7.4404296875 210.400598078 -7.4404296875 c 0
 165.476370863 -7.4404296875 145.723632812 17.6552734375 132.772460938 34.1298828125 c 0
 123.192382812 47.9423828125 75.3330078125 127.96484375 66.5126953125 143.317382812 c 0
 58.576171875 154.462890625 45.25 174.770507812 45.25 260.5 c 0
 45.25 280.983398438 46.0068359375 301.381835938 47.009765625 321.452148438 c 0
 49.0322265625 372.947265625 55.10546875 425.993164062 72.5751953125 476.346679688 c 0
 88.5185546875 519.157226562 107.491210938 561.254882812 132.50390625 600.723632812 c 0
 132.041015625 601.765625 131.745117188 609.051757812 131.745117188 615.80078125 c 0
 131.745117188 619.21484375 131.993164062 641.298828125 138.311523438 650.989257812 c 0
 144.123046875 658.603515625 160.995117188 666 175.048468253 666 c 0
 190.13985909 666 239.758821151 653.153320312 249.340760753 649.896484375 c 0
 310.526508384 633.301757812 372.98046875 607.689453125 409.954101562 561.918945312 c 0
 436.421875 528.551757812 472.16015625 471.399414062 472.16015625 406.005859375 c 0
211.518235863 61.8984375 m 0
 213.47027446 61.8984375 220.634310792 63.9990234375 228.654619516 68.5908203125 c 0
 237.497299683 75.265625 245.287956808 83.046875 255.009874528 93.0107421875 c 0
 320.846613843 159.7578125 364.672851562 243.142578125 389.37109375 328.706054688 c 0
 396.365234375 353.184570312 401.528320312 379.563476562 401.528320312 404.743164062 c 0
 401.528320312 421.80859375 399.177734375 438.336914062 393.60546875 453.568359375 c 0
 380.737304688 485.861328125 363.841796875 512.146484375 340.941128816 530.365234375 c 0
 312.276234858 554.146484375 273.092204056 569.810546875 229.157665877 582.55859375 c 1
 223.514797999 576.133789062 215.314048732 571.326171875 205.704769654 570.17578125 c 0
 203.567916198 570.029296875 200.015971456 568.844726562 195.843967395 566.211914062 c 0
 174.943484665 533.584960938 157.149414062 499.024414062 142.341796875 464.422851562 c 0
 120.20703125 403.229492188 114.86328125 335.701171875 114.86328125 268.508789062 c 0
 114.86328125 240.384765625 115.158203125 204.154296875 121.609375 184.798828125 c 0
 122.567382812 181.499023438 138.87890625 157.420898438 142.1484375 152.735351562 c 0
 185.64634279 84.8525390625 192.288741916 75.1064453125 199.152044009 67.482421875 c 0
 199.943795239 66.951171875 207.581351297 61.8984375 211.518235863 61.8984375 c 0
EndSplineSet
EndChar

StartChar: one
Encoding: 49 49 19
Width: 311
GlyphClass: 1
Flags: HW
LayerCount: 2
Fore
SplineSet
219.534179688 69.1982421875 m 0
 212.385742188 58.119140625 198.602539062 51 185 51 c 0
 164.030273438 51 150.401367188 68.1572265625 150.401367188 85.3818359375 c 0
 150.401367188 97.4912109375 155.534179688 103.478515625 160.677734375 109.479492188 c 0
 167.759765625 140.021484375 172.896484375 267.708984375 175.456054688 336.788085938 c 0
 178.030273438 407.200195312 181.852539062 467.078125 186.517578125 539.950195312 c 1
 158.329101562 508.393554688 132.721679688 480.884765625 103.208007812 456.158203125 c 0
 100.751953125 454.315429688 98.7255859375 452.666992188 96.1845703125 450.599609375 c 0
 87.0546875 443.171875 75.4814453125 433 59 433 c 0
 37.1015625 433 23.798828125 450.359375 23.798828125 467.0703125 c 0
 23.798828125 468.998046875 24.275390625 487.83203125 42.6708984375 496.329101562 c 0
 51.54296875 500.426757812 74.5673828125 520.49609375 97.302734375 543.024414062 c 0
 98.3095703125 544.021484375 172.938476562 619.041992188 192.673828125 647.440429688 c 0
 196.154296875 652.448242188 207.474609375 668.73828125 228.295898438 668.73828125 c 0
 247.552734375 668.73828125 260.411132812 654.217773438 262.829101562 641.725585938 c 0
 263.581054688 637.840820312 263.736328125 633.372070312 263.736328125 627.883789062 c 0
 263.736328125 602.087890625 258.723632812 555.114257812 256.954101562 542.090820312 c 0
 254.934570312 513.430664062 245.979492188 347.639648438 244.995117188 319.983398438 c 0
 242.208984375 230.90625 237.5390625 128.1328125 230.6484375 103.661132812 c 0
 229.876953125 100.91796875 229.208007812 97.919921875 228.50390625 94.7412109375 c 0
 226.458007812 85.5 224.694335938 77.5283203125 219.534179688 69.1982421875 c 0
EndSplineSet
EndChar

StartChar: two
Encoding: 50 50 20
Width: 455
GlyphClass: 1
Flags: HW
LayerCount: 2
Fore
SplineSet
307.37109375 268.405273438 m 1
 319.579101562 308.375 341.379882812 398.544921875 341.379882812 446.1484375 c 0
 341.379882812 472.595703125 335.75390625 487.056640625 332.598632812 495.168945312 c 0
 321.990234375 521.670898438 227.400904336 560.467773438 192.02161681 560.467773438 c 0
 183.42457922 560.467773438 174.824139558 559.358398438 167.464322389 557.350585938 c 0
 142.040039062 549.34375 101.474609375 502.002929688 98.435546875 490.28515625 c 0
 97.880859375 488.35546875 96.7275390625 481.361328125 96.7275390625 478.76953125 c 0
 96.7275390625 478.630859375 96.7314453125 478.514648438 96.7314453125 478.418945312 c 0
 97.3896484375 474.602539062 97.484375 472.5390625 97.484375 470.44921875 c 0
 97.484375 448.711914062 80.26171875 432.88671875 61.494140625 432.88671875 c 0
 43.9638671875 432.88671875 34.1552734375 446.665039062 32.21484375 450.221679688 c 0
 27.685546875 458.525390625 27.1142578125 469.022460938 27.1142578125 479.43359375 c 0
 27.1142578125 479.720703125 27.4716796875 500.625 30.6630859375 507.995117188 c 0
 41.12109375 534.008789062 72.591796875 579.125 102.668945312 601.899414062 c 0
 110.841796875 608.34765625 142.622070312 631.047851562 191.164294502 631.047851562 c 0
 230.687306517 631.047851562 268.056806544 616.043945312 299.458007812 601.944335938 c 0
 336.548828125 584.864257812 361.840820312 568.454101562 377.416992188 551.99609375 c 0
 393.963867188 534.795898438 411.15234375 504.525390625 411.15234375 446.081054688 c 0
 411.15234375 411.258789062 405.055664062 377.063476562 397.788085938 343.940429688 c 0
 389.065429688 300.345703125 378.439453125 257.466796875 363.159179688 215.370117188 c 1
 378.950195312 192.499023438 393.10546875 165.215820312 402.657226562 133.3984375 c 0
 405.256835938 122.346679688 406.928710938 114.900390625 407.973632812 104.904296875 c 2
 407.973632812 108.197265625 407.98828125 105.376953125 407.98828125 103.958007812 c 2
 408.015625 103.231445312 408.029296875 102.505859375 408.029296875 101.783203125 c 0
 408.029296875 86.4208984375 389.16796875 76.837890625 370.859375 76.837890625 c 0
 353.720703125 76.837890625 344.9765625 82.763671875 310.650390625 120.254882812 c 0
 308.418945312 122.857421875 305.907226562 126.047851562 303.765625 129.9296875 c 1
 297.903320312 126.48828125 274.32115632 116.111328125 240.751771444 116.111328125 c 0
 218.493144111 116.111328125 196.051938878 120.455078125 177.245281261 129.038085938 c 0
 158.020168709 137.30078125 129.2265625 160.3515625 129.2265625 203.588867188 c 0
 129.2265625 234.052734375 139.76953125 270.321289062 171.940315974 283.932617188 c 0
 185.432936109 290.203125 214.872204785 293.091796875 217.802523362 293.091796875 c 0
 217.808193484 293.091796875 217.81272958 293 217.817265677 293 c 0
 218.014585891 293 218.014585891 293 218.014585891 293 c 1
 218.210772081 292.994140625 l 2
 250.642730666 292.063476562 282.35911997 282.443359375 307.37109375 268.405273438 c 1
240.725688887 186.287109375 m 0
 261.218640515 186.287109375 268.990108475 191.736328125 280.047978616 209.184570312 c 1
 256.456872827 218.811523438 238.580115069 220.723632812 224.820999242 222.194335938 c 0
 222.73893078 222.552734375 218.5441752 223 215.059318781 223 c 0
 213.809624094 223 212.639311102 222.92578125 211.737761849 222.834960938 c 0
 211.694668929 222.749023438 208.899299234 216.936523438 208.527339291 213.966796875 c 2
 208.527339291 214.240234375 208.527339291 214.178710938 208.527339291 213.748046875 c 2
 207.756202823 208.666992188 207.704037709 205.92578125 207.704037709 203.669921875 c 0
 207.704037709 197.508789062 210.821470282 191.89453125 215.5752998 189.140625 c 0
 218.699536518 187.813476562 229.243693689 186.287109375 240.725688887 186.287109375 c 0
EndSplineSet
EndChar

StartChar: three
Encoding: 51 51 21
Width: 485
GlyphClass: 1
Flags: HW
LayerCount: 2
Fore
SplineSet
149.170898438 321.313476562 m 0
 128.862304688 324.954101562 116.543945312 341.418945312 116.543945312 357.717773438 c 0
 116.543945312 378.99609375 136.526367188 389.758789062 150.982421875 389.48046875 c 0
 160.457901337 389.48046875 162.933535482 387.545898438 179.444418044 387.545898438 c 0
 179.811548376 387.545898438 207.741182516 387.823242188 216.111975925 388.842773438 c 2
 216.111975925 387.794921875 216.321606236 387.813476562 216.321606236 388.861328125 c 2
 251.218952605 391.9921875 297.71584283 401.423828125 333.018554688 425.71484375 c 0
 340.66796875 431.0625 359.982421875 444.56640625 369.579101562 470.580078125 c 0
 370.905273438 474.171875 371.666015625 479.034179688 371.666015625 484.688476562 c 0
 371.666015625 510.181640625 355.969726562 548.298828125 342.567382812 563.461914062 c 0
 333.116210938 573.124023438 305.780509437 596.356445312 217.512838795 596.356445312 c 0
 216.289440738 596.356445312 123.357421875 595.190429688 103.239257812 582.510742188 c 0
 98.857421875 576.841796875 88.263671875 563.137695312 69.7353515625 563.137695312 c 0
 51.7548828125 563.137695312 34.6015625 576.8125 34.6015625 596.524414062 c 0
 34.6015625 608.97265625 41.1787109375 619.07421875 53.953125 629.991210938 c 0
 81.75 653.748046875 106.306640625 656.172851562 135.129882812 659.018554688 c 0
 180.914048529 663.368164062 185.101108966 663.744140625 212.530514163 663.744140625 c 0
 227.820216979 663.744140625 243.087736693 663.173828125 258.203302161 661.967773438 c 0
 296.272832067 659.641601562 326.563476562 653.651367188 350.834960938 641.431640625 c 0
 367.30859375 632.048828125 386.1484375 619.784179688 399.895507812 602.100585938 c 0
 422.196289062 575.307617188 434.692382812 542.705078125 439.888671875 509.494140625 c 0
 441.135742188 501.444335938 441.904296875 493.1640625 441.904296875 484.84765625 c 0
 441.904296875 472.272460938 440.159179688 459.608398438 435.454101562 447.744140625 c 0
 426.649414062 420.33984375 407.366210938 397.836914062 385.6484375 379.784179688 c 0
 363.115234375 359.631835938 335.252929688 346.126953125 304.530491658 336.4765625 c 1
 335.340820312 321.560546875 379.67578125 298.333007812 403.622070312 271.283203125 c 0
 415.423828125 257.83984375 435.657226562 228.3125 435.657226562 183.845703125 c 0
 435.657226562 166.40234375 432.043945312 146.762695312 418.547851562 131.829101562 c 0
 392.622070312 102.9609375 261.534094875 62.693359375 259.727281245 62.1806640625 c 0
 240.166222205 56.6220703125 219.289705237 52.1123046875 197.515881807 52.1123046875 c 0
 192.027782458 52.1123046875 186.49420775 52.412109375 180.93844994 53.0712890625 c 0
 160.62649291 54.923828125 149.3515625 59.734375 121.809570312 72.2841796875 c 0
 99.626953125 82.046875 77.0556640625 92.91796875 57.1337890625 107.118164062 c 0
 42.384765625 117.345703125 35.1025390625 132.584960938 35.1025390625 147.609375 c 0
 35.1025390625 176.271484375 60.556640625 195.774414062 81.853515625 195.774414062 c 0
 101.4296875 195.774414062 116.329101562 180.361328125 116.329101562 162.666992188 c 0
 116.329101562 158.9765625 115.669921875 155.237304688 114.329101562 151.595703125 c 0
 135.309570312 139.987304688 156.256421883 129.564453125 180.382763244 122.161132812 c 0
 185.195387148 120.725585938 190.348521663 120.083007812 195.869895665 120.083007812 c 0
 210.570637132 120.083007812 227.591731032 124.879882812 244.720412975 129.989257812 c 0
 245.623265213 130.213867188 284.459221281 139.99609375 331.134765625 158.98828125 c 0
 341.877929688 163.823242188 358.567382812 171.788085938 364.556640625 175.264648438 c 0
 364.779296875 176.485351562 365 177.880859375 365 177.880859375 c 1
 365 183.573242188 365 184.071289062 365 178.395507812 c 2
 365.356445312 181.676757812 365.431640625 183.758789062 365.431640625 185.885742188 c 0
 365.431640625 223.6875 336.743164062 241.041992188 309.406337402 256.674804688 c 0
 283.792619076 268.986328125 173.447216511 317.213867188 149.170898438 321.313476562 c 0
EndSplineSet
EndChar

StartChar: four
Encoding: 52 52 22
Width: 536
GlyphClass: 1
Flags: HW
LayerCount: 2
Fore
SplineSet
395.40625 283.211914062 m 1
 390.524793592 220.336914062 386.463322713 158.333007812 384.369027479 95.5009765625 c 0
 388.093631446 87.6337890625 389.47605698 84.71484375 389.47605698 77.6416015625 c 0
 389.47605698 56.810546875 368.545816596 44.046875 349.066858189 44.046875 c 0
 335.956591209 44.046875 322.22343824 49.8603515625 314.158759627 62.4873046875 c 0
 308.777363678 70.912109375 308.385411611 79.9326171875 308.385411611 87.7001953125 c 0
 308.385411611 88.9599609375 308.39600491 90.185546875 308.39706424 91.37109375 c 0
 308.343038414 92.7060546875 308.320792486 94.2099609375 308.320792486 95.912109375 c 0
 308.320792486 119.309570312 312.701121669 183.895507812 315.941611867 232.017578125 c 0
 317.017891057 248.01171875 317.970228647 262.180664062 318.589936645 272.208007812 c 1
 274.992154821 265.9765625 235.877457182 261.201171875 193.750025275 261.201171875 c 0
 192.159971078 261.201171875 74.173828125 261.725585938 43.2919921875 273.712890625 c 0
 26.84765625 280.095703125 16.9296875 295.149414062 16.9296875 310.805664062 c 0
 16.9296875 319.930664062 20.3525390625 329.201171875 27.5126953125 336.711914062 c 0
 40.87109375 352.051757812 56.9306640625 363.798828125 72.048828125 374.948242188 c 0
 83.0244140625 383.04296875 83.0244140625 383.04296875 99.0810546875 396.448242188 c 0
 117.138671875 411.525390625 134.735351562 426.229492188 152.117300436 441.9453125 c 0
 237.93149788 518.715820312 287.205169367 631.911132812 319.916217694 673.680664062 c 0
 330.307184792 686.94921875 342.156849179 700.405273438 363.232217761 700.405273438 c 0
 385.446365998 700.405273438 402.736328125 684.131835938 404.935546875 664.24609375 c 0
 409.977539062 624.076171875 410 584.255859375 410 544.84765625 c 0
 410 540.981445312 409.56640625 464.706054688 400.00390625 352.131835938 c 1
 414.0078125 353.749023438 433.315429688 355.479492188 451.08984375 355.479492188 c 0
 467.26953125 355.479492188 482.713867188 354.803710938 493.322265625 348.198242188 c 0
 505.296875 341.01171875 512.907226562 329.564453125 512.907226562 316.6171875 c 0
 512.907226562 304.48046875 505.884765625 287.305664062 482.259765625 273.501953125 c 0
 476.356445312 269.856445312 469.797851562 268.173828125 463.388671875 268.173828125 c 0
 450.461914062 268.173828125 437.528320312 275.138671875 431.987304688 287.30859375 c 1
 419.588867188 286.469726562 407.247070312 285.100585938 395.40625 283.211914062 c 1
330.108030769 416.62109375 m 0
 330.159937935 418.087890625 335.653622854 528.72265625 335.973540487 563.299804688 c 1
 302.816514268 506.662109375 265.135089998 450.67578125 216.268201196 403.930664062 c 0
 187.24468029 377.174804688 156.151228738 352.6328125 125.791992188 328.5859375 c 1
 139.30894248 327.59375 153.849304841 327.138671875 168.443693027 327.138671875 c 0
 220.010813772 327.138671875 272.278151589 332.834960938 323.918366098 340.54296875 c 1
 325.106934259 361.400390625 329.101667354 406.330078125 330.108030769 416.62109375 c 0
EndSplineSet
EndChar

StartChar: five
Encoding: 53 53 23
Width: 442
GlyphClass: 1
Flags: HW
LayerCount: 2
Fore
SplineSet
207.259100499 54.00390625 m 1
 206.923126993 54.00390625 l 2
 196.41843289 54.00390625 154.772460938 53.111328125 127.8515625 53.111328125 c 0
 114.379882812 53.111328125 103.74609375 53.197265625 97.7353515625 54.0771484375 c 0
 78.4140625 56.126953125 62.552734375 70.9775390625 62.552734375 89.8330078125 c 0
 62.552734375 108.401367188 79.6767578125 127.26171875 100.521484375 127.26171875 c 0
 106.07421875 127.26171875 111.685546875 125.875976562 116.838867188 123 c 0
 208.719248329 123 250.943793984 123.508789062 286.766242424 131.859375 c 0
 314.909179688 139.942382812 336.262695312 165.39453125 338.017578125 193.028320312 c 0
 338.172851562 195.478515625 338.27734375 198.313476562 338.27734375 201.345703125 c 0
 338.27734375 205.50390625 337.891601562 232.1015625 328.090820312 238.125 c 0
 315.040039062 244.0859375 267.286754332 248.797851562 201.537088062 248.797851562 c 0
 192.084490922 248.797851562 176.836641447 248.668945312 165.689063784 248 c 2
 165.257762156 248 l 2
 163.32421875 248 159.686523438 247.318359375 158.271484375 246.987304688 c 0
 150.794921875 237.018554688 139.529296875 231.622070312 128.114257812 231.622070312 c 0
 116.494140625 231.622070312 104.845703125 237.373046875 97.58203125 248.588867188 c 0
 90.2861328125 259.67578125 82.6220703125 290.330078125 72.083984375 337.006835938 c 0
 51.435546875 428.465820312 43.646484375 487.931640625 43.646484375 532.93359375 c 0
 43.646484375 632.724609375 97.3818359375 640.549804688 137.063476562 646.328125 c 0
 139.5703125 646.693359375 142.032226562 647.051757812 144.430664062 647.421875 c 0
 144.508789062 647.43359375 144.587890625 647.4453125 144.66796875 647.455078125 c 0
 175.97403819 651.276367188 280.245566326 670.409179688 306.3515625 670.409179688 c 0
 350.439453125 670.409179688 362 638.172851562 362 624.490234375 c 0
 362 603.5546875 345.0625 590.599609375 327.693359375 590.599609375 c 0
 318.19921875 590.599609375 308.477539062 594.389648438 301.2578125 602.08203125 c 1
 275.378019379 599.619140625 230.178538774 588.924804688 154.1171875 580.681640625 c 0
 147.131835938 579.801757812 124.032226562 576.891601562 120.8671875 572.990234375 c 0
 120.249023438 572.228515625 114.430664062 564.188476562 114.430664062 531.245117188 c 0
 114.430664062 519.594726562 115.208007812 508.576171875 115.930664062 502.623046875 c 0
 115.943359375 502.53125 115.953125 502.4375 115.9609375 502.341796875 c 0
 121.641601562 439.98828125 133.674804688 378.380859375 149.499023438 317.530273438 c 1
 166.080839117 319.393554688 185.578927819 320.151367188 205.102592358 320.151367188 c 0
 206.631329935 320.151367188 303.830078125 319.943359375 346.073242188 306.331054688 c 0
 368.592773438 299.485351562 408.666992188 276.305664062 408.666992188 208.146484375 c 0
 408.666992188 197.293945312 407.616210938 186.583984375 405.876953125 176.453125 c 0
 399.365234375 134.590820312 369.697265625 93.3896484375 330.462890625 74.388671875 c 0
 296.10546875 57.75 250.464828294 54.98046875 207.259100499 54.00390625 c 1
EndSplineSet
EndChar

StartChar: six
Encoding: 54 54 24
Width: 471
GlyphClass: 1
Flags: HW
LayerCount: 2
Fore
SplineSet
330.325195312 0.5673828125 m 0
 317.711556619 -3.7275390625 303.173041281 -5.1962890625 288.962890659 -5.1962890625 c 0
 280.830837945 -5.1962890625 272.802655703 -4.7109375 265.015721007 -3.9599609375 c 0
 181.398874629 1.1484375 145.447265625 22.2001953125 98.6513671875 70.0771484375 c 0
 73.09765625 96.982421875 57.421875 131.75390625 51.1435546875 167.345703125 c 0
 45.3330078125 200.359375 42.072265625 234.177734375 42.072265625 268.081054688 c 0
 42.072265625 330.466796875 49.90625 470.787109375 203.975624191 634.373046875 c 0
 216.250210007 644.802734375 250.780998876 681.166992188 264.392498179 686.950195312 c 0
 272.569226364 690.524414062 281.884062188 693 291.226820181 693 c 0
 316.680670113 693 329.911132812 675.969726562 329.911132812 659.314453125 c 0
 329.911132812 646.021484375 322.076171875 632.110351562 304.469746844 626.140625 c 1
 243.895391819 572.426757812 188.309053196 513.249023438 153.02734375 446.198242188 c 0
 115.138671875 368.629882812 112.389648438 314.379882812 112.049804688 282.112304688 c 1
 157.331054688 297.295898438 255.94548339 313.530273438 322.537109375 313.530273438 c 0
 331.686523438 313.530273438 340.845703125 313.111328125 350.165039062 311.982421875 c 0
 393.850585938 307.059570312 441.258789062 277.358398438 441.258789062 231.173828125 c 0
 441.258789062 229.903320312 441.055664062 196.603515625 419.571289062 129.961914062 c 0
 415.01171875 114.946289062 398.671875 65.3056640625 372.930664062 32.8779296875 c 0
 369.9921875 29.17578125 352.602539062 8.1865234375 330.325195312 0.5673828125 c 0
275.985783053 54.9775390625 m 0
 276.66149956 54.943359375 281.426138604 54.4443359375 286.609610194 54.4443359375 c 0
 305.957440047 54.4443359375 311.757433145 60.9541015625 318.429714825 69.701171875 c 0
 336.5234375 95.2001953125 344.4140625 118.87109375 352.510742188 143.16015625 c 0
 361.233398438 169.329101562 367.081054688 195.512695312 371.009765625 222.791992188 c 0
 371.01171875 222.84765625 371.25 227.396484375 371.25 228.375 c 0
 371.25 228.461914062 371.248046875 228.545898438 371.248046875 228.626953125 c 0
 359.392578125 239.860351562 339.665039062 243.034179688 319.542134067 244 c 0
 257.217617443 243.96484375 194.274345538 232.109375 137.491210938 216.138671875 c 1
 134.23046875 205.225585938 126.918945312 196.594726562 117.072265625 192.500976562 c 1
 119.583984375 173.037109375 122.276367188 153.865234375 129.904296875 138.553710938 c 0
 140.251953125 118.935546875 178.276059166 71.1513671875 226.352451017 62.744140625 c 0
 240.08569098 59.5419921875 257.578371876 56.05078125 275.985783053 54.9775390625 c 0
EndSplineSet
EndChar

StartChar: seven
Encoding: 55 55 25
Width: 502
GlyphClass: 1
Flags: HW
LayerCount: 2
Fore
SplineSet
317.930890488 387.918945312 m 1
 329.2872435 390.224609375 367.474609375 397.81640625 394.853515625 397.81640625 c 0
 440.2421875 397.81640625 448.888671875 365.193359375 448.888671875 350.880859375 c 0
 448.888671875 325.154296875 427.920898438 307.045898438 408.2421875 307.045898438 c 0
 394.763671875 307.045898438 382.868164062 314.869140625 376.592773438 326.404296875 c 1
 357.786132812 323.892578125 306.352329201 314.15234375 289.901366076 310.852539062 c 1
 287.142100213 302.65234375 282.752947439 289.013671875 277.337969084 272.1796875 c 0
 254.331861842 200.911132812 213.954676627 73.990234375 193.66468801 42.5517578125 c 0
 186.162462023 30.2197265625 171.861310025 23.990234375 158.09841982 23.990234375 c 0
 141.735351562 23.990234375 122.78125 34.1162109375 122.78125 57.3916015625 c 0
 122.78125 57.69921875 122.840820312 77.5185546875 129.673828125 87.4404296875 c 0
 131.389648438 89.9326171875 133.19140625 91.5966796875 134.430664062 92.7958984375 c 0
 135.14453125 93.4873046875 135.677734375 94.029296875 136.05859375 94.4443359375 c 0
 142.945109874 114.068359375 166.488400227 184.145507812 185.09996129 239.592773438 c 0
 192.155613365 260.611328125 198.513358868 279.556640625 203.097752894 293.05859375 c 1
 181.931875348 288.541992188 153.775066583 283.422851562 130.612304688 283.422851562 c 0
 116.509765625 283.422851562 102.603515625 285.114257812 92.564453125 293.444335938 c 0
 84.1572265625 300.297851562 80.416015625 309.79296875 80.416015625 318.84375 c 0
 80.416015625 335.288085938 92.9306640625 353.0625 113.416015625 353.0625 c 0
 120.704101562 353.0625 121.000976562 351.315429688 128.865234375 351.315429688 c 0
 151.123668815 351.315429688 205.567932263 362.765625 229.402466472 367.973632812 c 1
 282.427185793 515.334960938 335.83483685 583.470703125 377.443359375 629.215820312 c 1
 376.278320312 629.223632812 375.05078125 629.228515625 373.766601562 629.228515625 c 0
 323.360970376 629.228515625 186.835558934 623.784179688 107.322265625 623.784179688 c 0
 82.052734375 623.784179688 62.4873046875 624.279296875 51.3466796875 626.13671875 c 0
 31.89453125 629.377929688 22.0498046875 645.622070312 22.0498046875 660.83203125 c 0
 22.0498046875 677.799804688 34.388671875 696 57 696 c 0
 67.296875 696 130.295898438 694 140 694 c 0
 209.085510831 694 278.099517832 699.916992188 347.346519918 699.916992188 c 0
 369.278320312 699.916992188 369.278320312 699.916992188 409.506835938 697.700195312 c 0
 443.334960938 695.895507812 463.819335938 691.73828125 472.788085938 661.360351562 c 0
 473.2578125 658.405273438 473.310546875 656.874023438 473.310546875 655.298828125 c 0
 473.310546875 634.395507812 456.44921875 615.708007812 431.02734375 587.591796875 c 0
 422.314453125 577.955078125 413.754882812 568.477539062 406.057617188 558.711914062 c 0
 368.458984375 507.462890625 341.808571935 448.619140625 317.930890488 387.918945312 c 1
EndSplineSet
EndChar

StartChar: eight
Encoding: 56 56 26
Width: 450
GlyphClass: 1
Flags: HW
LayerCount: 2
Fore
SplineSet
345.34765625 619.208984375 m 1
 375.471679688 599.576171875 387.741210938 557.1640625 387.741210938 523.087890625 c 0
 387.741210938 476.0546875 364.5625 446.177734375 325.715820312 396.103515625 c 1
 343.297851562 390.651367188 377.649414062 375.22265625 391.395507812 335.659179688 c 0
 401.458007812 311.151367188 405.041992188 285.077148438 405.041992188 259.111328125 c 0
 405.041992188 246.9140625 404.23828125 234.641601562 402.93359375 222.627929688 c 0
 396.662109375 169.939453125 367.8046875 112.09765625 320.329101562 81.7666015625 c 0
 299.895507812 69.255859375 275.34208296 62.236328125 248.756163817 57.271484375 c 0
 226.562199293 52.580078125 203.290723444 48.9794921875 179.820819385 48.9794921875 c 0
 168.58655249 48.9794921875 135.764648438 48.9794921875 118.313476562 69.9501953125 c 0
 113.2890625 75.609375 96.8125 94.1650390625 96.8125 156.572265625 c 0
 96.8125 182.94140625 100.81640625 210.1640625 112.969726562 234.521484375 c 0
 132.436523438 274.077148438 158.985857367 309.924804688 189.023504436 345.046875 c 1
 133.62890625 351.3671875 116.508789062 356.493164062 86.001953125 380.662109375 c 0
 76.2734375 387.166992188 34.751953125 417.990234375 34.751953125 470.159179688 c 0
 34.751953125 471.358398438 34.8984375 503.837890625 50.58203125 527.498046875 c 0
 60.1025390625 541.859375 72.4814453125 555.831054688 84.8505859375 567.834960938 c 0
 106.969726562 590.25390625 130.11328125 610.783203125 154.743164062 630.688476562 c 0
 178.84944408 646.010742188 250.1278565 691.3125 301.734375 691.3125 c 0
 314.940429688 691.3125 349.735351562 687.549804688 349.735351562 647.8984375 c 0
 349.735351562 644.41796875 349.45703125 630.875 345.34765625 619.208984375 c 1
308.374023438 495.059570312 m 0
 314.76953125 505.931640625 318.533203125 520.310546875 318.533203125 533.646484375 c 0
 318.533203125 542.235351562 316.872070312 557.287109375 306.600585938 568.23828125 c 0
 305.501953125 568.470703125 303.338867188 568.905273438 302.163085938 568.987304688 c 2
 302 569 l 1
 301.001953125 569 l 1
 294.143554688 570.372070312 276.528037609 570.5 271.997644705 570.5 c 0
 262.115458401 570.5 251.816803587 570.126953125 245.709367877 569.663085938 c 1
 240.282587072 561.526367188 237.166571988 546.9921875 231.306017888 538.821289062 c 0
 222.857821495 527.04296875 209.529675526 521.135742188 196.286899833 521.135742188 c 0
 178.660245089 521.135742188 161.841147012 531.137695312 156.299000969 546.202148438 c 1
 155.696794426 545.692382812 116.008789062 505.655273438 108.950195312 491.537109375 c 0
 106.360351562 486.359375 104.745117188 479.685546875 104.745117188 473.706054688 c 0
 104.745117188 472.474609375 104.809570312 471.270507812 104.938476562 470.114257812 c 0
 107.298828125 450.079101562 136.626953125 426.0703125 154.16015625 420.489257812 c 0
 163.644305685 417.783203125 220.174426054 411.524414062 242.592199141 409.513671875 c 1
 246.426939658 414.127929688 251.91024943 420.590820312 258.255337531 428.077148438 c 0
 280.431997269 454.240234375 299.032226562 479.177734375 308.374023438 495.059570312 c 0
169.197988252 172.368164062 m 0
 168.809207399 166.345703125 168.809207399 166.345703125 168.809207399 161.987304688 c 0
 168.809207399 156.471679688 169.054935357 132.469726562 173.334985694 118.927734375 c 0
 173.633781661 118.921875 173.987952942 118.91796875 174.404421452 118.91796875 c 0
 175.702280382 118.91796875 258.253030226 120.1875 296.115234375 152.25 c 0
 314.068359375 169.3046875 325.466796875 194.333984375 331.196289062 219.98828125 c 0
 333.728515625 233.986328125 335 248.448242188 335 262.741210938 c 0
 335 269.918945312 334.6796875 277.060546875 334.041015625 284.084960938 c 0
 331.795898438 307.083984375 322.2109375 330.174804688 315.462890625 334.673828125 c 0
 306.797851562 340.450195312 294.93359375 342.69921875 280.648883917 344.591796875 c 1
 218.1382296 268.942382812 204.191725954 252.065429688 182.111973016 215.461914062 c 0
 174.729751424 202.963867188 170.290497058 187.16796875 169.197988252 172.368164062 c 0
EndSplineSet
EndChar

StartChar: nine
Encoding: 57 57 27
Width: 431
GlyphClass: 1
Flags: HW
LayerCount: 2
Fore
SplineSet
312.705078125 648.008789062 m 0
 311.286132812 648.008789062 294.250976562 648.342773438 284.340820312 664.182617188 c 1
 256.612711248 650.760742188 202.092704196 623.6015625 138.659179688 577 c 0
 126.974609375 568.810546875 117.012695312 561.028320312 110.971679688 552.565429688 c 0
 106.918945312 543.512695312 105.01953125 533.28125 102.836914062 520.188476562 c 0
 102.28515625 517.42578125 100.80859375 509.720703125 100.80859375 499.908203125 c 0
 100.80859375 487.209960938 103.331054688 474.653320312 108.690429688 464.94921875 c 0
 118.192382812 448.8203125 129.479492188 434.775390625 142.42578125 423.661132812 c 0
 151.851455434 416.032226562 172.797290242 413.53125 177.054660682 412.194335938 c 1
 188.327246047 412.194335938 211.779023991 413.362304688 256.548547697 453.908203125 c 0
 278.174804688 476.397460938 297.151367188 503.836914062 304.129882812 519.37890625 c 0
 304.294921875 520.7109375 304.294921875 520.7109375 309.176757812 534.215820312 c 0
 310.208007812 545.423828125 312.000976562 590.212890625 313.052734375 598.859375 c 0
 314.791992188 612.83984375 331.19140625 620.838867188 347.119140625 620.838867188 c 0
 358.670898438 620.838867188 370.700195312 616.630859375 377.611328125 607.897460938 c 0
 383.09375 600.248046875 383.38671875 589.909179688 383.38671875 579.206054688 c 0
 383.38671875 560.861328125 381.134765625 540.838867188 379.916992188 531.709960938 c 0
 376.978515625 508.931640625 375.671875 485.9296875 374.359375 462.678710938 c 0
 373.921875 454.928710938 373.482421875 447.151367188 372.979492188 439.34765625 c 0
 372.818359375 436.662109375 358.8203125 268.989257812 354.490234375 170.993164062 c 0
 353.740234375 154.041992188 352.98828125 137.041015625 351.982421875 119.9921875 c 1
 351.982421875 119.4140625 351.982421875 119.352539062 351.982421875 120.053710938 c 1
 350.421875 103.981445312 332.67578125 94.1953125 315.190429688 94.1953125 c 0
 302.341796875 94.1953125 289.30859375 99.568359375 283.6328125 110.083007812 c 0
 280.311523438 118.134765625 278.352539062 134.22265625 278.352539062 146 c 0
 278.352539062 156.61328125 278.352539062 156.61328125 285.079101562 175.0078125 c 1
 286.0703125 197.608398438 287.03125 220.23828125 288.041015625 242.8203125 c 0
 289.58984375 259.756835938 296.717773438 348.243164062 300.1796875 396.250976562 c 1
 259.54878782 355.116210938 220.324658433 342.133789062 178.895204029 342.133789062 c 0
 133.237304688 342.133789062 104.864257812 362.590820312 90.0771484375 376.786132812 c 0
 62.34375 403.41015625 40.4736328125 434.670898438 33.1591796875 470.202148438 c 0
 31.7236328125 479.291992188 31.1064453125 488.202148438 31.1064453125 497.73046875 c 0
 31.1064453125 529.354492188 36.056640625 575.21875 72.8154296875 609.892578125 c 0
 101.098632812 639.345703125 223.945146217 726.221679688 279.202148438 735 c 0
 283.295898438 735.637695312 287.5546875 735.965820312 291.859375 735.965820312 c 0
 331.154296875 735.965820312 348.228515625 707.833007812 348.228515625 693.072265625 c 0
 348.228515625 666.795898438 330.874023438 648.008789062 312.705078125 648.008789062 c 0
EndSplineSet
EndChar

StartChar: colon
Encoding: 58 58 28
Width: 168
GlyphClass: 1
Flags: W
LayerCount: 2
Fore
SplineSet
83.7970595501 361.739870411 m 0
 42.8736174752 361.739870411 25.6043044956 400.694594107 25.6043044956 435.243492354 c 0
 25.6043044956 438.482398984 25.7588987255 441.803173497 26.0499905093 445.00518312 c 0
 27.5078391084 459.583669111 38.9341974807 472.945784205 52.2919108909 478.288869569 c 0
 54.4608994845 479.156465006 59.3667799623 485.671082802 63.2022034038 487.774379528 c 0
 71.1540252051 492.135056 79.4612783579 494.231933732 87.6022559804 494.231933732 c 0
 123.217349612 494.231933732 147.486913185 456.789660083 147.486913185 427.950284049 c 0
 147.486913185 413.359628043 142.723351858 395.011551505 127.289404988 385.513738046 c 0
 121.140619239 381.670746953 112.638319174 370.63784603 105.46242045 367.049896668 c 0
 99.2681913177 363.952782102 91.7566141313 361.739870411 83.7970595501 361.739870411 c 0
140.044323331 62.7818663061 m 0
 140.044323331 34.9580531485 121.477041518 6 90 6 c 0
 75.0516978287 6 61.0598130051 14.416749259 51.5509334953 24.9772363573 c 1
 49.4417279358 25.5096680727 40.844609786 27.8803388152 35.5463376875 32.3634921293 c 0
 25.3174085693 41.0187398447 21.0959510192 53.8246453496 21.0959510192 65.9406012678 c 0
 21.0959510192 78.7718857004 23.7789103638 83.7545245163 33.1890951598 101.230582111 c 0
 42.7577552522 119.000950854 41.5556296683 121.780538064 50.8248361236 134.757429886 c 0
 59.5953009564 147.182255066 73.4133931021 154.29016881 87.3398493385 154.29016881 c 0
 97.6138907721 154.29016881 107.993431134 150.273500531 115.527686895 141.5801285 c 0
 123.665160307 132.280158885 124.489015357 122.355305099 125.657418967 108.279728333 c 1
 139.777397987 91.8639803604 139.967474823 71.154683373 140.044323331 62.7818663061 c 0
EndSplineSet
EndChar

StartChar: semicolon
Encoding: 59 59 29
Width: 160
GlyphClass: 1
Flags: W
LayerCount: 2
Fore
SplineSet
27 399 m 2
 27 402.755198412 23.2225390312 404.905882943 23.2225390312 416.565651021 c 0
 23.2225390312 423.373146074 24.6375219945 430.721091913 28.2631049742 436.969456821 c 1
 26.2281093574 442.059758748 25.3664654969 447.489157376 25.3664654969 452.785599536 c 0
 25.3664654969 471.396320611 34.3685536396 478.397944722 38.8682770357 481.897729585 c 0
 41.5730994167 484.001480326 42.1409247348 484.704171911 42.5571696271 485.358271028 c 0
 49.192979943 495.785972953 60.7568924306 502.230527984 73.0436332977 502.230527984 c 0
 85.1566321875 502.230527984 91.6788450566 496.715619743 95.4789745634 493.502390437 c 0
 97.1631340923 492.078335289 98.59953099 490.957461759 99.2252699897 490.476392474 c 0
 119.368081629 484.448532525 138.910094635 467.700044011 138.91009479 446.256862836 c 0
 138.91009479 439.94433415 137.045176622 432.156588165 130.456934598 424.333050761 c 0
 130.474472467 424.230814646 130.489418962 424.160612193 130.489418962 424.160612193 c 0
 131.021976541 422.765736492 131.805782018 416.676204318 131.805782018 410.778502304 c 0
 131.805782018 377.388807829 109.165627807 344.418175667 78.2148954976 344.418175667 c 0
 66.5244281677 344.418175667 38.1343879676 349.604216304 27 397.853230831 c 1
 27 399 l 2
59.0024707284 7.70511910313 m 1
 41.1545506531 9.85175896447 28.7340162738 25.7400612269 28.7340136763 42.3917236512 c 0
 28.7340136763 44.4282793258 29.0186170021 56.6446450486 35.6148034693 66.7561226933 c 1
 31.1429839951 72.7419583884 28.955009502 79.7269021612 28.955009502 86.6502077162 c 0
 28.955009502 103.918622755 43.139504448 124.024444959 69.0142836129 124.024444959 c 0
 94.3053939618 124.024444959 110.607441882 107.147743349 114.950103332 98.46242045 c 0
 122.386037727 83.5905516584 133.957644939 46.1847136035 133.957644939 6.93918398226 c 0
 133.957644939 -56.7405369926 105.065358586 -91.7706373442 79.6208481793 -110.275735822 c 0
 67.2585442901 -118.142656479 55.9923980405 -125.312022274 41.8535719887 -125.312022274 c 0
 24.4171901785 -125.312022274 3.80974739909 -109.983654667 3.80974739909 -87.9207343945 c 0
 3.80974739909 -82.2214492659 5.30525911065 -76.3932373986 8.31122197026 -71.0493034259 c 0
 13.9798443256 -61.1292143041 39.2095236392 -36.1585653574 47.1945011562 -26.7472943899 c 0
 53.8890796083 -17.9530442934 58.2320575041 -4.88241016351 59.0024707284 7.70511910313 c 1
EndSplineSet
EndChar

StartChar: less
Encoding: 60 60 30
Width: 386
GlyphClass: 1
Flags: W
LayerCount: 2
Fore
SplineSet
110.003637877 202.873802642 m 1
 128.159002438 200.245574974 128.159002438 200.245574974 268.145301884 181.476914986 c 1
 273.636045642 185.342781558 287.424256321 188.26317687 289.53986047 188.488666324 c 0
 300.247810101 188.488666324 306.308694989 184.430388853 316.716187736 177.461688058 c 0
 320.633427736 174.838761365 328.243018434 169.743490571 330.381239539 169.280919179 c 0
 338.50782529 167.522868879 352.197569942 165.457740166 360.786022835 154.279734715 c 0
 366.402165581 147.67561831 369.115731259 139.799669588 369.115731259 132.060610486 c 0
 369.115731259 110.777264617 350.270798926 96.3345216943 332.952659691 96.3345189026 c 0
 321.126097352 96.3345189026 312.462287188 102.658335251 304.091699274 104.182204218 c 0
 273.535927387 110.096224583 79.417032658 135.086059423 54.5702391236 141.297757807 c 0
 46.2719300433 143.372335077 35.6106954234 146.493665921 27.3294055343 154.53700702 c 0
 17.5730618299 162.562956774 13.0000017481 173.975807179 13 185.25 c 0
 13 196.663985388 17.5153444724 208.017314665 25.7099373082 216.842260796 c 0
 102.523012715 298.643198242 184.232796819 376.412638482 267.88129826 451.154155392 c 0
 267.913776027 451.221895853 267.943623749 451.284455444 267.971004822 451.342101032 c 0
 268.015350471 475.139942642 289.672400328 486.329285208 308.659467627 486.329285208 c 0
 338.48981419 486.329285208 348.990232306 465.766818311 348.990232306 449.483865213 c 0
 348.990232306 446.644215183 348.456007195 432.316644695 338.06968125 421.93031875 c 0
 334.81661452 418.67725202 322.141803203 405.455787812 316.202116115 401.138248337 c 0
 274.812978161 364.568630647 241.002089873 334.02364085 110.003637877 202.873802642 c 1
EndSplineSet
EndChar

StartChar: equal
Encoding: 61 61 31
Width: 456
GlyphClass: 1
Flags: W
LayerCount: 2
Fore
SplineSet
374.434164903 379.798734633 m 0
 399.574261349 379.798734633 391.93381547 383 407 383 c 0
 429.24780592 383 441.255680949 365.744179832 441.255680949 348.828857074 c 0
 441.255680949 331.729329132 429.743862918 313.151657626 407.797548635 309.161418665 c 2
 407.725559092 309.148329658 l 2
 406.15195817 308.886062837 404.711391512 308.792893219 403.363961031 308.792893219 c 0
 398.03288421 308.792893219 393.584351315 310.207106781 390.636038969 310.207106781 c 0
 390.078221833 310.207106781 390.024491701 310.198151759 388.835581146 310 c 2
 388 310 l 2
 367.762886909 310 314.539695446 312.970095827 313.79766583 312.99993963 c 0
 312.948566432 312.99993963 252.325204239 312.555555556 228.888888889 312.555555556 c 0
 212.660360127 312.555555556 199.382633026 312.643773667 193.36788925 313.019695153 c 0
 174.054788 313.987044907 137.905673245 323.97586749 89.6834662707 329.428819497 c 0
 84.4682195015 330.018557963 79.2600905056 330.606040279 74.0019527096 331.318536545 c 1
 67.1974145568 324.617109732 58.3399388029 321.320434718 49.6487951841 321.320434718 c 0
 35.5036172647 321.320434718 21.2971147511 330.120871259 16.4670595591 345.969858548 c 0
 14.4882647581 351.897950791 12 358.823960916 12 367 c 0
 12 379.91859683 20.9933167992 403.504661854 52.4354509792 403.504661854 c 0
 86.2863790521 403.504661854 171.634523216 386.081984362 194.030930576 382.95355502 c 0
 198.214372063 382.689157477 209.814597217 382.555555709 223.296296296 382.555555556 c 0
 243.154114587 382.555555556 296.262949563 383 297 383 c 2
 297.169502104 383 l 1
 297.338525432 382.994365889 l 2
 298.109715521 382.968659553 357.32059633 379.798734633 374.434164903 379.798734633 c 0
436.488101724 236.50300326 m 0
 436.488101724 216.573001563 418.002860946 194.007493258 393.70907077 194.007493258 c 0
 384.922316145 194.007493258 376.082862819 197.23451618 368.908561797 203.838550664 c 1
 333.496347805 202.100989318 296.985744103 190.943040984 259.958113163 187.045395622 c 0
 239.572930058 185.103949612 127.022001254 184.998530361 106.28441512 184.998530361 c 0
 104.160412815 184.998530361 103 185 103 185 c 2
 93.4306593795 185 82.780733168 185.838834062 73.2890544733 191.175327921 c 0
 60.6804733474 197.598594767 53.922656065 210.160620475 53.922656065 223.053403348 c 0
 53.922656065 241.320446914 66.9679446221 260.173244646 88.8996381152 260.1732461 c 0
 95.3876599175 260.1732461 101.922810603 258.445643255 107.885079676 255.000601855 c 0
 133.645961022 255.010836388 235.99518014 255.171555687 254.950876923 256.946011714 c 0
 298.878217452 261.983243399 307.104766599 269.951495305 366.647573431 274.358625151 c 0
 372.437623715 274.787181755 378.558392294 275.25 384.875 275.25 c 0
 393.119785117 275.25 401.764706579 274.472688497 410.262656436 271.455257174 c 0
 425.926231747 266.188856069 436.488101724 252.211958362 436.488101724 236.50300326 c 0
EndSplineSet
EndChar

StartChar: greater
Encoding: 62 62 32
Width: 406
GlyphClass: 1
Flags: W
LayerCount: 2
Fore
SplineSet
114.934438754 87.7201029332 m 0
 94.734159124 87.7201029332 80.4665335616 105.066695552 80.4665335616 123.537329603 c 0
 80.4665335616 137.66301878 88.5858969615 147.102901081 94.1660551707 151.120614992 c 0
 105.487546244 159.272088564 134.157340882 174.608801129 166.976747282 192.329029291 c 0
 215.382863422 218.465011519 272.878632724 250.282431445 283.765911182 260.907303661 c 0
 292.944318157 271.168942492 312.88925026 303.421613248 315.851833834 317.549490678 c 1
 301.541921954 326.244327174 82.1838599465 414.10318344 42.0560452006 428.089666763 c 0
 41.6188699264 428.133299643 10.8307273526 436.149897468 10.8307273526 463.525161147 c 0
 10.8307273526 482.239730358 26.3786739918 500 49 500 c 0
 65.5991839013 500 80.2817724985 500 91.5440222955 484.292323917 c 1
 138.438733779 467.503835098 323.680441293 394.831583171 361.855701346 371.75074661 c 0
 384.728226962 359.997577918 386.154700538 335.438206531 386.154700538 318.064392104 c 0
 386.154700538 294.714419025 375.917441728 273.636472261 359.525210297 245.769678828 c 0
 350.958530394 232.443732312 339.361629638 215.977959015 324.470836024 203.378056726 c 0
 306.882713489 188.428152572 250.498483297 158.06777626 162.953675421 110.928827972 c 1
 154.535994918 98.2895715615 132.676250199 87.7201029332 114.934438754 87.7201029332 c 0
EndSplineSet
EndChar

StartChar: question
Encoding: 63 63 33
Width: 406
GlyphClass: 1
Flags: W
LayerCount: 2
Fore
SplineSet
173.348620339 207.723981755 m 0
 173.348620339 178.966846171 186.378293432 148.400118713 186.378293432 135.244198887 c 0
 186.378293432 113.749414847 170.122746 98.0678009841 151.373430271 98.0678009841 c 0
 133.418236276 98.0678009841 116 112.39593193 116 134 c 2
 116 134.498002152 l 1
 109.104386477 157.172938712 103.612370408 181.643799451 103.612370408 206.304840305 c 0
 103.612370408 222.05888104 105.073337289 251.994645955 125.331786539 286.986512576 c 0
 128.524740674 292.520966409 152.799451425 333.770633595 181.314539748 359.434213086 c 0
 201.800701239 377.871758428 225.579902972 391.721339403 245.065973346 411.20280049 c 0
 270.86001353 436.041505852 291.147401274 467.827142778 304.680702901 501.632054567 c 0
 311.051337765 518.368184012 315.018394961 547.756913628 315.786040879 551.182006926 c 0
 315.786040879 558.978032759 315.622357845 579.143454546 291.047920489 611.938140037 c 0
 269.837548678 639.200320832 235.196657175 678.051062794 210.03522752 678.051062794 c 0
 190.250887766 678.051062794 149.053604261 637.703187622 123.579718214 612.551755829 c 0
 118.396881453 607.434524596 113.188033851 602.290749559 107.905466142 597.19013103 c 1
 117.916421933 590.476629385 122.880938111 579.669827189 122.880938111 569.124019847 c 0
 122.880938111 551.836620761 109.781127128 533.597102562 87.8955502141 533.597102562 c 0
 74.8690347015 533.597102562 15.3047017021 545.796537554 15.3047017021 587.212954748 c 0
 15.3047017021 605.538389639 24.972038188 615.284175601 32.3995189162 621.513975807 c 0
 47.194718323 635.208283196 116.673309222 702.958489379 131.760126874 714.812417534 c 0
 152.590186225 731.476465015 179.18856253 746.855673949 207.594134185 747.991896815 c 2
 207.796713809 748 l 1
 208 748 l 2
 259.911447207 748 299.380006541 708.392806545 330.500109421 673.61151398 c 0
 350.135972938 651.357535326 385.356136704 611.441349725 385.356136704 551.696782771 c 0
 385.356136704 522.763698974 375.971497766 464.997533548 317.046712603 387.064752745 c 0
 299.065440456 362.737149252 276.177324504 344.13221406 252.833944829 326.879385008 c 0
 228.851392872 309.611947599 207.817727296 287.624970603 192.581287964 262.865756688 c 0
 175.689703845 234.71311649 173.348620339 221.393016701 173.348620339 207.723981755 c 0
211.591905812 -23.6408099777 m 0
 211.591905812 -50.4833409379 195.650892455 -72.3935853278 172.509924301 -72.3935853278 c 0
 153.509849115 -72.3935853278 136.727197801 -56.8149172451 136.727197801 -37.1988940218 c 0
 136.727197801 -32.4376872865 137.755268724 -27.5749448723 139.884189558 -22.8856502843 c 0
 139.762709591 -21.0214488484 139 -18.5403976094 139 -15 c 0
 139 6.37347814772 155.781095721 19.5125066802 173.209237692 19.5125066802 c 0
 187.273760996 19.5125066802 211.591905812 9.77868770933 211.591905812 -23.6408099777 c 0
EndSplineSet
EndChar

StartChar: at
Encoding: 64 64 34
Width: 678
GlyphClass: 1
Flags: W
LayerCount: 2
Fore
SplineSet
244 -51.9968261497 m 2
 195.122224692 -51.9968261497 155.255592175 -27.4865752418 141.268574985 -18.6884303875 c 0
 98.0254279118 8.5124707581 76.866796535 23.5930627949 57.5949267768 78.5951112981 c 0
 43.1620294923 117.084852351 26.2083969731 163.596288741 26.2083969731 205.015633444 c 0
 26.2083969731 252.210765961 44.456070546 298.993984042 65.1447173803 338.647223808 c 0
 109.780586936 423.455375963 131.768589761 442.521932471 188.755932535 480.215351129 c 0
 196.942873831 485.630479975 196.942873831 485.630479975 197.154165715 485.747864354 c 0
 205.402615575 490.330336499 256.004357807 525.442415517 260.154165715 527.747864354 c 0
 294.682272368 546.930145829 316.396403643 544.306038509 371.460305061 568.412041215 c 0
 388.60716095 575.918631627 406.93569348 584.197353347 427.60966251 584.992506002 c 2
 427.804506452 585 l 1
 428 585 l 2
 453.700268429 585 475.698459869 571.122741246 495.048447985 559.431141888 c 0
 497.735625661 557.807502399 500.379859757 556.210000778 502.980618357 554.672344865 c 0
 544.222087706 531.532308222 586.47035347 504.952965551 616.879156361 466.155528978 c 0
 634.944772385 443.071686281 652.044506915 413.392396429 652.044506915 381.592758088 c 0
 652.044506915 356.263397971 648.043373803 334.936341188 638.677074199 301.465950867 c 0
 632.706747406 276.931134103 618.511196106 222.685410753 602.892213489 192.423631932 c 0
 581.888386699 151.728717525 544.593047719 105.218275543 518.158359204 86.7712115596 c 1
 527.98487717 80.312968997 533.876255319 68.6187341659 533.876255319 56.6995352838 c 0
 533.876255319 46.1363575331 529.329999698 35.1210406498 519.67097005 26.5525387419 c 0
 503.721032956 12.1117178071 441.000942743 -12.2093087793 440.160612193 -12.4894189624 c 0
 421.72868681 -18.6333940902 402.707705551 -21.8518969166 383.903258176 -25.0741417267 c 0
 316.490750579 -36.625643263 291.213948884 -50.8228316517 244.254168966 -51.9968261497 c 1
 244 -51.9968261497 l 2
388.441277961 152.685196729 m 1
 372.720225734 134.387231119 348.055149638 111.881302664 309.316348208 111.881302664 c 0
 290.863903005 111.881302664 272.054250338 116.906307933 256.134541796 126.259979108 c 0
 230.407731422 139.895510263 213.149631887 167.582086071 208.31122197 176.049303426 c 0
 196.951741068 195.928395005 190.570960358 219.993985988 188.017532126 249.358410651 c 1
 188.008103185 249.594134185 l 2
 187.810135476 254.543326901 187.687623522 259.558203702 187.687623522 264.611968782 c 0
 187.687623522 272.252893979 188.237441872 306.891513192 197.891167148 328.129708798 c 0
 207.403092671 349.055944949 219.787652531 368.996189949 236.062846279 391.083952893 c 0
 264.43971877 426.555043506 286.711335177 443.279622366 337.446030801 468.722565221 c 0
 370.06497356 485.080634549 382.1642094 488.404958678 392.346356123 488.404958678 c 0
 415.288780348 488.404958678 433 470.398274036 433 447 c 0
 433 445.572941935 437.212161523 440.898623222 439.323906445 435.619260917 c 0
 445.104988484 420.753621388 456.888888889 384.157263291 456.888888889 332.740740741 c 0
 456.888888889 331.846905301 456.243667213 281.990820328 447.762232454 243.824363912 c 0
 445.370709717 233.062511596 443.175818487 222.125347784 443.175818487 212.351361493 c 0
 443.175818487 187.05424236 470.392009354 150.370238417 478.034125969 143.903243327 c 0
 478.147806677 143.977387061 478.147806677 143.977387061 487.421093341 151.538560938 c 0
 502.049219165 165.373696856 515.168961332 183.117248557 529.562402907 206.36819264 c 0
 551.630093108 239.949460337 561.087217836 277.69180702 572.98181163 325.161825181 c 0
 577.751794936 344.198304953 582 361.540331681 582 379 c 0
 582 388.839673747 577.192975921 399.248020024 571.293302148 410.077975288 c 0
 552.927399341 441.194814521 518.740609638 463.495033966 484.641728972 484.557169627 c 0
 458.089851779 501.45381875 458.089851779 501.45381875 448.991087359 506.300016155 c 0
 448.805212147 506.399017286 433.340982545 514.305569857 429.389596723 514 c 2
 429 514 l 2
 423.015447909 514 397.690901102 504.05089523 379.230546023 496.393257363 c 0
 348.104764394 483.481806689 323.754652158 481.720967337 299.46242045 469.049896668 c 0
 294.884718831 466.761045859 270.184634503 450.084253006 257.779175355 441.602832066 c 0
 248.117635644 434.997386493 245.806089059 433.491304747 232.957794487 425.258359585 c 0
 209.990818534 410.541553984 190.422008198 397.729361078 175.231496706 381.092134206 c 0
 165.026741743 370.887379243 157.035836424 358.406655615 147.620213197 341.929314969 c 0
 127.533229423 308.929270197 96 253.479029986 96 209 c 2
 96 208.662012754 l 2
 95.9192140215 207.450223077 95.844582472 206.134405011 95.844582472 204.219316764 c 0
 95.844582472 191.713937127 99.5301907149 177.551983443 102.677472765 166.536496269 c 0
 109.622396035 137.367818534 131.453730618 76.9667879343 142.850645469 66.2821802616 c 0
 158.943128349 51.1363140216 176.970770982 39.7100717184 197.46242045 29.9501033315 c 0
 211.601977808 22.9058184544 220.070135543 18.6870077833 242.629679556 18.6870077833 c 0
 266.017930111 18.6870077833 290.322072287 24.9907218967 315.16023503 31.5596645864 c 0
 376.594742018 47.807233288 380.486160132 42.9045558562 417.142975374 53.5854139792 c 0
 433.196094959 58.4774304436 448.939127403 66.0259317851 463.500955346 74.7295018673 c 1
 432.405093817 81.2424709283 414.045685249 109.268975242 402.590981178 127.587038702 c 0
 397.340362046 135.477615568 392.562810353 144.055877777 388.441277961 152.685196729 c 1
309.380118794 181.991624524 m 0
 320.733862011 181.991624524 325.731246678 187.840346458 337.184146232 201.244322596 c 0
 350.685646518 219.368124558 358.315435822 242.728206661 362.161418665 265.797548635 c 0
 365.170333775 282.346581738 368.047431568 299.557381083 368.047431568 316.024003673 c 0
 368.047431568 321.336726192 367.752485909 326.574111013 367.084375223 331.696292939 c 0
 361.769838505 370.515192095 358.621338782 372.130857451 354.642509508 399.568764326 c 1
 321.384476485 382.42013906 309.826683291 373.209157463 284.134752032 338.184672451 c 0
 270.409288964 318.562869717 261.103936534 282.504230879 258 275 c 1
 258 254.362695008 259.105343115 233.80900676 266.203510347 215.92233668 c 0
 272.492844773 202.207567017 279.334459709 196.050113574 286.685460252 189.434213086 c 0
 290.665604967 185.852082842 300.811668471 181.991624524 309.380118794 181.991624524 c 0
EndSplineSet
EndChar

StartChar: A
Encoding: 65 65 35
AltUni2: 0000c5.ffffffff.0 0000c4.ffffffff.0 0000c5.ffffffff.0 0000c4.ffffffff.0
Width: 518
GlyphClass: 1
Flags: HW
LayerCount: 2
Fore
SplineSet
42.990234375 -37.0185546875 m 0
 23.8193359375 -37.0185546875 1.1943359375 -24.310546875 1.1943359375 -6.6689453125 c 0
 1.1943359375 11.1962890625 9.6005859375 28.3759765625 24.33203125 34.8359375 c 1
 64.8173828125 147.899414062 93.3212890625 264.928710938 121.986750665 382.45703125 c 0
 163.459268481 542.174804688 180.299400381 603.780273438 205.866645749 658.390625 c 0
 227.07508254 700.229492188 245.363930048 720.287109375 275.63501677 720.287109375 c 0
 301.250798859 720.287109375 316.337277926 704.7421875 335.30247409 670.407226562 c 0
 348.920189773 643.274414062 359.758650605 612.620117188 364.708341002 596.848632812 c 0
 392.713867188 516.377929688 411.751953125 433.19921875 429.74609375 351.251953125 c 0
 440.938476562 305.674804688 499.614257812 31.8359375 508.782226562 -14.681640625 c 0
 509.416992188 -18.2138671875 509.735351562 -21.716796875 509.735351562 -25.158203125 c 0
 509.735351562 -40.111328125 490.913085938 -48.5927734375 474.095703125 -48.5927734375 c 0
 457.642578125 -48.5927734375 445.436523438 -40.85546875 441.461914062 -32 c 0
 436.28125 -15.732421875 422.6328125 51.884765625 414.85546875 90.091796875 c 0
 404.916015625 138.788085938 376.478495849 264.821289062 376.079650619 266.587890625 c 1
 370.058986921 265.650390625 362.653971528 264.462890625 354.283497445 263.120117188 c 0
 303.221811791 258.610351562 216.81378663 250.883789062 173.526417507 250.883789062 c 0
 169.901990623 250.883789062 166.554012019 250.9609375 163.443441289 251.166015625 c 0
 145.560825033 185.59765625 127.563197852 120.85546875 107.546875 56 c 0
 106.87109375 53.798828125 105.94921875 50.6103515625 104.849609375 46.8046875 c 0
 93.2451171875 9.8271484375 82.5712890625 -20.0087890625 70.0888671875 -29.00390625 c 0
 61.9716796875 -33.96484375 52.77734375 -37.0185546875 42.990234375 -37.0185546875 c 0
273.572206127 626.515625 m 1
 264.416703339 605.66015625 257.984532658 587.392578125 246.923435997 555.985351562 c 0
 236.841514926 524.577148438 192.402981398 357.046875 181.621498456 311.319335938 c 1
 220.302099667 314.596679688 305.283567288 328.275390625 360.057256954 335.325195312 c 1
 357.060642004 347.33203125 354.098846876 359.346679688 351.13916204 371.358398438 c 0
 318.400088569 502.221679688 305.924040976 539.32421875 291.105569021 579.85546875 c 0
 285.110228829 598.618164062 279.525340474 613.328125 273.572206127 626.515625 c 1
EndSplineSet
EndChar

StartChar: B
Encoding: 66 66 36
Width: 541
GlyphClass: 1
Flags: HW
LayerCount: 2
Fore
SplineSet
408.276367188 665.857421875 m 0
 439.389648438 632.857421875 482.604492188 549.072265625 482.604492188 495.390625 c 0
 482.604492188 441.127929688 428.081054688 396.126953125 388.118553326 370.844726562 c 1
 429.639648438 351.92578125 464.887695312 319.502929688 488.4609375 282.329101562 c 0
 506.41796875 253.897460938 518.555664062 225.649414062 518.555664062 201.258789062 c 0
 518.555664062 155.8359375 487.486328125 138.750976562 453.924804688 120.295898438 c 0
 412.525390625 96.0693359375 366.624548396 74.9814453125 319.571143093 54.9462890625 c 0
 238.418980156 19.986328125 163.906287499 -6.671875 101.749023438 1.0771484375 c 0
 92.3134765625 2.2568359375 82.1494140625 5.6474609375 72.8662109375 11.4169921875 c 0
 63.3828125 16.9306640625 59.90234375 26.3662109375 54.453125 32.37890625 c 0
 45.376953125 39.021484375 42 49.892578125 42 59 c 2
 42 59.248046875 l 1
 43.00390625 100.409179688 45.0126953125 142.547851562 48.025390625 183.721679688 c 0
 51.0087890625 225.478515625 52.353515625 267.549804688 53.701171875 309.78125 c 0
 58.201171875 450.811523438 64.240234375 582.403320312 111.049804688 674.462890625 c 0
 130.682617188 713.727539062 163.751608323 747.796875 223.984746164 747.796875 c 0
 291.063237602 747.796875 366.441066891 708.169921875 408.276367188 665.857421875 c 0
273.987723338 315.889648438 m 0
 247.664527862 306.416992188 196.048620247 287.84375 163.590528629 287.84375 c 0
 149.045898438 287.84375 133.353515625 292.336914062 124.451171875 308.899414062 c 1
 122.874023438 262.512695312 122.16015625 248.247070312 118.60546875 191.368164062 c 0
 116.188476562 152.706054688 113.784179688 114.186523438 113.017578125 75.8115234375 c 0
 115.150390625 73.8759765625 116.671875 72.0234375 118.877929688 69.85546875 c 0
 120.846679688 69.7646484375 122.818359375 69.7197265625 124.791992188 69.7197265625 c 0
 152.493164062 69.7197265625 181.68905896 79.2998046875 206.28838169 87.388671875 c 0
 263.19431712 106.098632812 320.067183209 130.217773438 388.150555914 163.682617188 c 0
 402.2421875 171.735351562 437.1640625 187.123046875 449.100585938 200.24609375 c 1
 445.87109375 217.055664062 426.087890625 267.885742188 374.7617398 297.473632812 c 0
 361.23957957 305.268554688 331.86440394 318.10546875 285.176894895 318.10546875 c 0
 280.146088044 318.10546875 280.146088044 318.10546875 273.987723338 315.889648438 c 0
411.079101562 488.528320312 m 0
 411.663085938 489.600585938 413.059570312 492.16015625 413.059570312 497.40234375 c 0
 413.059570312 503.095703125 413.059570312 503.095703125 408.392578125 519.217773438 c 0
 397.573184607 556.306640625 379.548260229 592.79296875 351.797749323 620.114257812 c 0
 324.028036864 646.2890625 267.361054092 678.319335938 226.797773659 678.319335938 c 0
 207.022307711 678.319335938 186.355036307 672.930664062 167.842605837 628.444335938 c 0
 138.04296875 552.866210938 130.037109375 469.895507812 125.694335938 345.723632812 c 1
 133.125976562 357.205078125 146.456054688 364.482421875 185.887798521 374.518554688 c 0
 186.636659083 374.702148438 231.484019311 385.668945312 262.004887595 387.998046875 c 0
 263.984781046 388.435546875 274.837925428 392.8828125 277.892039087 394.747070312 c 0
 328.577738141 416.400390625 392.306625357 450.013671875 411.079101562 488.528320312 c 0
EndSplineSet
EndChar

StartChar: C
Encoding: 67 67 37
Width: 485
GlyphClass: 1
Flags: HW
LayerCount: 2
Fore
SplineSet
404.646484375 103.350585938 m 0
 435.118164062 103.350585938 444.904296875 79.1953125 444.904296875 64.10546875 c 0
 444.904296875 43.0625 429.44921875 25.880859375 409.009765625 25.880859375 c 0
 404.21875 25.880859375 399.377929688 26.890625 394.896484375 29.0537109375 c 0
 361.608398438 17.9365234375 322.574320937 11.4296875 282.067461919 11.4296875 c 0
 244.708117356 11.4296875 207.475934115 16.970703125 173.364094106 29.82421875 c 0
 122.510742188 50.916015625 81.79296875 92.7431640625 60.740234375 142.219726562 c 0
 42.0751953125 187.844726562 36.05078125 236.9765625 32.029296875 284.223632812 c 0
 30.92578125 298.572265625 30.2685546875 313.182617188 30.2685546875 327.881835938 c 0
 30.2685546875 367.25390625 34.9697265625 407.313476562 48.6220703125 444.477539062 c 0
 66.1162109375 491.576171875 120.796875 602.763671875 234.166769741 653.006835938 c 0
 262.712856462 665.41796875 295.270502524 674.768554688 328.33462018 674.768554688 c 0
 369.032226562 674.768554688 394.622070312 657.59375 411.326171875 632.537109375 c 0
 447.60546875 578.118164062 447.791992188 539.826171875 459 515.168945312 c 1
 459 514.185546875 l 1
 460.428710938 510.283203125 465.211914062 499.9921875 465.489257812 499.16015625 c 0
 466.750976562 495.376953125 467.364257812 491.555664062 467.364257812 487.80859375 c 0
 467.364257812 467.799804688 450.42578125 452.6640625 432.01171875 452.6640625 c 0
 424.236328125 452.6640625 416.252929688 455.458007812 409.567382812 461.340820312 c 0
 391.985351562 475.514648438 381.315429688 534.280273438 371.7109375 558.291992188 c 0
 366.048828125 572.447265625 350.768554688 598.174804688 346.968644808 600.995117188 c 0
 346.695845731 601.173828125 342.136514537 604.043945312 329.592104374 604.043945312 c 0
 269.845845883 604.043945312 220.121421227 563.426757812 201.968870669 548.599609375 c 0
 161.654383909 515.668945312 121.500976562 448.958007812 108.66796875 402.4375 c 0
 102.39453125 378.739257812 100.134765625 354.336914062 100.134765625 329.516601562 c 0
 100.134765625 320.254882812 100.44921875 310.934570312 100.983398438 301.578125 c 2
 100.991210938 301.443359375 l 1
 100.991210938 301.307617188 l 2
 101.966796875 269.125 106.877929688 236.7265625 114.724609375 205.338867188 c 0
 120.610351562 180.814453125 128.361328125 157.2265625 141.9375 139.081054688 c 0
 163.923724441 112.90625 199.740830396 91.2919921875 235.501420207 84.8291015625 c 0
 250.661875706 82.453125 266.26685241 81.28125 281.950082237 81.28125 c 0
 295.206378438 81.28125 336.445773624 82.390625 370.819335938 95.10546875 c 0
 380.639648438 98.859375 391.76953125 103.350585938 404.646484375 103.350585938 c 0
EndSplineSet
EndChar

StartChar: D
Encoding: 68 68 38
Width: 539
GlyphClass: 1
Flags: HW
LayerCount: 2
Fore
SplineSet
59 54 m 0
 59 157.599609375 52.17578125 261.435546875 52.17578125 365.231445312 c 0
 52.17578125 420.092773438 54.10546875 475.001953125 60.0458984375 529.903320312 c 0
 62.216796875 554.404296875 70.173828125 643.659179688 106.1328125 687.9921875 c 0
 118.436523438 702.15625 145.202148438 724.180664062 194.988809345 724.180664062 c 0
 234.607698496 724.180664062 312.171348715 706.533203125 376.156674086 664.966796875 c 0
 421.796875 634.524414062 453.58984375 589.46875 476.034179688 543.975585938 c 0
 493.584960938 508.194335938 515.448242188 453.057617188 515.448242188 400.475585938 c 0
 515.448242188 369.637695312 505.80078125 334.89453125 505.6171875 334.250976562 c 0
 496.73828125 304.104492188 467.34765625 213.991210938 415.083007812 143.008789062 c 0
 386.4735018 106.06640625 345.8177886 73.1005859375 299.189626135 50.994140625 c 0
 246.395145443 25.5419921875 186.507845699 16.736328125 135.536132812 -4.7705078125 c 1
 132.392578125 -21.3525390625 117.365234375 -31.77734375 101.8515625 -31.77734375 c 0
 94.052734375 -31.77734375 86.0673828125 -29.201171875 79.423828125 -23.7900390625 c 0
 78.8349609375 -23.5908203125 78.0048828125 -23.2958984375 77.0263671875 -22.8212890625 c 0
 59.9912109375 -20.34375 48.8486328125 -9.794921875 48.8486328125 1.4921875 c 0
 48.8486328125 6.05859375 48.8486328125 15.8408203125 56.7216796875 29.36328125 c 0
 57.62109375 28.2724609375 58.3095703125 27.4365234375 58.3525390625 27.0390625 c 0
 58.9248046875 32.3193359375 59 49.8916015625 59 54 c 0
122.90234375 363.399414062 m 0
 122.90234375 288.012695312 128.6484375 140.3046875 128.97265625 68.041015625 c 1
 169.263148212 82.314453125 215.741356786 92.126953125 256.353154918 109.985351562 c 0
 347.515480868 149.346679688 384.976105086 222.1328125 408.856445312 271.053710938 c 0
 415.873046875 286.838867188 445.876953125 356.974609375 445.876953125 401.776367188 c 0
 445.876953125 437.384765625 430.706054688 474.576171875 414.814453125 510.079101562 c 0
 401.310546875 540.6796875 379.563840714 570.448242188 352.318289783 593.426757812 c 0
 301.214003666 635.049804688 226.546605746 654.453125 194.063379616 654.453125 c 0
 181.793938019 654.453125 165.2421875 654.453125 150.869140625 626.30078125 c 0
 141.393554688 604.397460938 136.202148438 576.10546875 132.88671875 556.83984375 c 0
 129.857421875 535.033203125 122.90234375 476.60546875 122.90234375 363.399414062 c 0
EndSplineSet
EndChar

StartChar: E
Encoding: 69 69 39
AltUni2: 0000cb.ffffffff.0 0000c8.ffffffff.0 0000cb.ffffffff.0 0000c8.ffffffff.0
Width: 465
GlyphClass: 1
Flags: HW
LayerCount: 2
Fore
SplineSet
371.219726562 90.2216796875 m 0
 379.6328125 91.384765625 404.598632812 98.1953125 416.53125 98.1953125 c 0
 436.456054688 98.1953125 455.079101562 82.638671875 455.079101562 61.7431640625 c 0
 455.079101562 42.6474609375 438.315429688 27.43359375 419.65625 27.43359375 c 0
 416.209960938 27.43359375 412.729492188 27.9443359375 409.318359375 28.9921875 c 0
 252.934610531 -2.8291015625 213.458695206 7.220703125 125.16015625 -19.4892578125 c 0
 117.010742188 -22.2060546875 108.20703125 -30 95 -30 c 0
 74.1298828125 -30 57.9462890625 -11.009765625 57.9462890625 9.263671875 c 0
 57.9462890625 10.0283203125 57.970703125 10.7958984375 58.01953125 11.5654296875 c 0
 58.025390625 11.6728515625 58.0341796875 11.7783203125 58.044921875 11.8818359375 c 0
 62.2900390625 55.1904296875 63.8515625 98.8505859375 63.8515625 142.728515625 c 0
 63.8515625 202.942382812 60.908203125 263.568359375 57.958984375 324.239257812 c 0
 54.552734375 396.01953125 53.0791015625 427.065429688 51.7861328125 501.53125 c 0
 51.083984375 542.142578125 50.1572265625 591.920898438 49.0498046875 602.995117188 c 0
 49.01953125 603.271484375 47.115234375 623.282226562 47.115234375 630.75 c 0
 47.115234375 664.077148438 63.4970703125 675.676757812 97.9853515625 684.587890625 c 0
 149.510742188 697.903320312 269.944395557 698.745117188 271.783500963 698.745117188 c 0
 305.400662779 698.745117188 336.165039062 698.745117188 354.775390625 674.295898438 c 0
 360.967773438 667.127929688 373.489257812 645.873046875 373.489257812 631.396484375 c 0
 373.489257812 610.92578125 355.96484375 595.780273438 337.526367188 595.780273438 c 0
 318.156892985 595.780273438 307.564577036 609.211914062 307.375012826 609.462890625 c 0
 304.477230106 613.291992188 301.374363299 620.66015625 295.896955334 629.626953125 c 0
 294.320579272 629.803710938 291.856244541 630 289.298790549 630 c 0
 287.914195821 630 281.136443889 629.954101562 274.639158303 629 c 2
 273.69022869 629 l 2
 219.330751467 629 164.123046875 628.047851562 118.110351562 617.426757812 c 1
 119.465820312 605.499023438 119.911132812 593.578125 120.356445312 582.075195312 c 0
 120.547851562 577.137695312 120.736328125 572.278320312 120.986328125 567.533203125 c 2
 120.997070312 567.331054688 l 1
 120.997070312 567.126953125 l 2
 121.961914062 490.037109375 122.931640625 413.065429688 126.586914062 336.208984375 c 1
 128.357421875 336.537109375 244.763395371 353 324.772794773 353 c 0
 335.846679688 353 355.485351562 353 362.506835938 350.3671875 c 0
 377.822265625 344.624023438 385.370117188 330.556640625 385.370117188 317.174804688 c 0
 385.370117188 305.627929688 378.7421875 285.6875 354.772460938 282 c 1
 354 282 l 2
 352.857421875 282 325.090952248 283 324.772794773 283 c 0
 265.293975315 283 205.260874542 275.80859375 147.390625 268.30859375 c 1
 143.423828125 262.314453125 137.879882812 257.864257812 131.385742188 255.311523438 c 1
 132.515625 229.598632812 133.736328125 173.834960938 133.736328125 124.612304688 c 0
 133.736328125 96.390625 133.40625 70.75 132.284179688 53.6015625 c 1
 175.604607011 66.2421875 293.431512041 74.8955078125 371.219726562 90.2216796875 c 0
EndSplineSet
EndChar

StartChar: F
Encoding: 70 70 40
Width: 457
GlyphClass: 1
Flags: HW
LayerCount: 2
Fore
SplineSet
125.25390625 384.318359375 m 1
 196.094471847 388.040039062 282.975884149 415.146484375 329.466305181 415.146484375 c 0
 345.041992188 415.146484375 366.79296875 411.666015625 377.75390625 393.85546875 c 0
 381.991210938 385.379882812 383.965820312 376.171875 383.965820312 365.891601562 c 0
 383.965820312 361.559570312 383.588867188 357.327148438 382.84375 353.233398438 c 0
 379.516601562 334.6015625 364.596679688 324.373046875 349.54296875 324.373046875 c 0
 336.999023438 324.373046875 323.274896373 331.25390625 315.717100048 343.934570312 c 1
 248.635562664 334.540039062 219.298679655 320.668945312 122.928710938 313.502929688 c 1
 121.872070312 219.26953125 120.708984375 136.408203125 114.944335938 50.4765625 c 0
 113.662109375 43.2392578125 114.588867188 21.4560546875 111.196289062 14.0068359375 c 0
 105.076171875 3.716796875 91.609375 -1.626953125 78.4609375 -1.626953125 c 0
 65.0576171875 -1.626953125 51.36328125 4.1298828125 45.7255859375 15.2294921875 c 0
 43.2177734375 19.7900390625 43.19921875 24.599609375 43.19921875 30.2587890625 c 0
 43.19921875 30.36328125 43.19921875 30.4677734375 43.19921875 30.5732421875 c 0
 43.19921875 50.724609375 47 81.35546875 47 90 c 2
 47 90 47 91.6875 47 90.5693359375 c 1
 47 90.9462890625 47.0068359375 91.13671875 47.0068359375 90.759765625 c 2
 47.1650390625 94.94140625 56.7392578125 465.526367188 60.029296875 509.008789062 c 0
 63.1923828125 547.467773438 67.255859375 596.877929688 108.499023438 620.86328125 c 0
 123.7578125 631.043945312 132.754882812 634.028320312 172.489102415 644.00390625 c 0
 212.423522998 653.418945312 307.043365174 669.754882812 370.49609375 669.754882812 c 0
 392.28125 669.754882812 411.484375 668.004882812 425.462890625 661.96484375 c 0
 442.032226562 655.48828125 451.591796875 642.65625 451.591796875 629.793945312 c 0
 451.591796875 620.274414062 449.497070312 603.997070312 437.107421875 590.9375 c 0
 429.990234375 585.069335938 420.02734375 577 407 577 c 2
 406.610351562 577 l 2
 402.002929688 577.354492188 382.029296875 580.044921875 374.91796875 600.193359375 c 0
 374.53125 600.193359375 374.14453125 600.196289062 373.7578125 600.196289062 c 0
 341.19140625 600.196289062 246.087853903 587.953125 195.172465022 576.5390625 c 0
 163.912887494 571.528320312 144.184570312 563.791992188 142.24609375 561.609375 c 0
 141.719726562 560.892578125 130.278320312 547.026367188 127.991210938 475.565429688 c 0
 125.25390625 384.318359375 125.25390625 384.318359375 125.25390625 384.318359375 c 1
EndSplineSet
EndChar

StartChar: G
Encoding: 71 71 41
Width: 546
GlyphClass: 1
Flags: HW
LayerCount: 2
Fore
SplineSet
418.709960938 331 m 1
 419 331 l 2
 429.3515625 331 451.009765625 332.881835938 471.552734375 332.881835938 c 0
 490.229492188 332.881835938 512.594726562 331.462890625 522.6640625 322.454101562 c 0
 531.685546875 314.380859375 535.944335938 303.655273438 535.944335938 293.03515625 c 0
 535.944335938 268.297851562 513.811523438 246.86328125 493.872070312 246.86328125 c 0
 481.991210938 246.86328125 470.798828125 252.827148438 463.658203125 261.981445312 c 1
 452.662109375 261.908203125 385.800003942 260.129882812 384.975027823 260.118164062 c 1
 391.473560933 241.568359375 394.99817118 221.836914062 394.99817118 202.18359375 c 0
 394.99817118 187.278320312 392.9937535 172.541015625 388.613573391 158.350585938 c 0
 372.378845139 103.60546875 296.988476363 32.693359375 235.97083731 25.08984375 c 0
 235.832637986 25.0712890625 229.822549815 24.400390625 222.099212007 24.400390625 c 0
 161.299948986 24.400390625 122.4453125 61.1181640625 96.9375 97.0830078125 c 0
 56.82421875 149.69921875 26.802734375 217.447265625 26.802734375 302.352539062 c 0
 26.802734375 347.55078125 35.236328125 393.001953125 50.6484375 434.547851562 c 0
 70.4169921875 486.568359375 107.58984375 532.923828125 151.297904762 565.971679688 c 0
 183.27153163 588.424804688 217.420479159 606.778320312 253.642416552 622.032226562 c 0
 324.36987683 654.732421875 370.715178464 654.939453125 386.47939604 654.939453125 c 0
 386.93619228 654.939453125 417.220703125 654.481445312 430.749023438 650.6171875 c 0
 442.255859375 647.329101562 466.168945312 632.5078125 468.326171875 630.743164062 c 0
 478.76953125 622.198242188 484.23046875 608.262695312 484.23046875 594.887695312 c 0
 484.23046875 570.0625 465.00390625 558.661132812 449.134765625 558.661132812 c 0
 435.829101562 558.661132812 422.258789062 566.36328125 416.802734375 581.021484375 c 1
 416.802734375 580.9453125 416.799804688 580.870117188 416.799804688 580.793945312 c 1
 416.596679688 580.938476562 408.258976569 585.264648438 390.359526686 585.264648438 c 0
 343.828552677 585.264648438 294.760407868 564.572265625 250.393149997 542.169921875 c 0
 218.859440062 526.6015625 189.527424705 507.19140625 164.4795884 484.02734375 c 0
 131.458007812 450.510742188 97.275390625 393.209960938 97.275390625 301.861328125 c 0
 97.275390625 294.09375 97.5146484375 286.396484375 97.9775390625 278.673828125 c 0
 102.358398438 212.956054688 159.902131393 94.255859375 218.830956232 94.255859375 c 0
 241.250895462 94.255859375 265.172038039 114.20703125 275.807056267 123.348632812 c 0
 295.400766569 140.091796875 319.949608367 163.956054688 319.949608367 204.4375 c 0
 319.949608367 230.379882812 308.819815459 249.899414062 304.908036112 253.696289062 c 0
 298.276578461 258.702148438 280.073301056 257.809570312 268.109037419 265.930664062 c 0
 257.427601097 273.181640625 252.178136689 284.259765625 252.178136689 295.16015625 c 0
 252.178136689 314.135742188 266.980233778 324.706054688 271.827759694 326.950195312 c 0
 280.153477763 330.803710938 288.661703337 331.111328125 295.53369111 331.111328125 c 0
 296.251061648 331.111328125 304.644296944 331 304.736078175 331 c 0
 305.040960653 331 305.040960653 331 305.040960653 331 c 2
 321.229270812 330.524414062 350.769112634 329.845703125 371.222612624 329.845703125 c 0
 387.132414221 329.845703125 402.90190658 330.15234375 418.421875 330.983398438 c 2
 418.709960938 331 l 1
EndSplineSet
EndChar

StartChar: H
Encoding: 72 72 42
Width: 511
GlyphClass: 1
Flags: HW
LayerCount: 2
Fore
SplineSet
361 144 m 0
 361 164.825195312 369.3046875 214.44921875 369.3046875 251.512695312 c 0
 369.3046875 268.8828125 366.671875 282.223632812 363.801757812 286.274414062 c 0
 363.229492188 286.797851562 357.648504626 288.633789062 348.871504077 288.633789062 c 0
 316.833166963 288.633789062 166.756903799 262.3828125 129.459960938 259 c 1
 129 259 l 2
 128.611328125 259 128.201171875 258.998046875 127.76953125 258.998046875 c 0
 127.494140625 258.998046875 127.209960938 258.999023438 126.91796875 259.000976562 c 0
 126.892578125 256.620117188 123.366210938 47.8193359375 118.86328125 20.990234375 c 0
 116.071289062 8.404296875 101.143554688 -4.259765625 81.626953125 -4.259765625 c 0
 62.169921875 -4.259765625 45.9658203125 7.7509765625 45.9658203125 21.9990234375 c 0
 45.9658203125 29.0546875 47.2890625 36.287109375 50.046875 43.1884765625 c 0
 50.3017578125 51.4521484375 52 81.640625 52 86 c 2
 52 86 52 87.666015625 52 86.5615234375 c 1
 52 86.9345703125 52.0068359375 87.123046875 52.0068359375 86.7509765625 c 2
 58.001953125 247.438476562 61.0009765625 408.16796875 63 568.939453125 c 0
 63 576.755859375 63.8662109375 598.411132812 63.8662109375 618.403320312 c 0
 64.5703125 633.466796875 65.2392578125 646.795898438 68.6328125 654.916992188 c 0
 72.3056640625 662.732421875 79.2333984375 670.471679688 88.8427734375 674.918945312 c 0
 93.931640625 677.3125 105.416992188 678.946289062 107.083984375 678.953125 c 0
 126.353515625 679.038085938 142.483398438 667.166015625 142.483398438 653.38671875 c 0
 142.483398438 643.749023438 140.478515625 633.944335938 134.702148438 625.6953125 c 1
 133.978515625 617.16015625 133 582.166992188 133 582 c 0
 133 581.389648438 133 581.389648438 133 581.389648438 c 2
 132.626953125 569.091796875 128.361328125 331.630859375 128.305664062 329.108398438 c 1
 131.786132812 329.635742188 162.998046875 333.805664062 163.346679688 333.86328125 c 0
 163.421875 333.876953125 163.498046875 333.888671875 163.575195312 333.899414062 c 0
 210.873682034 339.998046875 303.036540388 358.129882812 344.710426703 358.129882812 c 0
 358.335125918 358.129882812 370.973632812 356.825195312 382.82421875 353.060546875 c 1
 387.131835938 389.979492188 396.887695312 508.323242188 397.030273438 509.890625 c 0
 398.0859375 525.331054688 402.291992188 587.833007812 408.546875 604.905273438 c 0
 413.8046875 615.696289062 427.001953125 621.189453125 440.102539062 621.189453125 c 0
 457.258789062 621.189453125 474.815429688 611.752929688 477.8828125 595.92578125 c 0
 479.142578125 588.51171875 481 563 481 556 c 2
 481 556 481 550.447265625 481 554.129882812 c 2
 480.157226562 545.693359375 477.333984375 533.390625 468.586914062 523.442382812 c 1
 468.586914062 516.37109375 453.94140625 363.884765625 453.94140625 363.884765625 c 2
 453.701171875 361.733398438 432.153320312 149.918945312 431.995117188 148.493164062 c 0
 431.633789062 131.299804688 416.569335938 119.412109375 396.4375 119.412109375 c 0
 379.426757812 119.412109375 361 128.213867188 361 144 c 0
EndSplineSet
EndChar

StartChar: I
Encoding: 73 73 43
AltUni2: 0000cf.ffffffff.0 0000ce.ffffffff.0 0000cc.ffffffff.0 0000cf.ffffffff.0 0000ce.ffffffff.0 0000cc.ffffffff.0
Width: 315
GlyphClass: 1
Flags: HW
LayerCount: 2
Fore
SplineSet
140.19140625 747.009765625 m 0
 141.008789062 747.015625 219.004882812 748 222 748 c 0
 228.505859375 748 263.482421875 750 270 750 c 2
 270.290039062 750 l 1
 270.290039062 740 270.578125 739.983398438 270.578125 749.983398438 c 2
 292.77734375 748.747070312 305.271484375 732.537109375 305.271484375 716.189453125 c 0
 305.271484375 698.99609375 291.553710938 681.796875 268 681.796875 c 0
 260.133789062 681.796875 173.82421875 678.287109375 172.873046875 678.25390625 c 1
 185.747070312 638.380859375 189 596.20703125 189 556.107421875 c 0
 189 410.448242188 172.899414062 240.180664062 171.005859375 96.603515625 c 1
 186.985351562 102.641601562 202.706054688 111.397460938 218.614257812 120.313476562 c 0
 243.095703125 134.037109375 247.583007812 136.551757812 258.146484375 136.551757812 c 0
 278.185546875 136.551757812 292.954101562 120.341796875 292.954101562 102.807617188 c 0
 292.954101562 91.55078125 286.583007812 80.31640625 274.076171875 73.2138671875 c 0
 211.595703125 36.6904296875 191.859375 30.9326171875 173.580078125 26.18359375 c 0
 171.775390625 25.71484375 170.000976562 25.2529296875 168.25390625 24.7822265625 c 0
 167.381835938 14.9501953125 167.381835938 14.9501953125 166.205078125 12.4951171875 c 0
 160.598632812 -1.7177734375 147.979492188 -9.158203125 135.239257812 -9.158203125 c 0
 120 -9.158203125 105.015625 0.97265625 100.4140625 17.4150390625 c 1
 92.2392578125 17.7548828125 66.72265625 20.0029296875 66.3818359375 20.02734375 c 0
 63.25 18.47265625 67.4423828125 19.5361328125 62.3251953125 17.78125 c 0
 58.2724609375 16.3916015625 54.1376953125 15.7138671875 50.0615234375 15.7138671875 c 0
 31.091796875 15.7138671875 15 30.5302734375 15 50.265625 c 0
 15 66.8212890625 28.3740234375 85.1220703125 45.087890625 87.984375 c 0
 47.990234375 88.580078125 50.6669921875 88.619140625 53.939453125 88.619140625 c 0
 58.6845703125 88.619140625 58.6845703125 88.619140625 100.342773438 85.576171875 c 1
 101.671875 114.594726562 104.982421875 220.764648438 105 221.276367188 c 2
 105 224.458984375 105 224.720703125 105 221.544921875 c 1
 106.268554688 266.749023438 108.961914062 311.850585938 111.642578125 356.853515625 c 0
 115.330078125 418.731445312 119 480.422851562 119 541.919921875 c 0
 119 598.342773438 117.270507812 622.830078125 106.939453125 655.411132812 c 0
 104.709960938 662.439453125 103.077148438 667.58984375 98.443359375 671.44921875 c 0
 96.6474609375 674.065429688 95.501953125 676.008789062 95.47265625 676.0546875 c 0
 90.255859375 676.206054688 88.7275390625 676.25 86 676.25 c 0
 82.3076171875 676.25 78.7783203125 675.884765625 77.9814453125 675.796875 c 0
 72.9794921875 673.23828125 62.2919921875 671.516601562 60.9287109375 671.510742188 c 0
 40.720703125 671.426757812 26.1572265625 688.8671875 26.1572265625 707.13671875 c 0
 26.1572265625 721.3828125 36.7490234375 744.801757812 72.5322265625 744.999023438 c 0
 83.8408203125 745.999023438 95.7099609375 746 106.504882812 746 c 0
 106.807617188 746.120117188 107.516601562 746.412109375 108.510742188 746.880859375 c 0
 112.022460938 748.5390625 115.91015625 750.375 124.5 750.375 c 0
 129.893554688 750.375 135.170898438 749.184570312 140.19140625 747.009765625 c 0
EndSplineSet
EndChar

StartChar: J
Encoding: 74 74 44
Width: 522
GlyphClass: 1
Flags: HW
LayerCount: 2
Fore
SplineSet
336.179898936 56.279296875 m 0
 317.177691053 30.650390625 275.483218225 -20.732421875 176.40888675 -20.732421875 c 0
 158.564447486 -20.732421875 114.735351562 -18.8173828125 85.76953125 -0.5224609375 c 0
 70.8232421875 8.6748046875 58.7880859375 23.0615234375 51.0498046875 38.537109375 c 0
 40.2626953125 60.1123046875 24.7412109375 110.46875 24.7412109375 144.3515625 c 0
 24.7412109375 151.541992188 25.3935546875 158.180664062 27.5166015625 164.18359375 c 0
 32.4326171875 179.622070312 46.4970703125 190.5703125 62.3828125 190.5703125 c 0
 68.3330078125 190.5703125 74.3857421875 188.986328125 79.9560546875 185.6875 c 0
 95.935546875 176.87109375 109.141601562 152.4375 109.141601562 137.224609375 c 0
 109.141601562 128.017578125 105.7265625 118.969726562 99.2197265625 112.0234375 c 1
 104.9296875 86.52734375 116.801757812 62.203125 122.951171875 58.6884765625 c 0
 132.047851562 53.5615234375 147.013194363 48.8984375 171.395061367 48.8984375 c 0
 198.750120478 48.8984375 227.843418504 55.48828125 243.136537512 65.1923828125 c 0
 281.589258205 90.6123046875 321.851058449 163.478515625 321.851058449 252.297851562 c 0
 321.851058449 295.314453125 313.604996838 338.740234375 303.682021043 382.068359375 c 0
 293.375237021 430.619140625 270.541290802 529.80859375 250.526167542 558.360351562 c 1
 231.661411641 561.790039062 220.467533672 577.329101562 220.467533672 592.875976562 c 0
 220.467533672 596.958984375 221.181226657 600.842773438 222.514510884 604.442382812 c 1
 180.095771842 597.516601562 136.298828125 590.629882812 91.708984375 586.393554688 c 1
 84.8359375 579.596679688 76.138671875 575 66 575 c 0
 56.4697265625 575 20.08984375 584.23046875 20.08984375 614.977539062 c 0
 20.08984375 629.180664062 28.0859375 644.15234375 43.1865234375 650.247070312 c 0
 48.8896484375 652.651367188 65.578125 654.870117188 93.2333984375 656.970703125 c 0
 191.146911214 664.111328125 306.07580018 698.12890625 426.50390625 698.12890625 c 0
 487.446289062 698.12890625 521.931640625 686.985351562 521.931640625 647.80859375 c 0
 521.931640625 647.670898438 521.921875 638.057617188 519.108398438 631.870117188 c 0
 512.954101562 618.330078125 501.491210938 608.288085938 490.423828125 601.592773438 c 0
 484.772460938 597.7109375 471.744140625 594.955078125 469.75 594.9375 c 0
 451.86328125 594.778320312 436.93359375 608.85546875 434.81640625 627.249023438 c 0
 432.159179688 627.2890625 429.501953125 627.30859375 426.842773438 627.30859375 c 0
 383.012961254 627.30859375 339.764223704 622.583984375 296.256442033 616.193359375 c 1
 324.571550375 593.559570312 339.685981806 544.499023438 350.758267637 507.567382812 c 0
 364.571134529 459.48046875 397.303738115 336.1875 397.303738115 249.509765625 c 0
 397.303738115 213.862304688 391.072934028 127.321289062 336.179898936 56.279296875 c 0
EndSplineSet
EndChar

StartChar: K
Encoding: 75 75 45
Width: 455
GlyphClass: 1
Flags: HW
LayerCount: 2
Fore
SplineSet
442.864257812 65.78125 m 0
 443.2734375 62.095703125 443.337890625 60.0458984375 443.337890625 57.9697265625 c 0
 443.337890625 26.986328125 421.271484375 18.0673828125 408.373046875 18.0673828125 c 0
 390.41796875 18.0673828125 373 32.3955078125 372.950195312 54.021484375 c 0
 371.836914062 58.427734375 367.956054688 64.8994140625 362.485351562 73.755859375 c 0
 341.176757812 108.254882812 303.804318547 144.516601562 130.732421875 284.7578125 c 1
 130.555664062 265.782226562 130.498046875 246.786132812 130.440429688 227.76953125 c 0
 129.9296875 59.318359375 126.60546875 19.0556640625 112.63671875 2.5458984375 c 0
 105.284179688 -6.142578125 94.7275390625 -10.15625 84.478515625 -10.15625 c 0
 73.1162109375 -10.15625 61.3896484375 -5.2294921875 53.97265625 5.0361328125 c 0
 44.30859375 17.60546875 38.123046875 33.9580078125 38.123046875 49.2021484375 c 0
 38.123046875 62.5439453125 44.193359375 76.591796875 58.32421875 81.9375 c 1
 60.701171875 140.502929688 61.111328125 198.766601562 61.111328125 257.258789062 c 0
 61.111328125 260.079101562 61 346.737304688 61 347.641601562 c 0
 57.03515625 354.862304688 51.5947265625 359.873046875 49.6318359375 365.484375 c 0
 48.0009765625 369.516601562 47.2177734375 373.69921875 47.2177734375 377.826171875 c 0
 47.2177734375 388.810546875 52.6279296875 398.780273438 60.998046875 405.345703125 c 1
 60.98046875 436.790039062 60.7822265625 543.809570312 59.03515625 562.16015625 c 0
 57.3779296875 582.045898438 53.5390625 596.959960938 53.5390625 603.908203125 c 0
 53.5390625 624.98828125 71.689453125 638.3125 89.107421875 638.3125 c 0
 100.21484375 638.3125 111.733398438 632.794921875 118.586914062 621.125976562 c 0
 129.9453125 602.489257812 130 531.985351562 130 531.077148438 c 0
 130 531.021484375 130.515625 462.96484375 130.806640625 424.608398438 c 1
 189.556087524 484.998046875 208.347470526 504.578125 222.002416253 519.534179688 c 0
 303.896536651 609.236328125 338.4140625 646.7265625 350.197265625 655.142578125 c 0
 357.353515625 660.254882812 366.9140625 667 379 667 c 0
 403.956054688 667 418.288085938 646.2578125 418.288085938 627.48828125 c 0
 418.288085938 609.865234375 405.873046875 595.712890625 386.856445312 593.586914062 c 1
 339.856445312 540.215820312 300.703345925 490.494140625 244.8058423 434.172851562 c 0
 239.63496212 429.627929688 190.872695391 382.701171875 160.71182015 352.13671875 c 1
 176.375565053 339.598632812 192.137083368 327.120117188 207.914156544 314.62890625 c 0
 269.363634441 265.975585938 330.11328125 217.155273438 380.270507812 163.86328125 c 0
 400.44140625 142.505859375 432.981445312 105.3125 442.864257812 65.78125 c 0
EndSplineSet
EndChar

StartChar: L
Encoding: 76 76 46
Width: 405
GlyphClass: 1
Flags: HW
LayerCount: 2
Fore
SplineSet
65.9599609375 137.200195312 m 0
 65.9599609375 142.627929688 66 158.905273438 66 159.124023438 c 0
 63.0068359375 277.19140625 55.0341796875 394.3515625 45.0556640625 512.596679688 c 0
 42.837890625 527.517578125 42.564453125 535.028320312 40.4306640625 550.176757812 c 1
 35.3876953125 558.993164062 33.056640625 568.885742188 33.056640625 578.45703125 c 0
 33.056640625 593.170898438 48.642578125 607.206054688 69.228515625 607.206054688 c 0
 75.8486328125 607.206054688 100.892578125 605.041992188 108.811523438 572.9765625 c 0
 121.263671875 509.989257812 134.985351562 200.8515625 135.999023438 138.325195312 c 1
 135.999023438 138.645507812 135.999023438 138 135.999023438 138 c 2
 135.999023438 128.146484375 136.805664062 82.13671875 138.052734375 60.37109375 c 1
 173.388681849 68.341796875 211.97423983 73.091796875 250.442471028 77.845703125 c 0
 306.501953125 85.1982421875 366.720703125 95.7158203125 369.33203125 95.978515625 c 2
 369.33203125 105.973632812 369.671875 105.984375 369.671875 95.9892578125 c 2
 370.127929688 96.0078125 370.58203125 96.0166015625 371.034179688 96.0166015625 c 0
 393.158203125 96.0166015625 405.499023438 73.166015625 405.499023438 51.3984375 c 0
 405.499023438 38.5205078125 392.796875 28.3681640625 377.046875 26 c 0
 353.446289062 21.080078125 188.021172029 -1.2998046875 162.567011571 -6 c 2
 162.567011571 -15.1484375 162.471539778 -15.1630859375 162.471539778 -5.9833984375 c 2
 157.819877936 -6.8095703125 153.13485848 -7.890625 148.9921875 -9.0205078125 c 0
 140.5703125 -11.0703125 131.431640625 -13.3994140625 121.163085938 -13.3994140625 c 0
 96.4248046875 -13.3994140625 79.7626953125 -0.7998046875 73.5517578125 14.099609375 c 0
 68.07421875 28.9228515625 65.9599609375 70.107421875 65.9599609375 137.200195312 c 0
EndSplineSet
EndChar

StartChar: M
Encoding: 77 77 47
Width: 751
GlyphClass: 1
Flags: HW
LayerCount: 2
Fore
SplineSet
732.25 30.625 m 0
 732.25 13.2333984375 713.08984375 3.783203125 696.3671875 3.783203125 c 0
 686.728515625 3.783203125 676.827148438 6.7841796875 670.09765625 13.1201171875 c 0
 661.3125 21.8671875 655.515625 28.974609375 655.515625 37.6005859375 c 0
 655.515625 44.7509765625 656.947265625 51.201171875 658.720703125 56.8662109375 c 0
 652.553710938 96.9892578125 647.118164062 116.405273438 635.170898438 183.092773438 c 0
 615.208984375 283.239257812 592.454732851 383.185546875 561.333323457 480.970703125 c 0
 561.292552607 481.087890625 561.251781756 481.205078125 561.211010906 481.323242188 c 1
 540.079479135 452.032226562 524.629365369 420.127929688 505.657669399 380.903320312 c 0
 495.886935097 359.45703125 474.794135633 299.458007812 452.471075759 253.7109375 c 0
 437.793569609 228.418945312 421.056116242 200.87109375 387.592421491 200.87109375 c 0
 376.633216899 200.87109375 365.958388988 204.092773438 356.864450803 210.041015625 c 0
 333.953271411 227.305664062 317.94051991 277.266601562 297.115788788 348.478515625 c 0
 286.841534483 384.833007812 277.540684232 420.65625 251.739870817 497.692382812 c 0
 245.873964713 515.3515625 240.017232051 532.936523438 233.058667156 549.919921875 c 1
 210.647949953 494.7421875 169.521373866 365.853515625 145.962957224 291.526367188 c 0
 139.021719941 270.733398438 133.604492188 254.329101562 130.489257812 245.000976562 c 0
 130.088867188 243.82421875 92.951171875 134.80859375 88.326171875 128.009765625 c 0
 87.798828125 127.108398438 86.365234375 122.702148438 85.74609375 120.762695312 c 0
 88.3681640625 114.297851562 89.609375 107.36328125 89.609375 100.555664062 c 0
 89.609375 87.830078125 75.1396484375 76 55 76 c 0
 28.412109375 76 14.9375 94.904296875 14.9375 111.614257812 c 0
 14.9375 112.76171875 14.962890625 113.91015625 15.013671875 115.05859375 c 0
 16.197265625 138.022460938 40.2666015625 193.828125 53.470703125 236.080078125 c 0
 53.91796875 237.452148438 141.653478335 512.880859375 142.557571943 515.68359375 c 0
 168.489871351 593.43359375 192.419302731 640.763671875 232.749827964 640.763671875 c 0
 246.285750302 640.763671875 269.57406006 638.336914062 290.612838147 599.991210938 c 0
 311.915607489 556.532226562 321.49064171 524.426757812 358.500381176 400.333984375 c 0
 368.513702038 366.055664062 381.763209152 320.767578125 390.552385231 292.067382812 c 1
 397.705630937 308.340820312 417.210405776 358.860351562 417.482551202 359.534179688 c 0
 432.210001644 396.827148438 449.079960276 433.224609375 469.185085887 467.715820312 c 0
 492.597746739 507.125976562 524.704791442 561.171875 568.830063577 561.171875 c 0
 572.884724651 561.171875 591.759589852 560.515625 605.035598019 548.78125 c 0
 614.541992188 540.451171875 618.82421875 530.157226562 622.736328125 521.357421875 c 0
 634.094726562 493.147460938 677.116210938 334.021484375 708.84765625 172.646484375 c 0
 709.077148438 171.337890625 729.9609375 59.1904296875 732 41.76171875 c 1
 732 45.2314453125 732 40 732 40 c 2
 732 37.3056640625 732.25 34.0234375 732.25 30.625 c 0
EndSplineSet
EndChar

StartChar: N
Encoding: 78 78 48
AltUni2: 0000d1.ffffffff.0 0000d1.ffffffff.0
Width: 654
GlyphClass: 1
Flags: HW
LayerCount: 2
Fore
SplineSet
92.1728515625 589.958007812 m 1
 97.4306640625 608.719726562 112.397460938 656.6171875 157.746603211 656.6171875 c 0
 175.866651863 656.6171875 193.316277338 652.462890625 198.906240959 649.000976562 c 0
 215.876844935 636.236328125 228.077925999 617.33984375 228.302434995 616.979492188 c 0
 260.690702841 561.499023438 390.469317823 231.866210938 440.620696055 116.419921875 c 1
 471.422916476 215.775390625 493.12786684 317.734375 509.207677057 419.9140625 c 0
 516.13671875 466.857421875 522.052734375 513.642578125 526.005859375 561.267578125 c 0
 526.204101562 578.376953125 529.720703125 616.947265625 530.458984375 620.013671875 c 0
 533.35546875 630.537109375 538.984375 650.840820312 563.14453125 659.859375 c 0
 569.34375 662.143554688 582.969726562 663.600585938 584.556640625 663.604492188 c 0
 606.434570312 663.65625 629.283203125 654.000976562 629.283203125 638.1171875 c 0
 629.283203125 626.200195312 628.185546875 618.708984375 625.837890625 604.061523438 c 1
 622.004882812 602.119140625 622.004882812 602.119140625 620.241210938 600.602539062 c 0
 616.337890625 575.110351562 609.012695312 485.780273438 608.860351562 484.625 c 0
 587.337890625 300.811523438 555.700195312 153.461914062 514.971679688 25.3544921875 c 0
 508.689340619 10.6826171875 491.186950358 -26.7158203125 449.326885926 -26.7158203125 c 0
 434.838296151 -26.7158203125 415.004943824 -23.5068359375 404.83168595 -15.5771484375 c 0
 376.930494216 11.873046875 342.723393121 90.9697265625 294.706402257 212.216796875 c 0
 293.58489188 215.005859375 213.869713818 410.787109375 170.679149069 509.4609375 c 1
 169.843189305 505.01171875 168.853073594 499.73046875 167.672590808 493.428710938 c 0
 164.021474462 464.342773438 138.225585938 164.393554688 137.921875 161.071289062 c 0
 134.806640625 123.74609375 125.846679688 87.9833984375 122.93359375 51.98046875 c 0
 121.583007812 38.8359375 101.967773438 27.943359375 77.0283203125 27.943359375 c 0
 52.6533203125 27.943359375 32.7763671875 38.4619140625 32.7763671875 52.763671875 c 0
 32.7763671875 74.8310546875 43.8232421875 131.719726562 45.203125 141.696289062 c 0
 48.91015625 167.303710938 62.1044921875 328.57421875 64.0517578125 356.448242188 c 0
 71.919921875 463.651367188 76.935546875 505.794921875 90.9072265625 592.33203125 c 1
 90.9072265625 587.625976562 92.1728515625 585.251953125 92.1728515625 589.958007812 c 1
EndSplineSet
EndChar

StartChar: O
Encoding: 79 79 49
AltUni2: 0000d8.ffffffff.0 0000d6.ffffffff.0 0000d2.ffffffff.0 0000d8.ffffffff.0 0000d6.ffffffff.0 0000d2.ffffffff.0
Width: 682
GlyphClass: 1
Flags: HW
LayerCount: 2
Fore
SplineSet
213.189342791 650.467773438 m 0
 263.979436118 690.600585938 292.742498786 708.185546875 332.654003418 708.185546875 c 0
 375.067315657 708.185546875 390.174978881 690.96484375 399.734170481 674.293945312 c 0
 400.643637799 674.301757812 401.552075143 674.305664062 402.459482513 674.305664062 c 0
 440.551022534 674.305664062 480.527415548 668.529296875 522.308323559 653.758789062 c 0
 591.524414062 628.137695312 626.344726562 603.08203125 642.744140625 511.203125 c 0
 648.731445312 474.084960938 651.936523438 436.240234375 651.936523438 398.592773438 c 0
 651.936523438 297.8671875 634.1015625 208.176757812 532.948242188 73.9365234375 c 0
 488.663182647 19.57421875 410.325396342 -51.296875 302.261521387 -51.296875 c 0
 246.493562205 -51.296875 195.277059512 -33.919921875 142.36328125 27.5361328125 c 0
 97.4033203125 83.3701171875 39.6337890625 188.815429688 29.1748046875 272.344726562 c 0
 27.203125 286.905273438 26.263671875 301.637695312 26.263671875 316.40234375 c 0
 26.263671875 365.555664062 36.6513671875 414.989257812 54.458984375 459.5078125 c 0
 89.1376953125 544.965820312 161.184909749 609.375976562 213.189342791 650.467773438 c 0
289.017081695 476.610351562 m 0
 267.951017069 476.610351562 239.47634721 490.543945312 239.47634721 523.043945312 c 0
 239.47634721 525.819335938 239.626723459 528.712890625 239.905846498 531.690429688 c 1
 213.928864348 509.9375 189.940762596 486.959960938 169.653358551 461.611328125 c 0
 129.811523438 409.396484375 120.231445312 309.713867188 115.963867188 296.268554688 c 1
 115.963867188 251.740234375 133.982421875 204.840820312 156.370809809 162.048828125 c 0
 187.401875914 107.83203125 233.640512752 41.580078125 279.249835284 30.3828125 c 0
 286.605911828 28.9296875 294.382217892 28.212890625 302.27182113 28.212890625 c 0
 346.650324358 28.212890625 393.42248789 47.9736328125 459.557138534 122.2265625 c 0
 494.283752474 163.02734375 522.698683823 206.370117188 542.373046875 253.272460938 c 0
 556.120117188 288.294921875 561.017578125 326.96875 562 366.6953125 c 0
 561.99609375 418.043945312 559.341796875 448.510742188 554.924804688 472.0234375 c 0
 549.454101562 501.733398438 546.948242188 508.051757812 540.622070312 519.098632812 c 0
 527.346957898 541.9140625 449.45721042 565 401.67773201 565 c 0
 382.570678527 565 364.923098647 563.619140625 352.491308688 558.2890625 c 0
 345.276338625 554.16015625 342.433609521 542.806640625 339.708297488 525.608398438 c 0
 339.22626951 522.565429688 338.726731968 519.405273438 338.13037684 516.159179688 c 0
 334.716011993 490.142578125 310.665081808 476.610351562 289.017081695 476.610351562 c 0
EndSplineSet
EndChar

StartChar: P
Encoding: 80 80 50
Width: 446
GlyphClass: 1
Flags: HW
LayerCount: 2
Fore
SplineSet
77.65234375 7.8779296875 m 0
 56.1767578125 7.8779296875 43.2734375 20.314453125 43.2734375 32.8017578125 c 0
 43.2734375 42.78515625 45.7939453125 53.03125 51.0859375 61.806640625 c 0
 51.103515625 61.349609375 51.1123046875 60.8232421875 51.1123046875 60.240234375 c 0
 51.1123046875 101.403320312 46 238.66796875 46 263 c 0
 46 375.083984375 50.9013671875 491.138671875 90.6328125 596.99609375 c 0
 99.90625 620.243164062 113.291015625 645.15625 134.475585938 661.926757812 c 0
 165.613561392 687.403320312 211.159180791 701.149414062 254.619429669 709.948242188 c 0
 262.922586023 711.842773438 271.694668938 712.725585938 280.49267808 712.725585938 c 0
 325.10546875 712.725585938 350.575195312 688.9921875 385.104492188 644.912109375 c 0
 402.575195312 621.926757812 432.907226562 577.985351562 432.907226562 525.219726562 c 0
 432.907226562 452.765625 386.17578125 400.15625 326.223632812 362.471679688 c 0
 296.834092371 346.127929688 173.415101594 296.984375 131.125976562 296.984375 c 0
 128.392578125 296.984375 123.2109375 296.985351562 116.627929688 300.0078125 c 1
 116.577148438 294.602539062 116.555664062 289.178710938 116.555664062 283.741210938 c 0
 116.555664062 282.435546875 117 210.484375 117 209.744140625 c 0
 117.923828125 190.938476562 121.159179688 96.1181640625 121.159179688 60.8505859375 c 0
 121.159179688 56.68359375 121.116210938 53.4501953125 120.989257812 51.0380859375 c 0
 119.944335938 32.1982421875 106.54296875 7.8779296875 77.65234375 7.8779296875 c 0
128.518554688 378.662109375 m 0
 135.743164062 378.662109375 142.999023438 376.5078125 149.21875 372.146484375 c 1
 187.556168179 383.001953125 224.519078851 394.390625 259.450725913 409.981445312 c 0
 286.296771492 420.8828125 323.7265625 440.9296875 346.807617188 472.734375 c 0
 357.327148438 488.256835938 363.165039062 506.822265625 363.165039062 525.1875 c 0
 363.165039062 535.33984375 361.389648438 541.095703125 359.358398438 547.678710938 c 0
 350.284179688 578.21484375 299.337664223 642.657226562 281.090108554 642.657226562 c 0
 280.408136032 642.657226562 251.171241332 639.204101562 216.398533321 624.86328125 c 0
 204.88165191 620.752929688 191.318852935 615.44140625 182.163512735 609.049804688 c 0
 153.298828125 585.9375 130.38671875 482.379882812 122.922851562 417.749023438 c 0
 122.346679688 413.14453125 120.495117188 393.044921875 119.233398438 377.462890625 c 1
 122.270507812 378.259765625 125.393554688 378.662109375 128.518554688 378.662109375 c 0
EndSplineSet
EndChar

StartChar: Q
Encoding: 81 81 51
Width: 605
GlyphClass: 1
Flags: HW
LayerCount: 2
Fore
SplineSet
545.430664062 -221.193359375 m 0
 533.541992188 -204.068359375 465.799617293 -90.708984375 397.180851625 8.626953125 c 1
 357.969386153 -35.0693359375 305.139119396 -88.001953125 245.959785353 -91.974609375 c 0
 245.922376773 -91.9775390625 244.258734101 -92.0634765625 241.672346462 -92.0634765625 c 0
 212.192307362 -92.0634765625 183.368996662 -80.5673828125 159.930443192 -66.5888671875 c 0
 126.66015625 -47.8603515625 96.4833984375 -20.8720703125 76.3740234375 11.9404296875 c 0
 55.0517578125 48.1884765625 49.0673828125 90.7734375 46.03515625 131.158203125 c 0
 41.4150390625 181.341796875 38.9609375 231.971679688 38.9609375 282.490234375 c 0
 38.9609375 396.444335938 47.0322265625 476.530273438 90.6982421875 540.57421875 c 0
 126.696289062 594.056640625 179.178196602 639.12109375 239.250140923 668.888671875 c 0
 269.806715819 683.7421875 304.59669499 694.068359375 339.441747903 694.068359375 c 0
 341.124094865 694.068359375 342.806441826 694.043945312 344.487749661 693.995117188 c 0
 355.260381503 693.846679688 375.640783578 690.463867188 384.53259516 685.688476562 c 0
 388.66728235 683.467773438 404.277051379 673.453125 404.277051379 648.811523438 c 0
 404.277051379 623.159179688 382.201832816 605.063476562 360.121418616 605.063476562 c 0
 347.49186644 605.063476562 335.421364707 611.506835938 328.645216135 623.716796875 c 1
 317.756202045 622.852539062 306.446341433 620.064453125 295.296506412 616.064453125 c 1
 425.302751455 596.072265625 510.409179688 555.356445312 552.010742188 466.341796875 c 0
 572.939453125 424.416992188 580 375.971679688 580 330 c 0
 580 281.688476562 568.208984375 233.576171875 517.326171875 158.462890625 c 0
 496.112304688 126.642578125 471.895137538 94.8212890625 446.298316842 64.7275390625 c 1
 480.041894907 19.263671875 509.399414062 -27.955078125 537.881835938 -74.8193359375 c 0
 564.252929688 -118.2109375 571.740234375 -130.1171875 571.950195312 -130.537109375 c 0
 575.25390625 -137.14453125 598.19921875 -175.0859375 602.926757812 -181.889648438 c 0
 608.4765625 -188.541015625 611.137695312 -196.288085938 611.137695312 -203.833984375 c 0
 611.137695312 -222.236328125 595.924804688 -238.592773438 576.677734375 -238.592773438 c 0
 564.963867188 -238.592773438 550.859375 -231.229492188 545.430664062 -221.193359375 c 0
125.653320312 74.6171875 m 0
 139.764648438 20.99609375 211.366201226 -22.310546875 241.594411921 -22.310546875 c 0
 267.088359023 -22.310546875 322.756482206 32.330078125 353.423204586 69.3642578125 c 1
 267.230719452 189.721679688 259.024731832 201.180664062 259.024731832 216 c 0
 259.024731832 237.8828125 278.557206099 250.5546875 296.87182327 250.5546875 c 0
 309.609444677 250.5546875 323.018342264 244.517578125 330.181046159 231.615234375 c 0
 334.599415079 223.772460938 334.599415079 223.772460938 402.352587776 126.357421875 c 1
 435.878988253 167.586914062 439.941975665 173.427734375 462.925391415 206.461914062 c 0
 503.985351562 266.662109375 510.49609375 295.505859375 510.49609375 329.557617188 c 0
 510.49609375 365.420898438 504.780273438 421.372070312 472.806452106 462.120117188 c 0
 445.486758487 498.798828125 398.441312938 530.12890625 278.769188051 547.077148438 c 1
 271.374758787 536.659179688 259.299061417 531.494140625 247.67018875 531.494140625 c 0
 229.695366178 531.494140625 211.12200633 544.079101562 211.12200633 565.911132812 c 0
 211.12200633 566.3359375 211.128241094 566.76171875 211.142788875 567.188476562 c 1
 179.16053144 542.215820312 151.684570312 511.595703125 134.950195312 476.537109375 c 0
 119.103515625 444.844726562 109.18359375 401.416015625 109.18359375 289.5859375 c 0
 109.18359375 288.78515625 109.204101562 242.115234375 110.454101562 209.53125 c 0
 112.225585938 163.340820312 114.07421875 117.37109375 125.653320312 74.6171875 c 0
EndSplineSet
EndChar

StartChar: R
Encoding: 82 82 52
Width: 448
GlyphClass: 1
Flags: HW
LayerCount: 2
Fore
SplineSet
392.084960938 598.181640625 m 0
 403.223632812 574.047851562 411.306640625 547.795898438 411.306640625 520.666015625 c 0
 411.306640625 418.205078125 299.710762017 356.641601562 190.990277074 349.650390625 c 1
 235.692990099 286.872070312 371.802734375 95.9736328125 394.326171875 63.537109375 c 0
 417.240234375 29.166015625 436.287109375 5.548828125 464.015625 -33.01953125 c 0
 469.568359375 -40.1728515625 482.561523438 -57.3466796875 482.561523438 -75.8662109375 c 0
 482.561523438 -95.783203125 466.75390625 -117.708984375 436.689453125 -118.033203125 c 0
 416.68359375 -118.033203125 402.8203125 -101.560546875 402.8203125 -83.857421875 c 0
 402.8203125 -79.6123046875 403.604492188 -75.3046875 405.2265625 -71.1484375 c 0
 395.59375 -58.6357421875 386.71484375 -46.2041015625 377.91015625 -33.876953125 c 0
 282.073757434 84.048828125 210.432824508 200.48828125 122.62890625 323.088867188 c 1
 123.998046875 241.188476562 124 159.52734375 124 78.638671875 c 2
 124 88.638671875 124 88 124 78 c 2
 124 54.4619140625 106.493164062 41 89 41 c 0
 71.5068359375 41 54 54.4619140625 54 78 c 0
 54 251.499023438 52.8017578125 307.790039062 50.97265625 362.650390625 c 0
 50.40625 379.62890625 49.845703125 396.399414062 49.845703125 413.154296875 c 0
 49.845703125 425.627929688 50.1572265625 438.090820312 51.017578125 450.610351562 c 0
 56.11328125 549.115234375 62.3056640625 651.280273438 122.775390625 711.915039062 c 0
 134.49609375 724.6640625 149.668945312 736.7890625 167.927734375 742.518554688 c 0
 177.152866892 745.331054688 197.664356715 747.021484375 198.739836977 747 c 0
 227.487958311 747 253.448766058 733.692382812 286.875825838 713.194335938 c 0
 331.911970434 684.239257812 370.205078125 644.025390625 392.084960938 598.181640625 c 0
332.832721013 480.201171875 m 0
 337.131373125 489.298828125 339.340084869 499.544921875 339.340084869 509.609375 c 0
 339.340084869 520.501953125 335.574269483 556.19140625 291.985174318 604.608398438 c 0
 276.071989162 621.228515625 247.467701054 645.89453125 217.236571983 660.288085938 c 0
 205.339820714 665.952148438 201.185001829 667.23828125 198.770347056 667.23828125 c 0
 184.922040417 667.23828125 165.55859375 648.791992188 156.752929688 632.158203125 c 0
 141.499023438 605.889648438 124.049804688 559.514648438 120.143554688 427.9140625 c 1
 126.518554688 423.491210938 131.265625 417.22265625 136.408203125 414.013671875 c 0
 146.470703125 410.116210938 157.293945312 408.662109375 168.677734375 408.662109375 c 0
 172.103448924 408.662109375 175.712355335 408.776367188 179.355040762 408.98046875 c 2
 179.553356272 408.991210938 l 1
 179.753851072 408.991210938 l 1
 255.722856542 410.83203125 313.978582233 446.764648438 332.832721013 480.201171875 c 0
EndSplineSet
EndChar

StartChar: S
Encoding: 83 83 53
Width: 525
GlyphClass: 1
Flags: HW
LayerCount: 2
Fore
SplineSet
58.625 51.25 m 1
 62.8623046875 51.25 62.8623046875 51.25 80.7216796875 49.955078125 c 0
 82.943359375 49.8193359375 255.027440276 29.7275390625 316.773277072 29.7275390625 c 0
 321.186114549 29.7275390625 325.575654108 29.8037109375 329.941895749 29.9794921875 c 2
 329.941895749 49.826171875 330.19181887 49.8671875 330.19181887 30 c 1
 330.441741991 30 l 2
 345.158613221 30 359.792882742 30.953125 371.452431727 35.1640625 c 0
 395.438476562 44.685546875 433.780273438 87.20703125 438.194335938 108.9296875 c 0
 439.376953125 114.198242188 439.880859375 119.518554688 439.880859375 124.935546875 c 0
 439.880859375 136.7890625 439.521484375 142.000976562 432.171875 180.103515625 c 2
 432.171875 178.129882812 432.15234375 178.2421875 432.15234375 179.991210938 c 2
 429.233398438 198.798828125 424.48046875 216.291015625 414.27734375 226.999023438 c 0
 376.783418974 256.701171875 230.916213092 250.91796875 156.719757093 289.45703125 c 0
 113.916015625 313.610351562 78.580078125 354.07421875 61.68359375 399.358398438 c 0
 53.998046875 418.109375 52 438.369140625 52 458 c 2
 52 458.282226562 l 1
 52.015625 458.5625 l 2
 54.1064453125 494.749023438 65.529296875 529.465820312 80.830078125 561.861328125 c 0
 96.740234375 598.291992188 116.1875 626.42578125 139.95690506 646.904296875 c 0
 181.360482414 677.58984375 217.380122708 678.087890625 247.10614814 678.087890625 c 0
 263.702737758 678.087890625 335.408434519 677.1171875 368.774230148 660.779296875 c 0
 373.806580446 658.053710938 390.931640625 648.506835938 397.489257812 631.998046875 c 0
 400.536132812 623.499023438 403 598.248046875 403 590 c 0
 403 560.655273438 384.051310408 544.500976562 365.416152961 544.500976562 c 0
 349.185976054 544.500976562 331.976227593 556.83984375 328.448711001 581.295898438 c 0
 327.291228073 585.310546875 328.070649331 591.495117188 326.683364211 600.504882812 c 1
 315.465416673 604.756835938 257.187792676 608 236.097881864 608 c 0
 226.125313945 608 216.962878175 607.244140625 208.004828687 604.549804688 c 0
 193.586594406 598.432617188 180.558822234 586.34765625 169.084597597 573.356445312 c 0
 156.874370549 557.041015625 148.504063993 539.500976562 139.817117551 520.213867188 c 0
 129.1328125 497.650390625 121.916015625 473.892578125 121.916015625 450.755859375 c 0
 121.916015625 410.774414062 165.98809249 349.85546875 237.714969176 333.6875 c 0
 294.095930844 319.689453125 352.883991045 316.952148438 408.16015625 300.489257812 c 0
 411.405273438 299.408203125 443.47265625 288.434570312 461.8203125 271.310546875 c 0
 464.81640625 268.63671875 486.35546875 248.529296875 495.663085938 215.15625 c 0
 503.8359375 183.666015625 509 150.984375 509 119 c 0
 509 82.408203125 485.65234375 49.8779296875 484.2890625 48.009765625 c 0
 473.178710938 32.357421875 434.997070312 -21.431640625 386.434052026 -34.0009765625 c 0
 365.740205821 -38.939453125 344.367543004 -40.5322265625 323.074304907 -40.5322265625 c 0
 284.680394965 -40.5322265625 251.030788335 -37.35546875 87.21484375 -21.5361328125 c 1
 80.279296875 -28.5322265625 71.3798828125 -31.923828125 62.423828125 -31.923828125 c 0
 36.43359375 -31.923828125 18.7236328125 -12.3349609375 16.0498046875 -7.990234375 c 0
 13.3525390625 -4.03125 12.0673828125 0.1865234375 12.0673828125 4.3466796875 c 0
 12.0673828125 22.33984375 20.1357421875 40.1064453125 34.5234375 46.7841796875 c 0
 41.9541015625 50.0556640625 57.1201171875 51.2744140625 58.57421875 51.2744140625 c 2
 58.57421875 61.2744140625 58.625 61.25 58.625 51.25 c 1
EndSplineSet
EndChar

StartChar: T
Encoding: 84 84 54
Width: 458
GlyphClass: 1
Flags: HW
LayerCount: 2
Fore
SplineSet
352 -57.7041015625 m 0
 352 -74.4365234375 336.273741819 -88.9150390625 313.30132364 -88.9150390625 c 0
 298.277794436 -88.9150390625 283.452127188 -83.087890625 277.10656525 -72.9931640625 c 0
 272.948238184 -64.4716796875 271.769669148 -44.1611328125 271.769669148 -12.4462890625 c 0
 271.769669148 -6.9453125 271.859997432 6.9755859375 271.859997432 7.171875 c 0
 265.259580693 179.508789062 252.0641239 351.92578125 237.756768947 524.45703125 c 0
 229.657332832 619.357421875 229.657332832 619.357421875 228.9153505 623.70703125 c 2
 228.9153505 620.688476562 228.9153505 623.52734375 228.9153505 625.137695312 c 2
 228.649742332 624.69921875 227.287290718 624.4140625 224.434422421 623.977539062 c 0
 187.583708637 617.127929688 150.914726757 612.196289062 115.046875 607.298828125 c 0
 106.319335938 605.056640625 76.7314453125 602.3125 63.33203125 599.813476562 c 0
 62.4990234375 598.997070312 60.986328125 597.3125 57.96875 595.8046875 c 0
 52.005859375 589.97265625 37.0634765625 586.052734375 35.7578125 586.052734375 c 1
 35.7919921875 586.067382812 35.833984375 586.1640625 35.88671875 586.182617188 c 1
 17.767578125 586.182617188 0.96875 604.462890625 0.96875 631.258789062 c 0
 0.96875 652.87109375 29.751953125 665.423828125 50.3466796875 667.986328125 c 0
 50.859375 668.071289062 101.624023438 675.9921875 101.682617188 676 c 0
 198.602683925 687.885742188 295.692684981 709.688476562 387.166992188 731.650390625 c 0
 394.852539062 735.848632812 402.752929688 736.731445312 409.365234375 737.661132812 c 0
 421.817382812 739.364257812 421.817382812 739.364257812 423.706054688 739.364257812 c 0
 445.939453125 739.364257812 458.705078125 725.9765625 458.705078125 713.526367188 c 0
 458.705078125 688.45703125 443.602539062 672.263671875 429.653320312 669.272460938 c 0
 415.137695312 666.868164062 336.6070962 647.607421875 301.899528482 639.4921875 c 1
 303.914709481 635.26953125 307.003076518 623.176757812 307.033185946 623.010742188 c 0
 310.183922512 596.431640625 324.507407516 400.993164062 324.684838074 398.75 c 0
 336.76732137 252.120117188 344.936523438 105.48828125 349.944335938 -41.1435546875 c 0
 351.334960938 -46.4921875 352 -52.080078125 352 -57.7041015625 c 0
EndSplineSet
EndChar

StartChar: U
Encoding: 85 85 55
AltUni2: 0000dc.ffffffff.0 0000db.ffffffff.0 0000d9.ffffffff.0 0000dc.ffffffff.0 0000db.ffffffff.0 0000d9.ffffffff.0
Width: 586
GlyphClass: 1
Flags: HW
LayerCount: 2
Fore
SplineSet
486.444335938 622.741210938 m 0
 486.444335938 636.326171875 486 649.885742188 486 664 c 0
 486 668.970703125 485.111328125 688.7421875 485.111328125 703.704101562 c 0
 485.111328125 704.418945312 485.110351562 705.119140625 485.110351562 705.8046875 c 0
 485.110351562 712.298828125 485.159179688 717.483398438 486.172851562 721.91015625 c 0
 489.172851562 741.211914062 505.336914062 751.506835938 520.720703125 751.506835938 c 0
 535.21484375 751.506835938 551.376953125 742.184570312 554.865234375 722.6484375 c 2
 554.865234375 712.6484375 554.883789062 712.530273438 554.883789062 722.530273438 c 2
 557.244140625 707.185546875 555.884765625 643.889648438 556.997070312 629.431640625 c 1
 556.997070312 619.431640625 556.997070312 619.083984375 556.997070312 629.083984375 c 2
 557.016601562 626.626953125 557.030273438 624.169921875 557.030273438 621.7109375 c 0
 557.030273438 501.70703125 532.98828125 380.409179688 493.47265625 267.7890625 c 0
 474.259765625 211.162109375 448.896484375 155.23046875 411.18667412 106.008789062 c 0
 394.643913285 85.5048828125 375.431914752 65.279296875 350.631429576 52.173828125 c 0
 336.352426018 45.537109375 314.311518739 37 289.629736381 37 c 0
 250.912658906 37 213.352146053 53.0927734375 184.913892223 75.275390625 c 0
 149.772460938 101.822265625 128.206054688 139.215820312 111 175.637695312 c 0
 87.6123046875 222.436523438 70.4033203125 273.116210938 58.265625 324.704101562 c 0
 45.9990234375 376.8359375 43.0068359375 430.569335938 42.001953125 482.821289062 c 0
 41.0234375 538.577148438 40.0439453125 594.390625 40.0009765625 650.260742188 c 1
 34.97265625 656.783203125 32.7548828125 664.549804688 32.7548828125 672.114257812 c 0
 32.7548828125 683.841796875 42.0078125 705.860351562 47.5205078125 711.650390625 c 0
 54.3583984375 719.9375 64.025390625 723.848632812 73.416015625 723.848632812 c 0
 87.3583984375 723.848632812 101.436523438 715.318359375 106.489257812 700.16015625 c 0
 109.922851562 689.860351562 110.114257812 669.0390625 110.114257812 650.301757812 c 0
 110.114257812 647.950195312 110.111328125 645.631835938 110.111328125 643.370117188 c 0
 110.111328125 637.110351562 110 621.223632812 110 621 c 0
 110 579.998046875 110.00390625 540.172851562 111.98828125 499.494140625 c 2
 111.98828125 489.494140625 112 489.248046875 112 499.248046875 c 1
 112 489.248046875 112 489 112 499 c 2
 112 431.185546875 114.368164062 355.4453125 151.3671875 257.506835938 c 0
 167.261837799 217.840820312 186.261641915 177.90625 214.02339473 146.362304688 c 0
 233.132447457 124.857421875 263.224136997 107 289.629736381 107 c 0
 306.353177611 107 321.166869082 116.481445312 333.351240617 128.7734375 c 0
 382.063515536 177.912109375 410.75598248 244.452148438 433.254893552 309.190429688 c 0
 465.2421875 403.364257812 485.013671875 503.385742188 486.000976562 602.1015625 c 2
 486.000976562 592.1015625 486.000976562 592.29296875 486.000976562 602.29296875 c 1
 486.000976562 592.29296875 486.01171875 592.482421875 486.01171875 602.482421875 c 2
 486.334960938 609.274414062 486.444335938 615.999023438 486.444335938 622.741210938 c 0
EndSplineSet
EndChar

StartChar: V
Encoding: 86 86 56
Width: 518
GlyphClass: 1
Flags: HW
LayerCount: 2
Fore
SplineSet
3.2373046875 693.655273438 m 0
 2.765625 695.974609375 1.970703125 719.135742188 1.970703125 719.393554688 c 0
 1.970703125 735.274414062 17.8779296875 748.875976562 37.8740234375 748.875976562 c 0
 61.0439453125 748.875976562 70.1875 732.19140625 94.271484375 684.356445312 c 0
 95.068359375 682.6328125 134.053121974 602.375976562 178.229597586 511.986328125 c 0
 184.094859683 501.334960938 189.993836238 490.702148438 195.892812793 480.069335938 c 0
 266.326529646 338.328125 276.920244463 310.965820312 318.701939987 199.116210938 c 1
 332.591243064 280.2109375 359.521719885 452.206054688 364.868622192 486.5078125 c 0
 375.742588441 551.876953125 393.133980831 618.2734375 416.5546875 680.866210938 c 0
 419.958007812 690.908203125 427.342773438 712.133789062 436.40234375 731.190429688 c 0
 445.172851562 747.373046875 456.340820312 767.576171875 480.626953125 767.576171875 c 0
 499.6484375 767.576171875 515.576171875 756.206054688 515.576171875 742.626953125 c 0
 515.576171875 742.2890625 515.477539062 724.633789062 505.907226562 711.126953125 c 0
 491.37109375 688.606445312 457.17578125 582.731445312 450.790039062 553.853515625 c 0
 436.749023438 485.000976562 427.172851562 415.959960938 417.53125 346.405273438 c 0
 401.446289062 230.561523438 389.518105222 157.920898438 378.438691496 113.259765625 c 0
 370.05011294 88.49609375 368.092567229 82.7177734375 357.663210394 73.041015625 c 0
 349.361025137 66.8115234375 336.869818486 64.2529296875 325.255187741 64.2529296875 c 0
 304.787351068 64.2529296875 290.510331725 73 278.164518674 97.0908203125 c 0
 266.18956466 122.924804688 202.61673999 289.360351562 192.837440046 313.427734375 c 0
 172.806837749 359.034179688 50.5654296875 610.9140625 25.8935546875 659.451171875 c 1
 13.5009765625 665.205078125 5.7783203125 679.161132812 3.2373046875 693.655273438 c 0
EndSplineSet
EndChar

StartChar: W
Encoding: 87 87 57
Width: 693
GlyphClass: 1
Flags: HW
LayerCount: 2
Fore
SplineSet
619.887695312 728.845703125 m 0
 627.065429688 738.784179688 637.8828125 743.591796875 648.412109375 743.591796875 c 0
 666.072265625 743.591796875 683.780273438 730.171875 683.780273438 705.788085938 c 0
 683.780273438 692.407226562 678.533203125 678.513671875 669.618164062 669.411132812 c 1
 648.962890625 611.849609375 641.06640625 580.978515625 615.33984375 480.400390625 c 0
 593.939453125 396.740234375 564.224609375 280.533203125 556.253123169 254.189453125 c 0
 554.171232546 247.403320312 551.864162012 238.75 549.293016857 229.088867188 c 0
 534.887643879 174.967773438 513.478152153 95.037109375 466.289654898 95.037109375 c 0
 448.999931981 95.037109375 431.449205077 104.354492188 421.519794586 116.935546875 c 0
 406.534071568 135.352539062 400.622075382 155.141601562 392.485915812 182.375976562 c 0
 379.401939489 228.337890625 372.699766528 274.861328125 366.049794364 320.833984375 c 0
 363.16851506 340.760742188 360.297471206 360.5859375 356.94536118 380.227539062 c 1
 348.724247371 339.112304688 342.404880257 297.227539062 336.070159967 255.19140625 c 0
 324.262544317 176.830078125 320.912481381 157.034179688 315.359749507 136.798828125 c 0
 312.213372036 120.837890625 307.923694748 102.743164062 293.992223127 89.2392578125 c 0
 282.471200089 76.4560546875 259.872349019 76.2978515625 259.501825712 76.302734375 c 0
 229.915232613 76.302734375 213.055398616 112.770507812 204.097332373 135.561523438 c 0
 192.477025466 165.798828125 125.666015625 345.357421875 115.510742188 376.83984375 c 0
 105.927734375 405.587890625 50.5732421875 571.5390625 36.154296875 609.571289062 c 1
 22.0029296875 610.762695312 8.0673828125 625.873046875 8.0673828125 643.461914062 c 0
 8.0673828125 661.81640625 27.3701171875 685.095703125 34.26953125 688.810546875 c 0
 39.5029296875 691.62890625 45.15234375 692.956054688 50.7333984375 692.956054688 c 0
 64.3740234375 692.956054688 77.0498046875 685.267578125 84.431640625 673.377929688 c 0
 103.825195312 643.8671875 173.382792633 421.3828125 228.07285153 279.193359375 c 0
 231.223323182 269.422851562 249.936797258 220.975585938 255.112864555 207.60546875 c 1
 255.408669073 209.42578125 270.734209047 316.9296875 284.221462118 389.759765625 c 0
 292.750662986 435.811523438 306.149891183 506.091796875 330.143834151 523.897460938 c 0
 338.043554816 529.759765625 348.241134109 532.552734375 358.295417096 532.552734375 c 0
 365.203322611 532.552734375 372.311842956 531.201171875 378.798047912 527.486328125 c 0
 400.387683567 514.543945312 406.515647757 489.272460938 411.677385424 471.594726562 c 0
 434.913905058 388.962890625 439.187205625 301.548828125 458.981543269 219.044921875 c 0
 459.714401522 215.319335938 461.153505857 208.232421875 463.399163688 200.022460938 c 1
 486.840392331 273.283203125 552.148707535 515.462890625 553.003367648 518.66015625 c 0
 573.291015625 596.239257812 601.303710938 703.114257812 619.887695312 728.845703125 c 0
EndSplineSet
EndChar

StartChar: X
Encoding: 88 88 58
Width: 558
GlyphClass: 1
Flags: HW
LayerCount: 2
Fore
SplineSet
513.98828125 750.578125 m 0
 531.931640625 750.578125 553.807617188 741.19140625 553.807617188 713.115234375 c 0
 553.807617188 704.803710938 552.322265625 692.404296875 551.958984375 687.1796875 c 0
 550.154296875 661.82421875 534.388671875 645.293945312 517.250976562 645.293945312 c 0
 512.322265625 645.293945312 507.348632812 646.649414062 502.653320312 649.385742188 c 1
 492.607421875 635.748046875 476.798828125 613.157226562 473.204101562 608.483398438 c 0
 420.858080636 535.12109375 368.827815166 459.76171875 317.81281009 384.307617188 c 1
 355.679617981 311.7890625 416.293068397 190.659179688 443.995117188 136.75 c 0
 458.04296875 108.130859375 473.849609375 80.9833984375 489.788085938 53.6259765625 c 0
 519.966796875 -0.18359375 525.40625 -9.919921875 528.6171875 -21.50390625 c 0
 530.362304688 -28.3681640625 532.265625 -37.130859375 532.265625 -46.513671875 c 0
 532.265625 -61.5673828125 514.58984375 -70.7568359375 497.243164062 -70.7568359375 c 0
 487.905273438 -70.7568359375 466.647460938 -67.322265625 462 -49.10546875 c 1
 462 -46.5654296875 462 -35.09765625 462 -40.8837890625 c 1
 457.3125 -30.4921875 456.228515625 -28.6123046875 412.903290642 44.1337890625 c 0
 362.122495997 126.723632812 309.335228955 242.786132812 269.97219282 316.02734375 c 1
 236.831416839 271.129882812 200.93657713 223.4296875 155.843750094 168.68359375 c 0
 107.822265625 105.366210938 88.1611328125 76.2421875 83.958984375 66.4833984375 c 0
 83.21875 64.6201171875 81 59.0322265625 81 50.22265625 c 0
 81 46.3681640625 84.2724609375 33.3505859375 84.2724609375 25.5400390625 c 0
 84.2724609375 11.5966796875 68.3955078125 0.6298828125 48.982421875 0.6298828125 c 0
 35.7099609375 0.6298828125 21.755859375 6.0830078125 16.5498046875 17.09765625 c 0
 12.6640625 26.853515625 10.8271484375 37.2255859375 10.8271484375 47.6181640625 c 0
 10.8271484375 67.5859375 15.39453125 87.578125 24.244140625 104.74609375 c 0
 38.810546875 130.767578125 123.997070312 240.68359375 145.819752766 269.765625 c 0
 175.628258017 309.125976562 204.469599658 349.443359375 232.335413031 389.819335938 c 1
 209.028338403 434.930664062 95.9091796875 639.790039062 94.171875 642.01953125 c 0
 92.7783203125 641.80859375 91.3837890625 641.705078125 89.994140625 641.705078125 c 0
 72.9765625 641.705078125 56.21875 657.880859375 55.01953125 682.744140625 c 2
 55.01953125 682.120117188 55 682.435546875 55 683.059570312 c 1
 55 681.208007812 55 684 55 684 c 2
 55 684.331054688 56.1923828125 708.634765625 58.255859375 717.005859375 c 0
 62.681640625 731.234375 78.654296875 739.280273438 95.130859375 739.280273438 c 0
 107.899414062 739.280273438 120.8828125 734.407226562 129.291992188 724.955078125 c 0
 145.351331904 703.0703125 174.849299217 651.639648438 278.79586169 459.423828125 c 1
 341.296588123 549.3671875 409.477963089 641.89453125 410.792260017 643.741210938 c 0
 477.735351562 740.9375 491.955078125 750.578125 513.98828125 750.578125 c 0
EndSplineSet
EndChar

StartChar: Y
Encoding: 89 89 59
AltUni2: 000178.ffffffff.0 0000dd.ffffffff.0 000178.ffffffff.0 0000dd.ffffffff.0
Width: 487
GlyphClass: 1
Flags: HW
LayerCount: 2
Fore
SplineSet
447.853515625 714.424804688 m 0
 450.37890625 714.424804688 483.259765625 713.844726562 483.259765625 683.603515625 c 0
 483.259765625 683.268554688 482.663085938 662.8984375 478.2890625 650.578125 c 0
 460.487304688 606.641601562 348.821797205 419.224609375 312.310827116 363.3671875 c 1
 328.322314335 353.575195312 341.558007714 345.48046875 341.558007714 326.846679688 c 0
 341.558007714 308.797851562 325.959369156 291 302.89425055 291 c 0
 291.401695963 291 281.772827708 296.12890625 274.064185784 301.58203125 c 1
 237.562816827 241.13671875 209.445369387 175.716796875 173.908380765 114.063476562 c 0
 168.292785541 103 155.420868373 77.6376953125 155.420868373 49 c 0
 155.420868373 46.3056640625 155.891323824 43.865234375 156.995453964 41.765625 c 0
 158.641514646 36.5283203125 159.448009705 31.2138671875 159.448009705 26.00390625 c 0
 159.448009705 11.6943359375 140.539114312 1.25 120.953125 1.25 c 0
 106.188476562 1.25 83.0869140625 9.275390625 83 43.20703125 c 0
 82.8994140625 45.36328125 82.8486328125 47.5263671875 82.8486328125 49.6953125 c 0
 82.8486328125 86.3837890625 94.35546875 115.686523438 94.779296875 116.75390625 c 0
 102.891601562 136.020507812 114.083007812 154.4765625 121.779296875 172.75390625 c 0
 121.965820312 173.211914062 125.331054688 179.814453125 143.207162119 217.944335938 c 0
 172.510882714 278.06640625 194.150766665 316.05078125 216.775300007 352.120117188 c 1
 196.595854859 376.955078125 180.437150289 403.713867188 164.426729862 430.162109375 c 0
 77.8876953125 576.924804688 23.669921875 634.013671875 13.5458984375 650.16015625 c 0
 8.9013671875 658.848632812 6.798828125 669.21875 6.798828125 679.517578125 c 0
 6.798828125 698.344726562 26.087890625 706.75 42 706.75 c 0
 59.5078125 706.75 70.0009765625 698.10546875 72.9501953125 693.990234375 c 0
 75.244140625 688.905273438 76.1572265625 684.069335938 77.66796875 680.252929688 c 0
 85.7529296875 668.921875 93.9033203125 657.67578125 102.046875 646.44140625 c 0
 156.375647576 577.630859375 167.51616067 564.08984375 216.341115498 488.654296875 c 0
 231.690124633 464.056640625 249.181252918 436.096679688 260.111607908 419.274414062 c 1
 340.491215308 539.942382812 366.983398438 588.348632812 376.35546875 603.989257812 c 0
 376.767578125 604.729492188 410.20703125 667.1015625 412.100585938 681.009765625 c 0
 412.27734375 682.344726562 412.43359375 683.8515625 412.599609375 685.486328125 c 0
 413.2109375 689.874023438 413.697265625 696.012695312 418.51953125 701.833984375 c 0
 425.3671875 710.225585938 436.69140625 714.424804688 447.853515625 714.424804688 c 0
EndSplineSet
EndChar

StartChar: Z
Encoding: 90 90 60
Width: 490
GlyphClass: 1
Flags: HW
LayerCount: 2
Fore
SplineSet
465.80078125 66.328125 m 0
 474.439453125 58.306640625 478.904296875 47.68359375 478.904296875 37.0302734375 c 0
 478.904296875 3.7685546875 440.36328125 -8.2763671875 418.110351562 -8.2763671875 c 0
 403.305664062 -8.2763671875 388.598632812 0.8837890625 384.236328125 16.2490234375 c 1
 373.682617188 16.78125 362.954101562 16.931640625 351.463297453 16.931640625 c 0
 336.696995115 16.931640625 321.817138799 16.701171875 306.967277873 16.701171875 c 0
 282.777066536 16.701171875 202.912196262 17.796875 88.326171875 25.0224609375 c 0
 86.0078125 25.1396484375 46.65625 30.490234375 37.537109375 35.0498046875 c 0
 22.4013671875 42.6181640625 12.6640625 56.2890625 12.6640625 73.0537109375 c 0
 12.6640625 88.41796875 30.7197265625 127.8203125 34.587890625 133.418945312 c 0
 51.033203125 161.09765625 69.4794921875 183.240234375 86.64453125 209.493164062 c 0
 125.758789062 268.838867188 133.403234628 282.850585938 176.450905342 342.395507812 c 0
 183.025252226 351.94921875 216.473326651 396.572265625 222.535609365 405.411132812 c 0
 256.070456171 452.793945312 286.493281191 502.116210938 317.271765844 552.028320312 c 0
 358.766103825 619.318359375 371.811523438 641.421875 382.041992188 657.705078125 c 1
 352.665255609 655.071289062 314.038691231 654.258789062 282.985963007 652.024414062 c 0
 237.037309506 649.134765625 190.408403395 642.55078125 143.679869736 642.55078125 c 0
 143.131382591 642.55078125 107.86328125 642.895507812 92.82421875 646.237304688 c 0
 83.3955078125 648.333007812 75.658203125 651.245117188 67.1279296875 653.169921875 c 0
 48.611328125 656.147460938 38.3994140625 672.528320312 38.3994140625 688.447265625 c 0
 38.3994140625 708.40625 53.216796875 725.763671875 74.6982421875 725.763671875 c 0
 89.1064453125 725.763671875 96.484375 717.202148438 99.9248046875 716.21484375 c 0
 109.114257812 712.994140625 140.986712156 712.9296875 141.434500489 712.9296875 c 0
 206.301675411 712.9296875 270.901034345 722.763671875 352.54098899 725.760742188 c 0
 406.384765625 727.905273438 395.874023438 731.659179688 420.553710938 731.659179688 c 0
 462.231445312 731.659179688 476.5859375 702.536132812 476.5859375 683.431640625 c 0
 476.5859375 668.236328125 469.548828125 659.37109375 462.424804688 650.397460938 c 0
 444.286132812 627.547851562 397.680664062 546.586914062 335.683579415 441.287109375 c 0
 302.331918746 387.880859375 302.331918746 387.880859375 272.18655109 347.51171875 c 0
 254.670314183 324.0546875 241.635174395 306.575195312 199.088855211 245.801757812 c 0
 188.317296157 230.415039062 132.450195312 150.5859375 111.930664062 123.911132812 c 0
 104.986328125 114.8828125 98.69921875 105.55078125 93.662109375 95.5478515625 c 1
 139.482657565 91.818359375 271.517011119 86.8935546875 298.873878703 86 c 0
 299.436292279 86 343.888390036 86.705078125 355.143089134 86.705078125 c 0
 424.686523438 86.705078125 452.51953125 78.5478515625 465.80078125 66.328125 c 0
EndSplineSet
EndChar

StartChar: underscore
Encoding: 95 95 61
Width: 638
GlyphClass: 1
Flags: W
LayerCount: 2
Fore
SplineSet
568.279692942 -76.0261690438 m 0
 567.58686481 -76.0333523485 502.674412924 -77 499 -77 c 2
 498.732818494 -77 l 1
 498.466916386 -76.9860051522 l 2
 478.754246063 -75.9484961878 461.058296366 -71.9745212523 442.172292736 -69.9689348602 c 0
 425.649797689 -69.0066807325 407.916445018 -69 391 -69 c 0
 347.157196652 -69 333.939079024 -69 184.915242004 -81.9585945235 c 0
 140.46816296 -85.9992380729 99.2288716677 -84.9256273088 54.6711470518 -87.7794829605 c 0
 48.5216264206 -91.9282740101 41.3184908857 -93.2765172606 34.5701933015 -93.2765184805 c 0
 31.726560849 -93.2765184805 19.8237952908 -92.8926610926 8.35277619223 -86.8552826197 c 0
 -4.0846923043 -80.3092465688 -10.18499774 -67.975976204 -10.18499774 -56.0263066888 c 0
 -10.18499774 -38.3450282046 2.15900025038 -26.2475462979 12.69929305 -22.5584438181 c 0
 32.0367318905 -15.7903402239 86.879728139 -15.3598203745 121.294171418 -14.612327194 c 0
 131.080533477 -14.3997641477 139.087247401 -14.2224241746 143.517339224 -14.0114674211 c 2
 143.650292566 -14.0051363096 l 1
 143.783584525 -14.0051363096 l 1
 216.182043523 -12.464743565 284.557313159 1.26012958873 389.599327353 1.26012958873 c 0
 465.166668876 1.26012958873 473.072553369 -7.07212960811 503.266817299 -7.07212960811 c 0
 518.28849425 -7.07212960811 546.300158173 -4.82268412454 572.309160432 -4.82268412454 c 0
 603.493984635 -4.82268412454 623.608170401 -8.03269128083 633.453662313 -16.3634921293 c 0
 643.033283253 -24.4693252326 648.140140494 -35.9671291965 648.140140494 -47.649501794 c 0
 648.140140494 -70.5794081705 628.756628028 -88.9005097865 603.709101034 -88.9005097865 c 0
 591.132089746 -88.9005097865 578.522596857 -84.3820278642 568.279692942 -76.0261690438 c 0
EndSplineSet
EndChar

StartChar: grave
Encoding: 96 96 62
Width: 236
GlyphClass: 1
Flags: W
LayerCount: 2
Fore
SplineSet
224.234860264 561.85225214 m 0
 224.234860264 542.138380143 208.475869621 525.888682872 189.590603976 525.888682872 c 0
 182.058390302 525.888682872 166.992552575 528.553726614 157.318394223 547.998813375 c 0
 154.319734336 552.169925446 133.371909253 573.099954509 121.665020594 584.406437365 c 0
 120.998112495 585.050535555 57.2160907843 646.007282803 54.5416464898 648.365342609 c 0
 45.0300571087 656.117722145 29.5637568214 664.81189803 20.740458167 674.125379943 c 0
 14.1653422404 681.065780088 11.0807244204 689.589198328 11.0807244204 697.863171626 c 0
 11.0807244204 716.170235844 25.8073729444 733.602348444 46.1186837415 733.602348444 c 0
 59.5018401612 733.602348444 65.3980998221 728.885340716 94.17074583 705.867223909 c 0
 112.052606844 691.817190255 189.508857409 615.703538641 190.400433313 614.722805146 c 0
 192.947011837 611.92156877 195.728173298 609.088448762 198.587500568 606.179590081 c 0
 211.191080725 593.357681259 224.234860264 580.087947591 224.234860264 561.85225214 c 0
EndSplineSet
EndChar

StartChar: a
Encoding: 97 97 63
AltUni2: 0000e5.ffffffff.0 0000e4.ffffffff.0 0000e5.ffffffff.0 0000e4.ffffffff.0
Width: 418
GlyphClass: 1
Flags: HW
LayerCount: 2
Fore
SplineSet
316.888671875 180.142578125 m 1
 276.868164062 173.546875 230.884705747 172.966796875 184.181062592 172.966796875 c 0
 178.979813769 172.966796875 156.362851731 172.998046875 156.082414679 172.998046875 c 0
 149.434339598 168.583007812 132.637695312 165.221679688 130.186523438 164.930664062 c 0
 127.139648438 164.930664062 124.139648438 165.314453125 121.206054688 166.030273438 c 0
 105.916992188 120.512695312 95.2099609375 80.6142578125 87.7744140625 43.0302734375 c 0
 86.001953125 36.3125 84.9189453125 20.548828125 81.25390625 13.0009765625 c 0
 75.7900390625 -1.2294921875 62.318359375 -8.189453125 49.4267578125 -8.189453125 c 0
 32.24609375 -8.189453125 14 4.1845703125 14 25.501953125 c 0
 14 46.2412109375 32.8056640625 114.171875 41.240234375 145.61328125 c 0
 64.4189453125 232.024414062 118.01953125 365.620117188 206.749949708 420.01171875 c 0
 215.620917661 425.442382812 242.114778856 441.662109375 273.640625 441.662109375 c 0
 310.802734375 441.662109375 350.334960938 414.942382812 366.883789062 385.12890625 c 0
 381.763671875 357.665039062 383.828125 328.0234375 385.966796875 297.3046875 c 0
 387.76953125 279.650390625 388.4140625 262.073242188 388.4140625 244.624023438 c 0
 388.4140625 199.467773438 384.745117188 168.729492188 384.745117188 130.844726562 c 0
 384.745117188 76.630859375 390.203125 36.1611328125 390.203125 30.96875 c 0
 390.203125 12.462890625 375.530273438 -4.1796875 355.036132812 -4.1796875 c 0
 331.623046875 -4.1796875 318 19.322265625 318 39.5322265625 c 0
 318 72.033203125 314.83984375 104.099609375 314.83984375 137.061523438 c 0
 314.83984375 157.931640625 315.834960938 147.465820312 316.888671875 180.142578125 c 1
301.557617188 364.641601562 m 0
 296.583984375 372.45703125 282.068359375 382.412109375 274.552734375 382.412109375 c 0
 262.400107124 382.412109375 221.383040588 346.80078125 200.020605114 319.462890625 c 0
 181.397295617 295.2109375 165.294485659 269.543945312 151.668678882 243 c 1
 179.712384026 243 l 2
 228.88043931 243 277.44921875 244.766601562 318.887695312 252.255859375 c 1
 318.51171875 267.83984375 317.155273438 293.135742188 314.178710938 316.165039062 c 0
 312.431640625 329.681640625 308.490234375 353.74609375 301.557617188 364.641601562 c 0
EndSplineSet
EndChar

StartChar: b
Encoding: 98 98 64
Width: 434
GlyphClass: 1
Flags: HW
LayerCount: 2
Fore
SplineSet
130.9921875 550.59375 m 2
 130.130859375 529.809570312 128.473632812 413.018554688 128.083984375 369.41796875 c 1
 129.328125 369.801757812 238.881846906 399.411132812 271.600734409 399.411132812 c 0
 326.21875 399.411132812 383.841796875 353.759765625 403.353515625 305.321289062 c 0
 411.987304688 283.345703125 416.515625 259.748046875 416.515625 236.4140625 c 0
 416.515625 224.123046875 416.515625 190.040039062 388.2890625 149.75390625 c 0
 341.327148438 82.7314453125 270.477800206 24.5439453125 180.120611209 -8.166015625 c 0
 164.410840871 -14.1015625 146.4296875 -20.712890625 128.811523438 -20.712890625 c 0
 90.3359375 -20.712890625 73.2333984375 6.8701171875 67.13671875 42.2998046875 c 0
 60.271484375 82.1943359375 57.888671875 135.33984375 57.888671875 216.264648438 c 0
 57.888671875 225.952148438 57.9931640625 266.369140625 57.994140625 266.875976562 c 0
 41.353515625 270.913085938 29.92578125 284.787109375 29.92578125 300.186523438 c 0
 29.92578125 317.866210938 41.8994140625 325.811523438 58.0146484375 336.505859375 c 1
 58.0283203125 339.090820312 60.9833984375 590.3046875 60.9970703125 594.987304688 c 1
 55.6005859375 601.579101562 53.1064453125 609.521484375 53.1064453125 617.291015625 c 0
 53.1064453125 634.622070312 65.7431640625 652.654296875 89.0595703125 652.654296875 c 0
 114.3671875 652.654296875 127.989257812 630.967773438 129.838867188 620.797851562 c 0
 131.1953125 613.334960938 131.25 599.3046875 131.25 584.625 c 0
 131.25 574.747070312 131 551.3359375 131 551 c 2
 131 541 131 540.796875 131 550.796875 c 1
 131 540.796875 130.9921875 540.59375 130.9921875 550.59375 c 2
310.263671875 157.333984375 m 0
 335.918945312 189.403320312 346.333007812 206.943359375 346.333007812 237.678710938 c 0
 346.333007812 256.86328125 341.264648438 276.689453125 331.374023438 292.940429688 c 0
 322.266601562 308.423828125 290.950711393 334.026367188 274.588440516 334.026367188 c 0
 247.643673899 334.026367188 156.811527837 310.057617188 127.948242188 297.236328125 c 1
 127.643554688 275.143554688 127.444335938 253.064453125 127.444335938 231 c 0
 127.444335938 213.155273438 127.725585938 80.4462890625 136.692382812 41.654296875 c 1
 137.208984375 41.9091796875 139.260742188 42.9150390625 140.561523438 43.392578125 c 0
 205.874592614 64.541015625 265.858277328 108.282226562 310.263671875 157.333984375 c 0
EndSplineSet
EndChar

StartChar: c
Encoding: 99 99 65
Width: 379
GlyphClass: 1
Flags: HW
LayerCount: 2
Fore
SplineSet
267.739257812 136.997070312 m 2
 268 136.997070312 l 2
 274.442382812 136.997070312 305.69140625 139.559570312 323.263671875 139.559570312 c 0
 327.865234375 139.559570312 331.489257812 139.501953125 334.96875 138.805664062 c 0
 352.612304688 135.27734375 366.583007812 121.586914062 368 100.337890625 c 1
 368 90.337890625 368 90 368 100 c 2
 368 86.126953125 357.833984375 67.2998046875 357.66015625 67 c 0
 350.905273438 55.3330078125 339.041015625 49.7666015625 327.626953125 49.7666015625 c 0
 315.537109375 49.7666015625 303.078125 55.98046875 296.534179688 67.654296875 c 1
 286.91796875 67.208984375 277.206054688 66.9658203125 267.442382812 66.9658203125 c 0
 219.607051318 66.9658203125 166.393342926 71.5732421875 120.087890625 84.431640625 c 0
 95.8798828125 91.798828125 71.3125 104.4609375 52.599609375 124.27734375 c 0
 39.0302734375 139.203125 16.8037109375 171.041015625 16.8037109375 219.479492188 c 0
 16.8037109375 234.774414062 19.55078125 249.874023438 22.1611328125 263.797851562 c 0
 32.30078125 319.565429688 49.396484375 346.736328125 107.462890625 386.326171875 c 0
 131.749023438 402.516601562 160.518282796 416.826171875 194.1516327 429.094726562 c 0
 218.018617955 438.357421875 246.147224653 446.895507812 270.5390625 447.989257812 c 2
 270.5390625 437.989257812 270.76953125 438 270.76953125 448 c 1
 271 448 l 2
 289.75390625 448 302.266601562 440.506835938 302.537109375 440.326171875 c 0
 318.606445312 429.61328125 325.524414062 412.203125 325.524414062 399.8125 c 0
 325.524414062 379.134765625 307.873046875 364.97265625 289.903320312 364.97265625 c 0
 280.630859375 364.97265625 271.073242188 368.815429688 263.873046875 376.958984375 c 1
 233.281390704 369.543945312 124.409179688 321.700195312 104.41796875 290.602539062 c 0
 90.7294921875 269.309570312 87.1142578125 230.23828125 87.1142578125 218.44921875 c 0
 87.1142578125 210.356445312 88.05859375 202.579101562 90.3994140625 195.432617188 c 0
 102.311523438 165.909179688 117.583007812 160.033203125 137.638412427 152.374023438 c 0
 175.571487125 141.15625 216.774305463 136.853515625 256.736328125 136.853515625 c 0
 260.3984375 136.853515625 264.067382812 136.90234375 267.739257812 136.997070312 c 2
EndSplineSet
EndChar

StartChar: d
Encoding: 100 100 66
Width: 426
GlyphClass: 1
Flags: HW
LayerCount: 2
Fore
SplineSet
242.254747003 -7.1044921875 m 0
 220.500180558 -20.6376953125 192.554708075 -26.7607421875 165.144659158 -26.7607421875 c 0
 106.095703125 -26.7607421875 81.2568359375 2.634765625 62.8876953125 26.3017578125 c 0
 25.556640625 78.158203125 20.095703125 127.729492188 20.095703125 166.740234375 c 0
 20.095703125 179.89453125 20.83203125 192.955078125 22.041015625 205.807617188 c 0
 22.1025390625 206.5390625 27.359375 251.823242188 42.3740234375 276.48828125 c 0
 52.6640625 293.390625 64.0859375 308.463867188 77.5478515625 322.4921875 c 0
 128.120117188 379.021484375 176.118000324 390.9609375 257.979830225 390.9609375 c 0
 276.060322429 390.9609375 295.397460938 390.7890625 309.108398438 388.81640625 c 1
 312.732421875 424.921875 322.814453125 518.505859375 326.403320312 546.95703125 c 1
 319.474609375 553.938476562 315.517578125 563.262695312 315.517578125 572.859375 c 0
 315.517578125 594.537109375 342.612304688 621.461914062 365.942382812 621.461914062 c 0
 385.15234375 621.461914062 402 606.197265625 402 586 c 0
 402 572.73046875 392.069335938 513.270507812 390.943359375 500.931640625 c 0
 388.44921875 478.372070312 386.138671875 455.788085938 383.826171875 433.177734375 c 0
 376.889648438 365.349609375 369.94140625 297.319335938 357.86328125 229.049804688 c 0
 351.029296875 189.59375 332.749023438 112.048828125 287.586914062 40.712890625 c 0
 276.950421479 25.03515625 261.954014491 4.6865234375 242.254747003 -7.1044921875 c 0
268.210853792 326.005859375 m 0
 266.776236932 326.005859375 265.338209731 326.008789062 263.897908969 326.008789062 c 0
 228.189363159 326.008789062 192.145467132 324.639648438 167.625113983 309.81640625 c 0
 144.458666286 295.600585938 125.646484375 276.463867188 111.268554688 255.376953125 c 0
 101.483398438 241.2421875 89.78515625 212.913085938 89.78515625 158.150390625 c 0
 89.78515625 89.919921875 128.578125 42.8095703125 141.083565289 37.1923828125 c 0
 145.280558513 35.732421875 155.19783069 34.3662109375 165.041212142 34.3662109375 c 0
 176.012279747 34.3662109375 186.928781893 36.20703125 190.297062208 37.78515625 c 0
 195.512610666 40.228515625 214.950418663 62.291015625 229.944552091 85.8974609375 c 0
 272.960322288 151.490234375 289.571289062 229.391601562 298.6875 306.15234375 c 1
 279.208067347 307.702148438 269.519288029 321.954101562 268.210853792 326.005859375 c 0
EndSplineSet
EndChar

StartChar: e
Encoding: 101 101 67
AltUni2: 0000eb.ffffffff.0 0000e8.ffffffff.0 0000eb.ffffffff.0 0000e8.ffffffff.0
Width: 464
GlyphClass: 1
Flags: HW
LayerCount: 2
Fore
SplineSet
352.713867188 47.0859375 m 1
 359.526367188 53.7412109375 378.96875 61.4970703125 393.518540558 61.4970703125 c 0
 412.9140625 61.4970703125 429.823242188 47.71484375 429.823242188 27.9379469893 c 0
 429.823242188 15.482421875 423.116210938 2.7119140625 412.413197805 -4.3033389064 c 0
 392.16015625 -17.578125 337.297851562 -24.0849609375 314.689393032 -24.0849609375 c 0
 259.526031386 -24.0849609375 151.504148855 14.65234375 99.1021598984 51.1230847611 c 0
 71.9990234375 69.986328125 19.6552734375 115.82421875 19.6552734375 202.282184459 c 0
 19.6552734375 245.826171875 32.9326171875 290.568359375 54.0345774429 329.736303772 c 0
 76.794921875 371.982421875 110.51171875 411.1015625 143.005656538 439.051254935 c 0
 165.958243739 458.793945312 201.781927801 485 242.745776889 496.689577088 c 0
 258.199877215 501.099609375 279.450101567 504.888671875 300.220106442 504.888671875 c 0
 342.883789062 504.888671875 372.045898438 488.901367188 396.438073326 466.801309778 c 0
 442.713867188 424.874023438 444.4375 387.004882812 444.4375 373.20123005 c 0
 444.4375 342.296875 435.797851562 311.421875 434.790865721 307.937689522 c 0
 419.483398438 254.973632812 346.548828125 229.938476562 271.905767421 226.398131653 c 0
 265.961876195 226.116210938 248.49518831 225.451171875 211.604886442 225.451171875 c 0
 211.604886442 225.451171875 174.790145795 225.451171875 138.391469984 235.910263666 c 0
 132.627929688 237.56640625 127.853515625 239.065429688 123.236243436 239.995228048 c 0
 111.505859375 242.357421875 103.28125 248.64453125 98.494140625 256.560546875 c 1
 93.3359375 238.73046875 89.9794921875 220.3203125 89.9794921875 203.335506722 c 0
 89.9794921875 186.340820312 93.33984375 146.517578125 121.76652166 121.19459222 c 0
 156.990550505 89.81640625 272.451380421 43.7470703125 319.849383416 43.7470703125 c 0
 328.89453125 43.7470703125 343.452148438 45.4248046875 352.713867188 47.0859375 c 1
118.859375 307.916015625 m 1
 121.978515625 308.7734375 125.358398438 309.241210938 128.858262057 309.241210938 c 0
 143.493564412 309.241210938 160.641581063 301.061523438 172.896830704 299.161679248 c 0
 183.596860778 297.502929688 222.599591544 295.734375 238.61883519 295.734375 c 0
 239.922822619 295.734375 244.506869985 295.74609375 246.933589757 295.987304688 c 2
 247.428570504 295.997070312 l 2
 292.706167827 296.936523438 361.026367188 303.694335938 371.306549534 346.999513129 c 0
 372.065429688 350.196289062 374.657226562 362.540039062 374.657226562 373.694414456 c 0
 374.657226562 378.189453125 374.236328125 382.520507812 373.354637822 385.874620893 c 0
 369.149414062 401.872070312 341.456054688 434.814453125 324.401087313 441.766062638 c 0
 318.831733525 444.036132812 311.231807887 445.099609375 303.097646451 445.099609375 c 0
 288.739751305 445.099609375 272.824806162 441.786132812 260.404950176 437.678425178 c 0
 229.804189638 427.557617188 203.945825937 405.83984375 184.882579364 388.156169916 c 0
 155.699439218 361.084960938 133.640625 335.510742188 118.859375 307.916015625 c 1
EndSplineSet
EndChar

StartChar: f
Encoding: 102 102 68
Width: 329
GlyphClass: 1
Flags: HW
LayerCount: 2
Fore
SplineSet
31 61 m 2
 31 70.66015625 32.845703125 123.848632812 34 135.525390625 c 0
 33.970703125 218.822265625 26.6025390625 309.702148438 26.6025390625 338.678710938 c 0
 26.6025390625 355.565429688 28.7578125 380.1640625 39.673828125 396.537109375 c 0
 54.59765625 418.923828125 79.9306640625 426.533203125 80.419921875 426.663085938 c 0
 93.546875 430.1640625 177.668945312 439.497070312 189.584960938 440.250976562 c 0
 200.3203125 440.9296875 220.196289062 442.1953125 237.490234375 444.396484375 c 0
 271.977539062 448.784179688 268.462890625 455.172851562 283.279296875 455.172851562 c 0
 301.409179688 455.172851562 319.44140625 441.17578125 319.44140625 420.60546875 c 0
 319.44140625 411.040039062 315.609375 394.123046875 299.462890625 386.049804688 c 0
 279.018554688 375.828125 148.408203125 367.251953125 121.323242188 363.084960938 c 0
 106.546875 361.443359375 103.44140625 361.09765625 99.298828125 359.119140625 c 0
 98.4853515625 355.426757812 97.607421875 343.803710938 97.607421875 332.075195312 c 0
 97.607421875 320.037109375 98.125 307.188476562 98.595703125 299.23046875 c 1
 99.169921875 299.318359375 118.495117188 301.555664062 156.0859375 307.8203125 c 0
 196.567382812 316.791015625 196.567382812 316.791015625 208.282226562 322.303710938 c 0
 219.487304688 326.10546875 238.956054688 342.4609375 255.896484375 342.4609375 c 0
 276.752929688 342.4609375 289.610351562 324.544921875 289.610351562 307.424804688 c 0
 289.610351562 296.127929688 283.993164062 284.362304688 272.084960938 277.388671875 c 0
 271.622070312 277.111328125 236.401367188 256.590820312 224.16015625 252.510742188 c 0
 208.959960938 247.443359375 193.547851562 243.297851562 177.868164062 241.16015625 c 0
 165.627929688 238.225585938 123.846679688 231.798828125 102.306640625 229.6875 c 1
 102.930664062 208.4140625 103.807617188 167.62109375 103.807617188 130.228515625 c 0
 103.807617188 97.1728515625 103.321289062 67.607421875 100.833007812 54.1708984375 c 0
 98.125 39.0595703125 84.65234375 26.2470703125 66.779296875 26.2470703125 c 0
 49.8525390625 26.2470703125 31.7451171875 38.4765625 31.005859375 60.6611328125 c 2
 31.005859375 50.6611328125 31 50.830078125 31 60.830078125 c 1
 31 50.830078125 31 51 31 61 c 2
EndSplineSet
EndChar

StartChar: g
Encoding: 103 103 69
Width: 502
GlyphClass: 1
Flags: HW
LayerCount: 2
Fore
SplineSet
426.203125 237.610351562 m 0
 433.243164062 239.954101562 441.685546875 242.647460938 451.249023438 242.647460938 c 0
 476.676757812 242.647460938 492.529296875 223.922851562 492.529296875 203.4921875 c 0
 492.529296875 185.56640625 476 165.918945312 466.760742188 161.326171875 c 0
 461.860351562 158.627929688 450.383789062 156.837890625 449.547851562 156.837890625 c 1
 449.564453125 156.842773438 449.586914062 156.880859375 449.61328125 156.887695312 c 1
 439.841796875 156.887695312 430.4140625 161.03125 423.747070312 168.479492188 c 1
 393.3984375 161.401367188 361.616120612 157.084960938 328.645715616 154.30078125 c 1
 328.427665865 94.9638671875 267.918859963 11.791015625 213.401077857 -17.576171875 c 0
 193.395013203 -28.376953125 168.767148925 -36.02734375 144.146766746 -36.02734375 c 0
 129.28125 -36.02734375 94.525390625 -32.01953125 66.3310546875 2.5830078125 c 0
 41.4208984375 30.40625 20.943359375 83.2978515625 20.943359375 147.421875 c 0
 20.943359375 198.181640625 32.5185546875 244.869140625 54.904296875 290.845703125 c 0
 81.61328125 348.141601562 123.624023438 398.30078125 174.410789539 438.505859375 c 0
 219.701005467 472.422851562 274.584341567 512.162109375 338.621491724 512.162109375 c 0
 383.606445312 512.162109375 396.41015625 487.125 396.41015625 471.625976562 c 0
 396.41015625 452.703125 380.645507812 436.049804688 360.11008091 436.049804688 c 0
 345.83637319 436.049804688 342.309097807 442.392578125 334.663461195 442.392578125 c 0
 324.885426282 442.392578125 307.466030243 436.537109375 298.18608937 432.45703125 c 0
 246.918744973 407.87109375 171.84442948 349.52734375 132.713867188 285.400390625 c 0
 123.77734375 270.478515625 90.6591796875 213.568359375 90.6591796875 141.264648438 c 0
 90.6591796875 123.245117188 92.9921875 78.166015625 114.515625 45.248046875 c 0
 115.623046875 43.3486328125 126.045898438 26.0947265625 140.256835938 23.923828125 c 0
 141.643470095 23.7890625 144.449257332 23.7275390625 144.520871711 23.7236328125 c 0
 198.368471494 23.7236328125 246.406755607 112.991210938 251.994814912 146.633789062 c 1
 251.072378956 146.655273438 250.066571036 146.666992188 249.039385689 146.666992188 c 0
 248.17146217 146.666992188 247.298194295 146.653320312 246.402480122 146.653320312 c 0
 223.619487757 146.653320312 208.329283404 163.580078125 208.329283404 181.7265625 c 0
 208.329283404 193.186523438 214.555458892 205.137695312 227.60530894 211.729492188 c 0
 236.031221622 216.1015625 244.596087577 216.157226562 250.918461484 216.455078125 c 0
 255.460095759 216.66796875 256.557826613 216.775390625 258.31718882 216.9765625 c 2
 258.794974304 216.993164062 l 2
 316.122819132 218.969726562 375.20703125 224.8984375 426.203125 237.610351562 c 0
EndSplineSet
EndChar

StartChar: h
Encoding: 104 104 70
Width: 460
GlyphClass: 1
Flags: HW
LayerCount: 2
Fore
SplineSet
113.52734375 156.153320312 m 0
 113.52734375 84.47265625 119.181640625 35.873046875 119.181640625 34.6572265625 c 0
 119.181640625 19.2255859375 101.98046875 9.1318359375 84.2861328125 9.1318359375 c 0
 72.91796875 9.1318359375 61.34375 13.4189453125 54.38671875 22.05078125 c 0
 48.091796875 30.9794921875 47.9013671875 40.3828125 47.4765625 48.0966796875 c 0
 47.3544921875 50.869140625 47.2412109375 53.4521484375 47.041015625 55.990234375 c 0
 43.9599609375 89.5849609375 42.80078125 123.48046875 42.80078125 157.431640625 c 0
 42.80078125 228.28515625 48.3154296875 336.521484375 68.9072265625 637.561523438 c 0
 67.923828125 638.572265625 65.7373046875 648.641601562 65.7373046875 660.23046875 c 0
 65.7373046875 674.734375 78.7353515625 693.411132812 103.458007812 693.411132812 c 0
 122.47265625 693.411132812 140.108398438 682.086914062 140.108398438 666.490234375 c 0
 140.108398438 663.97265625 130.748046875 534.702148438 124.880859375 415.201171875 c 1
 150.3125 430.8515625 182.969785827 440.75 223.563084663 440.75 c 0
 224.506984672 440.75 284.926662458 440.233398438 315.812235225 425.005859375 c 0
 339.694335938 411.293945312 354.427734375 389.923828125 367.486328125 369.989257812 c 0
 415.778320312 294.275390625 439.259765625 201.313476562 439.259765625 111.46875 c 0
 439.259765625 88.44921875 439.258789062 65.5546875 426.092773438 49.0087890625 c 0
 417.172851562 39.5009765625 403.626953125 34.802734375 390.686523438 34.802734375 c 0
 372.63671875 34.802734375 354.810546875 43.9833984375 354.810546875 61.0419921875 c 0
 354.810546875 85.0419921875 367.630859375 96.3017578125 368.466796875 96.859375 c 0
 369.39453125 103.280273438 369.821289062 109.821289062 369.821289062 116.422851562 c 0
 369.821289062 143.856445312 365.305664062 242.765625 302.951457644 338.89453125 c 0
 294.199948191 349.8828125 286.158323205 359.42578125 274.177623212 364.692382812 c 0
 266.999280441 367.653320312 245.835989734 370.094726562 225.477757278 370.094726562 c 0
 210.027133054 370.094726562 194.912416306 368.740234375 187.372413151 366.970703125 c 0
 163.804024913 359.693359375 146.052734375 345.203125 127.4921875 329.66796875 c 0
 124.670898438 327.157226562 121.830078125 324.629882812 118.954101562 322.11328125 c 0
 113.52734375 195.34375 113.52734375 195.34375 113.52734375 156.153320312 c 0
EndSplineSet
EndChar

StartChar: i
Encoding: 105 105 71
AltUni2: 0000ef.ffffffff.0 0000ee.ffffffff.0 0000ec.ffffffff.0 0000ef.ffffffff.0 0000ee.ffffffff.0 0000ec.ffffffff.0
Width: 180
GlyphClass: 1
Flags: HW
LayerCount: 2
Fore
SplineSet
70.912109375 530.83984375 m 0
 47.15625 530.83984375 25.5888671875 553.013671875 25.5888671875 585.161132812 c 0
 25.5888671875 588.529296875 29.2880859375 615.700195312 37.9345703125 626.073242188 c 0
 47.4248046875 637.645507812 62.0849609375 642.490234375 75.6953125 642.490234375 c 0
 97.6044921875 642.490234375 120.15625 630.0625 120.15625 609.280273438 c 0
 120.15625 595.904296875 117.514648438 577.071289062 112.533203125 565.135742188 c 0
 105.375976562 543.442382812 88.642578125 530.83984375 70.912109375 530.83984375 c 0
96.1865234375 5.16796875 m 0
 83.41015625 5.16796875 49.8681640625 10.02734375 49.8681640625 52.419921875 c 0
 49.8681640625 111.104492188 55.8046875 163.610351562 55.8046875 259.370117188 c 0
 55.8046875 340.446289062 51.9619140625 431.309570312 51.9404296875 433.046875 c 0
 51.9404296875 458.294921875 76.41796875 470.831054688 96.9833984375 470.831054688 c 0
 116.724609375 470.831054688 139.211914062 459.374023438 140.958984375 435.649414062 c 0
 144.0390625 387.017578125 145.19921875 338.298828125 145.19921875 289.659179688 c 0
 145.19921875 226.518554688 143.255859375 163.512695312 141 100.993164062 c 1
 141 90.9931640625 141 29.1962890625 141 39.1962890625 c 1
 121.0546875 39.1962890625 l 1
 121.0546875 29.1962890625 130.997070312 19.4130859375 130.997070312 29.4130859375 c 1
 130.997070312 19.4130859375 140.993164062 29.1484375 140.993164062 39.1484375 c 1
 140.9921875 39.1279296875 140.9921875 39.06640625 140.9921875 38.994140625 c 2
 140.9921875 28.994140625 140.9921875 28.708984375 140.9921875 38.708984375 c 1
 140.9921875 28.708984375 140.9765625 28.42578125 140.9765625 38.42578125 c 2
 139.669921875 15.146484375 115.014648438 5.16796875 96.1865234375 5.16796875 c 0
EndSplineSet
EndChar

StartChar: j
Encoding: 106 106 72
Width: 403
GlyphClass: 1
Flags: HW
LayerCount: 2
Fore
SplineSet
174.96379211 239.325195312 m 0
 195.37947617 287.440429688 203.45285809 339.721679688 204.610589254 391.334960938 c 0
 204.610589254 399.28515625 204.668646569 407.348632812 204.668646569 415.359375 c 0
 204.668646569 442.951171875 203.948052836 469.935546875 198.074018613 495.965820312 c 0
 196.401740266 499.379882812 196.179756414 502.053710938 194.110183891 505.654296875 c 0
 187.363013187 505.190429688 129.705078125 501.026367188 118.645507812 496.135742188 c 0
 113.026367188 492.942382812 107.055664062 491.407226562 101.23828125 491.407226562 c 0
 81.8271484375 491.407226562 66.001953125 507.80078125 66.001953125 526.532226562 c 0
 66.001953125 546.932617188 85.083984375 562.217773438 108.17578125 566.833984375 c 0
 194.485848871 581.258789062 319.852539062 577.900390625 343.415039062 586.295898438 c 0
 345.844726562 587.883789062 352.975585938 592.345703125 362.71484375 592.345703125 c 0
 382.706054688 592.345703125 397.700195312 574.668945312 397.700195312 556.240234375 c 0
 397.700195312 530.874023438 369.418945312 518.791992188 358.530273438 517.116210938 c 0
 346.82421875 515.315429688 300.493164062 511.693359375 276.959110762 509.89453125 c 1
 282.967773438 479.647460938 284.422851562 448.892578125 284.422851562 418.5625 c 0
 284.422851562 366.342773438 284.272460938 260.973632812 224.25217578 161.33984375 c 0
 207.670551267 135.080078125 177.003766786 86.51171875 120.904296875 86.51171875 c 0
 106.124023438 86.51171875 75.9375 89.9541015625 45.76171875 140.165039062 c 0
 29.08984375 167.905273438 18.232421875 200.8671875 17.01171875 226.517578125 c 2
 17 226.7578125 l 1
 17 227 l 2
 17 241.236328125 17.7216796875 258.432617188 27.5107421875 273.291992188 c 0
 36.0009765625 287.592773438 53.2548828125 296.306640625 69.583984375 296.306640625 c 0
 90.458984375 296.306640625 104.317382812 279.131835938 104.317382812 261.26171875 c 0
 104.317382812 249.682617188 98.3896484375 237.799804688 86.720703125 231.341796875 c 1
 86.896484375 204.219726562 106.610351562 167.91015625 121.842773438 156.67578125 c 1
 132.724609375 165.071289062 153.65561913 186.317382812 174.96379211 239.325195312 c 0
EndSplineSet
EndChar

StartChar: k
Encoding: 107 107 73
Width: 314
GlyphClass: 1
Flags: HW
LayerCount: 2
Fore
SplineSet
32 51 m 0
 32 186.534179688 52 321.529296875 52 457 c 0
 52 457.505859375 50.9130859375 500.575195312 49.2509765625 507.537109375 c 0
 48.5068359375 511.552734375 48.1357421875 515.494140625 48.1357421875 519.338867188 c 0
 48.1357421875 535.279296875 66.677734375 544.58203125 84.0078125 544.58203125 c 0
 98.662109375 544.58203125 113.626953125 537.515625 117.685546875 523.676757812 c 0
 119.645507812 517.704101562 119.98046875 506.875976562 119.999023438 502.619140625 c 0
 121.625 482.575195312 122.297851562 462.470703125 122.297851562 442.375 c 0
 122.297851562 407.828125 120.590820312 373.309570312 118.283203125 339.099609375 c 1
 136.799804688 362.334960938 180.78125 424.40234375 215.249023438 481.668945312 c 0
 215.39453125 481.922851562 226.364257812 499.780273438 233.711914062 504.87109375 c 0
 239.610351562 508.646484375 254.79296875 511.231445312 256.149414062 511.231445312 c 1
 256.112304688 511.21484375 256.064453125 511.104492188 256.004882812 511.08203125 c 1
 272.49609375 511.08203125 288.116210938 502.33984375 290.899414062 488.94140625 c 0
 291.390625 485.963867188 291.666015625 482.749023438 291.666015625 479.3984375 c 0
 291.666015625 437.770507812 274.823242188 430.255859375 265.280273438 425.998046875 c 1
 256.853515625 413.493164062 194.193359375 321.098632812 158.788085938 285.025390625 c 1
 215.135742188 249.434570312 241.297851562 217.720703125 259.895507812 180.572265625 c 0
 277.751953125 147.592773438 284.813476562 111.370117188 291.7890625 76.220703125 c 0
 292.442382812 72.546875 292.765625 68.9169921875 292.765625 65.3603515625 c 0
 292.765625 50.0283203125 274.787109375 40.375 257.3828125 40.375 c 0
 240.770507812 40.375 229.341796875 48.8564453125 225.510742188 57.001953125 c 0
 223.046875 64.3232421875 216.658203125 92.5517578125 215.236328125 100.513671875 c 0
 207.29296875 127.293945312 198.451171875 154.6796875 182.180664062 174.767578125 c 0
 163.00390625 198.2734375 136.846679688 216.651367188 109.596679688 232.547851562 c 1
 104.836914062 172.310546875 102 112.127929688 102 52 c 2
 102 52 102 48.5576171875 102 48.1962890625 c 1
 102 48.595703125 101.9921875 48.3935546875 101.9921875 47.994140625 c 2
 101.157226562 33.0107421875 84.2314453125 23.515625 67.0361328125 23.515625 c 0
 51.4716796875 23.515625 32 32.587890625 32 51 c 0
EndSplineSet
EndChar

